<?xml version="1.0" encoding="utf-8"?>
<!-- Generator: Adobe Illustrator 24.3.0, SVG Export Plug-In . SVG Version: 6.00 Build 0)  -->
<svg version="1.1" id="Layer_1" xmlns="http://www.w3.org/2000/svg" xmlns:xlink="http://www.w3.org/1999/xlink" x="0px" y="0px"
	 viewBox="0 0 183.4 70" style="enable-background:new 0 0 183.4 70;" xml:space="preserve">
<style type="text/css">
	.st0{clip-path:url(#SVGID_2_);fill:#393B79;}
	.st1{clip-path:url(#SVGID_4_);fill:#D95264;}
	.st2{clip-path:url(#SVGID_6_);fill:#3DA988;}
	.st3{clip-path:url(#SVGID_8_);fill:#393B79;}
	.st4{clip-path:url(#SVGID_10_);fill:#7E3A74;}
	.st5{clip-path:url(#SVGID_12_);fill:none;stroke:#393B79;stroke-width:0.449;stroke-miterlimit:22.9256;}
	.st6{clip-path:url(#SVGID_14_);fill-rule:evenodd;clip-rule:evenodd;fill:#393B79;}
	.st7{fill:#DD2627;}
	.st8{fill:#FEFDFD;}
	.st9{fill:#FDFCFC;}
	.st10{fill:#2690CE;}
	.st11{fill:#434A8E;}
	.st12{fill:#C1E5F9;}
	.st13{fill:#2B2A29;}
</style>
<g>
	<g>
		<defs>
			<rect id="SVGID_1_" x="-17" y="-69.3" width="148" height="209.3"/>
		</defs>
		<clipPath id="SVGID_2_">
			<use xlink:href="#SVGID_1_"  style="overflow:visible;"/>
		</clipPath>
		<path class="st0" d="M39.3,40.3c3.4,0.8,5.2,2.1,5.2,4.8c0,3.1-2.4,4.9-5.8,4.9c-2.5,0-4.8-0.9-6.8-2.6l1.7-2
			c1.6,1.3,3.1,2.1,5.1,2.1c1.8,0,2.9-0.8,2.9-2.1c0-1.2-0.7-1.8-3.7-2.5C34.6,42,32.6,41,32.6,38c0-2.8,2.3-4.7,5.6-4.7
			c2.4,0,4.3,0.7,5.9,2l-1.5,2.2c-1.5-1.1-2.9-1.7-4.4-1.7c-1.7,0-2.7,0.9-2.7,2C35.5,39,36.2,39.6,39.3,40.3 M62.2,49.7h-3
			l-1.6-3.9h-7.7l-1.7,3.9h-2.9l7.2-16.4h2.6C55.1,33.3,62.2,49.7,62.2,49.7z M53.7,36.8l-2.8,6.5h5.6L53.7,36.8z M91.3,49.7l-4-5.7
			h-3.6v5.7h-2.9V33.5H88c3.7,0,6,2,6,5.2c0,2.7-1.6,4.3-3.9,5l4.4,6.2h-3.2V49.7z M87.9,36.1h-4.2v5.5h4.2c2,0,3.3-1.1,3.3-2.7
			C91.2,37,90,36.1,87.9,36.1z M113,49.7h-3l-1.7-3.9h-7.7L99,49.7h-3l7.2-16.4h2.6C105.8,33.3,113,49.7,113,49.7z M104.5,36.8
			l-2.8,6.5h5.6C107.3,43.3,104.5,36.8,104.5,36.8z M78.9,49.7h-3.5l-5.6-7.3L67.3,45v4.7h-2.9V33.4h2.9v8.2l7.7-8.2h3.6l-6.8,7
			L78.9,49.7z M35.1,53.2h0.7l1,3.2l1-3.1h0.8l-1.5,4.2h-0.6l-1.1-3l-1,3h-0.7l-1.4-4.2h0.8l1,3.1L35.1,53.2z M42.9,57.5
			c-1.3,0-2.2-1-2.2-2.2s0.9-2.2,2.2-2.2s2.2,1,2.2,2.2C45.1,56.6,44.2,57.5,42.9,57.5 M42.9,53.9c-0.8,0-1.4,0.7-1.4,1.5
			s0.6,1.5,1.4,1.5s1.4-0.7,1.4-1.5C44.4,54.5,43.8,53.9,42.9,53.9z M50.6,57.5l-1-1.5h-0.9v1.5H48v-4.2h1.9c1,0,1.6,0.5,1.6,1.3
			c0,0.7-0.4,1.1-1,1.3l1.1,1.6C51.6,57.5,50.6,57.5,50.6,57.5z M49.7,53.9h-1.1v1.4h1.1c0.5,0,0.9-0.3,0.9-0.7
			C50.5,54.2,50.2,53.9,49.7,53.9z M54,53.3h0.8v3.5H57v0.7h-3V53.3z M61.1,57.5h-1.6v-4.2h1.6c1.3,0,2.2,0.9,2.2,2.1
			C63.4,56.6,62.5,57.5,61.1,57.5 M61.1,53.9h-0.8v2.9h0.8c0.9,0,1.5-0.6,1.5-1.4C62.6,54.5,62,53.9,61.1,53.9z M70.5,55.7v1.8h-0.8
			v-4.2h0.8V55h2v-1.7h0.7v4.2h-0.7v-1.8H70.5z M78.1,57.5c-1.3,0-2.2-1-2.2-2.2s0.9-2.2,2.2-2.2s2.2,1,2.2,2.2
			C80.3,56.6,79.4,57.5,78.1,57.5 M78.1,53.9c-0.8,0-1.4,0.7-1.4,1.5s0.6,1.5,1.4,1.5s1.4-0.7,1.4-1.5C79.6,54.5,79,53.9,78.1,53.9z
			 M84.6,55c0.9,0.2,1.4,0.5,1.4,1.2c0,0.8-0.6,1.3-1.5,1.3c-0.6,0-1.3-0.2-1.8-0.7l0.4-0.5c0.4,0.3,0.8,0.5,1.3,0.5
			s0.7-0.2,0.7-0.5s-0.2-0.5-1-0.7c-0.9-0.2-1.4-0.5-1.4-1.3c0-0.7,0.6-1.2,1.4-1.2c0.6,0,1.1,0.2,1.5,0.5l-0.4,0.6
			c-0.4-0.3-0.8-0.4-1.1-0.4c-0.4,0-0.7,0.2-0.7,0.5C83.6,54.7,83.8,54.8,84.6,55 M90.3,56.1h-0.8v1.4h-0.7v-4.2h1.7
			c1,0,1.6,0.6,1.6,1.4C91.9,55.6,91.2,56.1,90.3,56.1 M90.3,53.9h-0.9v1.5h0.9c0.6,0,0.9-0.3,0.9-0.8
			C91.2,54.2,90.8,53.9,90.3,53.9z M94.6,53.3h0.7v4.2h-0.7V53.3z M100,57.5h-0.7v-3.6h-1.4v-0.6h3.5v0.6H100V57.5z M107.5,57.5
			h-0.8l-0.4-1h-2l-0.4,1H103l1.9-4.3h0.7L107.5,57.5z M105.2,54.1l-0.7,1.7h1.5L105.2,54.1z M110,53.3h0.7v3.5h2.2v0.7H110V53.3z"
			/>
	</g>
</g>
<g>
	<g>
		<defs>
			<rect id="SVGID_3_" x="-17" y="-69.3" width="148" height="209.3"/>
		</defs>
		<clipPath id="SVGID_4_">
			<use xlink:href="#SVGID_3_"  style="overflow:visible;"/>
		</clipPath>
		<path class="st1" d="M18.5,25.9c-0.1-0.1-0.2-0.3-0.3-0.4c-0.2-0.2-0.5-0.4-1-0.4h-0.3c-0.1,0-0.2,0-0.2,0.1h-0.1
			c-0.1,0-0.2,0.1-0.4,0.1c-0.6,0.1-1.3,0.1-1.9,0.2H8.1c-1,0-2.2,0-3.5-0.3c-0.3-0.1-0.6-0.1-0.9-0.1c-0.2,0-0.4,0-0.6,0.1
			c-0.7,0.1-1.3,0.5-1.7,1.2c-0.9,1.5-0.3,4,0.3,6c0.6,1.9,2.3,3.9,4.4,3.9c0.2,0,0.4,0,0.5-0.1c1.9-0.4,2.8-2.2,4-3.5
			c1.8-2,4.2-3.1,6.3-4.6c0.1,0,0.2-0.1,0.3-0.1l0,0c0.3-0.1,0.6-0.3,0.9-0.7C18.6,27,18.7,26.4,18.5,25.9"/>
	</g>
</g>
<g>
	<g>
		<defs>
			<rect id="SVGID_5_" x="-17" y="-69.3" width="148" height="209.3"/>
		</defs>
		<clipPath id="SVGID_6_">
			<use xlink:href="#SVGID_5_"  style="overflow:visible;"/>
		</clipPath>
		<path class="st2" d="M43.6,20.2c-1.6-1.3-3.1-2-4.6-2.1h-0.9c-1.8,0.3-3.1,1.5-3.6,3.4c0,0.1-0.4,1.1-4,2.2l-3.2,0.8
			c-0.1,0-0.3,0-0.4,0.1c-0.4,0.1-0.8,0.1-1.1,0.3c-0.6,0.4-0.8,1.2-0.5,1.9c0.4,0.8,1.6,1.3,3.6,1.4h0.8c1.6,0,3.8-0.2,6.4-0.5
			c0.4-0.1,0.7-0.1,1.1-0.2c6.6-1,8.7-1.7,9.2-3.3C46.7,22.9,45.4,21.7,43.6,20.2"/>
	</g>
</g>
<g>
	<g>
		<defs>
			<rect id="SVGID_7_" x="-17" y="-69.3" width="148" height="209.3"/>
		</defs>
		<clipPath id="SVGID_8_">
			<use xlink:href="#SVGID_7_"  style="overflow:visible;"/>
		</clipPath>
		<path class="st3" d="M26.4,40.4c0.1-1.4,0.1-4-0.1-5.4c-0.3-2.2-1.4-3.7-2.4-4.9c-0.5-0.6-1.7-1.9-2.7-1.9c-0.3,0-0.5,0.1-0.7,0.3
			c-0.3,0.3-0.4,0.9-0.4,1.8c0,0.6,0.1,1.4,0.1,2v0.8c0,1.5-0.1,4.2-0.3,5.7c-0.1,0.6-0.2,1.2-0.5,1.7c-1.1,2.1-0.4,5.4,0.8,7.3
			c0.8,1.4,1.9,2.1,3.1,2.1h0.5c0.1,0,0.2,0,0.3-0.1c0.5-0.1,0.8-0.5,1.2-0.9l0,0c0.3-0.4,0.6-0.8,0.8-1.3c0.4-0.9,0.4-2.7,0.3-5.2
			L26.4,40.4"/>
	</g>
</g>
<g>
	<g>
		<defs>
			<rect id="SVGID_9_" x="-17" y="-69.3" width="148" height="209.3"/>
		</defs>
		<clipPath id="SVGID_10_">
			<use xlink:href="#SVGID_9_"  style="overflow:visible;"/>
		</clipPath>
		<path class="st4" d="M25.1,10.4c0.3-0.6,0.7-1.4,0.4-2.3c-0.3-1.2-1.9-2.3-2.7-2.7s-1.5-0.6-2.2-0.6h-0.5
			c-0.5,0.1-0.9,0.4-1.2,0.7c-0.1,0.2-0.2,0.3-0.3,0.5c-0.7,1.5-0.7,2.9-0.8,4.5V11c-0.1,1.2,0.1,5.9,0.5,8c0.6,2.8,1.4,4.3,2.7,4.6
			c0.6,0.2,1.1,0.2,1.5,0.2H23c1.5-0.3,1.8-1.7,2-3.2c0.2-1.2,0-2.4-0.1-3.5c-0.2-1.5-0.3-5.2,0-6.3L25.1,10.4"/>
	</g>
</g>
<g>
	<g>
		<defs>
			<rect id="SVGID_11_" x="-17" y="-69.3" width="148" height="209.3"/>
		</defs>
		<clipPath id="SVGID_12_">
			<use xlink:href="#SVGID_11_"  style="overflow:visible;"/>
		</clipPath>
		<path class="st5" d="M32,59.7h81"/>
	</g>
</g>
<g>
	<g>
		<defs>
			<rect id="SVGID_13_" x="-17" y="-69.3" width="148" height="209.3"/>
		</defs>
		<clipPath id="SVGID_14_">
			<use xlink:href="#SVGID_13_"  style="overflow:visible;"/>
		</clipPath>
		<path class="st6" d="M110.6,65.1h0.5v-2.2l1.4,2.2h0.4v-3.2h-0.5V64l-1.4-2.1h-0.5L110.6,65.1L110.6,65.1z M108.2,63.9l0.5-1.3
			l0.5,1.3H108.2z M107.3,65.1h0.5l0.3-0.7h1.2l0.3,0.7h0.5l-1.2-3.2h-0.5C108.4,61.9,107.3,65.1,107.3,65.1z M105.7,63.6v-1.2h0.5
			c0.4,0,0.6,0.2,0.6,0.6l0,0c0,0.4-0.2,0.6-0.6,0.6C106.2,63.6,105.7,63.6,105.7,63.6z M105.2,65.1h0.5v-1h0.5
			c0.7,0,1.2-0.4,1.2-1.1l0,0c0-0.7-0.4-1.1-1.1-1.1h-1L105.2,65.1L105.2,65.1z M102.8,63.9l0.5-1.3l0.5,1.3H102.8z M101.9,65.1h0.5
			l0.3-0.7h1.2l0.3,0.7h0.5l-1.2-3.2H103C103,61.9,101.9,65.1,101.9,65.1z M100.6,65.1c0.3,0,0.5-0.1,0.7-0.2
			c0.2-0.2,0.3-0.4,0.3-0.8v-2.2H101v2.2c0,0.4-0.2,0.5-0.4,0.5c-0.2,0-0.4-0.1-0.5-0.3l-0.3,0.4C100,65,100.2,65.1,100.6,65.1z
			 M97.6,65.8c0.4,0,0.7-0.3,0.7-0.7l0,0v-0.5h-0.6v0.6h0.2c0,0.2-0.1,0.4-0.4,0.4C97.5,65.6,97.6,65.8,97.6,65.8z M95.9,64.7
			c-0.5,0-0.9-0.5-0.9-1.1l0,0c0-0.7,0.4-1.1,0.9-1.1s0.9,0.5,0.9,1.1l0,0C96.8,64.2,96.4,64.7,95.9,64.7z M95.9,65.1
			c0.8,0,1.4-0.7,1.4-1.6l0,0c0-0.9-0.6-1.6-1.4-1.6s-1.4,0.7-1.4,1.6l0,0C94.5,64.5,95.1,65.1,95.9,65.1z M91.7,65.1h0.5v-1.3h1.2
			v1.3H94v-3.2h-0.5v1.3h-1.2v-1.3h-0.5L91.7,65.1L91.7,65.1z M90.1,65.1c0.6,0,1-0.4,1-0.9l0,0c0-0.5-0.3-0.7-0.9-0.9
			c-0.5-0.2-0.7-0.3-0.7-0.5l0,0c0-0.2,0.2-0.4,0.5-0.4s0.5,0.1,0.7,0.3l0.3-0.4c-0.3-0.3-0.6-0.4-1-0.4c-0.6,0-1,0.4-1,0.9l0,0
			c0,0.5,0.3,0.7,0.9,1c0.5,0.2,0.6,0.3,0.6,0.5l0,0c0,0.2-0.2,0.4-0.5,0.4s-0.6-0.2-0.8-0.4L89,64.7C89.3,65,89.7,65.1,90.1,65.1z
			 M87.4,65.1c0.7,0,1.2-0.4,1.2-1.3v-1.9H88v2c0,0.5-0.3,0.8-0.7,0.8s-0.7-0.3-0.7-0.8v-2h-0.5v2C86.2,64.7,86.7,65.1,87.4,65.1z
			 M84.7,65.1c0.6,0,1-0.4,1-0.9l0,0c0-0.5-0.3-0.7-0.9-0.9c-0.5-0.2-0.7-0.3-0.7-0.5l0,0c0-0.2,0.2-0.4,0.5-0.4s0.5,0.1,0.7,0.3
			l0.3-0.4c-0.3-0.3-0.6-0.4-1-0.4c-0.6,0-1,0.4-1,0.9l0,0c0,0.5,0.3,0.7,0.9,1c0.5,0.2,0.6,0.3,0.6,0.5l0,0c0,0.2-0.2,0.4-0.5,0.4
			s-0.6-0.2-0.8-0.4l-0.3,0.4C83.8,65,84.3,65.1,84.7,65.1z M82,65.1h0.5v-2.7h0.8v-0.5h-2.2v0.5H82C82,62.4,82,65.1,82,65.1z
			 M77.9,63.9l0.5-1.3l0.5,1.3H77.9z M76.9,65.1h0.5l0.3-0.7h1.2l0.3,0.7h0.5l-1.2-3.2H78C78,61.9,76.9,65.1,76.9,65.1z M75.6,65.1
			h0.5v-2.7H77v-0.5h-2.2v0.5h0.8C75.6,62.4,75.6,65.1,75.6,65.1z M73.2,64.7c-0.5,0-0.9-0.5-0.9-1.1l0,0c0-0.7,0.4-1.1,0.9-1.1
			s0.9,0.5,0.9,1.1l0,0C74,64.2,73.7,64.7,73.2,64.7z M73.2,65.1c0.8,0,1.4-0.7,1.4-1.6l0,0c0-0.9-0.6-1.6-1.4-1.6s-1.4,0.7-1.4,1.6
			l0,0C71.8,64.5,72.3,65.1,73.2,65.1z M70.1,65.1h0.5v-1.3l1.1-1.9h-0.6l-0.7,1.4l-0.7-1.4h-0.6l1.1,1.9v1.3H70.1z M67.6,64.7
			c-0.5,0-0.9-0.5-0.9-1.1l0,0c0-0.7,0.4-1.1,0.9-1.1s0.9,0.5,0.9,1.1l0,0C68.4,64.2,68.1,64.7,67.6,64.7z M67.6,65.1
			c0.8,0,1.4-0.7,1.4-1.6l0,0c0-0.9-0.6-1.6-1.4-1.6s-1.4,0.7-1.4,1.6l0,0C66.2,64.5,66.8,65.1,67.6,65.1z M64.6,65.1h0.5v-2.7H66
			v-0.5h-2.2v0.5h0.8V65.1z M60.8,64.7c-0.3,0-0.5-0.2-0.5-0.4c0,0,0,0,0-0.1l0,0c0-0.2,0.1-0.4,0.4-0.6l0.6,0.8
			C61.2,64.6,61,64.7,60.8,64.7z M60.9,63.2c-0.2-0.2-0.2-0.3-0.2-0.5l0,0c0-0.2,0.1-0.4,0.3-0.4s0.3,0.1,0.3,0.3l0,0
			C61.3,62.9,61.2,63,60.9,63.2z M62,65.2l0.4-0.3L62,64.4c0.1-0.2,0.3-0.5,0.4-0.8L62,63.4L61.7,64l-0.5-0.6
			c0.4-0.2,0.6-0.4,0.6-0.8l0,0c0-0.4-0.3-0.7-0.8-0.7s-0.8,0.4-0.8,0.8l0,0c0,0.2,0.1,0.4,0.3,0.7c-0.4,0.2-0.6,0.5-0.6,0.9l0,0
			c0,0.5,0.4,0.9,0.9,0.9c0.4,0,0.6-0.1,0.9-0.4C61.7,64.8,62,65.2,62,65.2z M55.5,65.1H56v-2.2l0.8,1.5l0.8-1.5v2.2h0.5v-3.2h-0.6
			l-0.8,1.5L56,61.9h-0.5V65.1z M53.5,64.7c-0.5,0-0.9-0.5-0.9-1.1l0,0c0-0.7,0.4-1.1,0.9-1.1s0.9,0.5,0.9,1.1l0,0
			C54.4,64.2,54,64.7,53.5,64.7z M53.5,65.1c0.8,0,1.4-0.7,1.4-1.6l0,0c0-0.9-0.6-1.6-1.4-1.6s-1.4,0.7-1.4,1.6l0,0
			C52.1,64.5,52.7,65.1,53.5,65.1z M50.8,65.1c0.4,0,0.7-0.1,1-0.4l-0.3-0.4c-0.2,0.2-0.4,0.3-0.7,0.3c-0.5,0-0.9-0.4-0.9-1.1l0,0
			c0-0.7,0.4-1.1,0.9-1.1c0.3,0,0.5,0.1,0.7,0.3l0.3-0.4c-0.3-0.2-0.6-0.4-1-0.4c-0.8,0-1.4,0.7-1.4,1.6l0,0
			C49.4,64.5,50,65.1,50.8,65.1z M47,65.1h2v-0.5h-1.5v-0.9h1.3v-0.5h-1.3v-0.9H49v-0.5h-2C47,61.8,47,65.1,47,65.1z M45.4,65.1
			c0.6,0,1-0.4,1-0.9l0,0c0-0.5-0.3-0.7-0.9-0.9c-0.5-0.2-0.7-0.3-0.7-0.5l0,0c0-0.2,0.2-0.4,0.5-0.4s0.5,0.1,0.7,0.3l0.3-0.4
			c-0.3-0.3-0.6-0.4-1-0.4c-0.6,0-1,0.4-1,0.9l0,0c0,0.5,0.3,0.7,0.9,1c0.5,0.2,0.6,0.3,0.6,0.5l0,0c0,0.2-0.2,0.4-0.5,0.4
			s-0.6-0.2-0.8-0.4l-0.3,0.4C44.5,65,45,65.1,45.4,65.1z M41.8,64.4l-0.6-1.7h-0.5l0.9,2.4c-0.1,0.2-0.2,0.3-0.3,0.3
			s-0.2,0-0.3-0.1l-0.1,0.4c0.1,0.1,0.3,0.1,0.5,0.1c0.4,0,0.5-0.2,0.7-0.7l0.8-2.4h-0.5C42.4,62.7,41.8,64.4,41.8,64.4z M39.5,64.7
			c-0.3,0-0.6-0.3-0.6-0.8l0,0c0-0.5,0.3-0.8,0.6-0.8s0.6,0.3,0.6,0.8l0,0C40,64.4,39.8,64.7,39.5,64.7z M39.6,65.1
			c0.5,0,0.9-0.4,0.9-1.2v-0.1c0-0.8-0.5-1.2-0.9-1.2c-0.3,0-0.6,0.2-0.7,0.4v-1.3h-0.5V65h0.5v-0.4C39.1,64.9,39.3,65.1,39.6,65.1z
			 M35.3,65.1h0.5l1.1-3.2h-0.6l-0.8,2.4l-0.8-2.4h-0.6C34.1,61.9,35.3,65.1,35.3,65.1z M32.8,65.1c0.3,0,0.5-0.1,0.7-0.2
			c0.2-0.2,0.3-0.4,0.3-0.8v-2.2h-0.5v2.2c0,0.4-0.2,0.5-0.4,0.5s-0.4-0.1-0.5-0.3L32,64.7C32.2,65,32.4,65.1,32.8,65.1z"/>
	</g>
</g>
<g>
	<path class="st7" d="M171.6,27.9v2.4c-0.1,0-0.1,0.1-0.1,0.2c-0.1,1.4-0.3,2.8-0.7,4.1c-2.9,10.9-14.3,17.5-25.3,14.7
		c-10.6-2.8-17.2-13.1-15.2-23.9c1.4-7.4,5.7-12.5,12.5-15.5c2.3-1,4.8-1.5,7.3-1.6h1.1c0.7,0.1,1.4,0.1,2,0.2
		c4.7,0.6,8.7,2.6,12.1,5.9c3.3,3.3,5.3,7.4,5.9,12.1C171.5,26.9,171.4,27.4,171.6,27.9z M150.8,45.3c9.1,0,16.4-7.3,16.5-16.4
		s-7.3-16.5-16.4-16.5s-16.5,7.3-16.5,16.4C134.3,37.9,141.6,45.2,150.8,45.3z M155.3,46.3C155.3,46.4,155.3,46.4,155.3,46.3
		c0.1,0.5,0.3,0.9,0.4,1.2c0.2,0.6,0.2,0.6,0.8,0.4c0.1,0,0.4,0,0.4-0.2c-0.1-0.3-0.3-0.1-0.5,0c-0.2,0-0.3,0.1-0.4-0.2
		s0-0.4,0.3-0.4c0.1,0,0.2,0,0.3-0.1c0.1,0,0.1-0.1,0.1-0.2s-0.1-0.1-0.2-0.1s-0.2,0.1-0.3,0.1c-0.2,0.1-0.3,0.1-0.4-0.1
		s0-0.3,0.2-0.3c0.1,0,0.2-0.1,0.3-0.1s0.2-0.1,0.1-0.2c0-0.1-0.1-0.1-0.2-0.1c-0.6,0.2-1.3,0.3-2,0.4c-0.1,0-0.3,0-0.2,0.2
		c0,0.2,0.1,0.2,0.3,0.1c0.2,0,0.3,0,0.3,0.2c0,0.4,0.1,0.8,0.2,1.1c0,0.1-0.1,0.4,0.2,0.3c0.3,0,0.1-0.3,0.1-0.4
		c0-0.3-0.1-0.7-0.2-1c0-0.2-0.1-0.4,0.3-0.4C155.2,46.5,155.2,46.4,155.3,46.3L155.3,46.3z M157.5,45.6c-0.2,0-0.5,0.1-0.7,0.2
		c-0.2,0-0.1,0.1-0.1,0.2c0.1,0.4,0.2,0.7,0.4,1.1c0.2,0.7,0.4,0.7,1,0.3c0.4-0.3,0.5-0.6,0.4-1.1C158.3,45.9,158,45.7,157.5,45.6
		L157.5,45.6z M147.8,46.4c-0.2,0-0.3,0-0.4,0.1c-0.5,0.3-0.6,1.3-0.2,1.7c0.4,0.5,1.2,0.3,1.4-0.2c0-0.1,0.1-0.2,0-0.2
		s-0.2-0.1-0.3,0.1c-0.1,0.2-0.3,0.3-0.5,0.3c-0.3,0-0.4-0.2-0.4-0.5c0-0.2,0-0.3,0.1-0.5s0.2-0.4,0.5-0.4c0.2,0,0.5,0.1,0.5,0.4
		c0,0.2,0.2,0.1,0.3,0.1c0.2,0,0.1-0.2,0.1-0.2C148.6,46.7,148.2,46.4,147.8,46.4L147.8,46.4z M145,47.3c0,0.5,0.2,0.8,0.7,0.9
		c0.4,0.1,0.7,0,0.9-0.4c0-0.1,0.2-0.2,0-0.3c-0.1-0.1-0.2-0.1-0.3,0.1c-0.2,0.3-0.5,0.3-0.7,0.1c-0.3-0.2-0.2-0.5-0.2-0.8
		c0.1-0.3,0.2-0.5,0.5-0.5s0.5,0.1,0.5,0.4c0,0.1,0.1,0.1,0.2,0.1c0.2,0,0.1-0.1,0.1-0.2c0-0.3-0.2-0.5-0.4-0.6
		C145.7,45.8,145,46.4,145,47.3z M151.8,47.2c0,0.3,0,0.6,0.1,0.9c0,0.6-0.1,0.5,0.6,0.5c0.5,0,1-0.4,1-0.9v-0.1c0-0.5-0.4-1-0.9-1
		h-0.1C151.8,46.5,151.8,46.5,151.8,47.2L151.8,47.2z M153.6,10.5c0-0.4-0.1-0.7-0.4-0.9s-0.8-0.1-1,0.1c-0.3,0.4-0.4,0.9-0.2,1.3
		c0.1,0.3,0.5,0.5,0.9,0.5c0.2,0,0.3-0.1,0.4,0.1c0,0.1,0.1,0,0.1,0s0.1-0.1,0-0.2s-0.1-0.2,0-0.3C153.6,10.9,153.6,10.7,153.6,10.5
		z M149.6,47.7c0.4-0.2,0.5-0.4,0.5-0.7s-0.3-0.4-0.7-0.5h-0.2c-0.1,0-0.2,0-0.2,0.2c0,0.6-0.1,1.1-0.1,1.7c0,0.1,0,0.2,0.2,0.2
		c0.1,0,0.2-0.1,0.2-0.2v-0.6c0.4,0.2,0.3,0.9,0.9,0.8C149.9,48.3,149.7,48,149.6,47.7L149.6,47.7z M144.7,47.8
		c0-0.7-0.1-1.3-0.1-1.9c0-0.1,0-0.2-0.2-0.2c-0.1,0-0.2-0.1-0.3,0c-0.4,0.5-0.8,1-1.2,1.6c0.3,0.2,0.4,0.1,0.5-0.1
		c0.1-0.3,0.3-0.2,0.5-0.1s0.4,0.1,0.3,0.4C144.3,47.7,144.4,47.9,144.7,47.8z M165.7,16.7c0-0.4-0.4-0.9-0.8-0.9
		c-0.5,0-1.1,0.5-1.1,1c0,0.4,0.4,0.9,0.9,0.9C165.2,17.7,165.7,17.2,165.7,16.7L165.7,16.7z M134.7,18.9c0.1-0.1,0.2-0.1,0.2-0.1
		h1.1c0.2,0,0.3,0,0.3-0.2c0.1-0.2-0.1-0.2-0.2-0.2c-0.3-0.2-0.7-0.5-1.1-0.7c-0.1-0.1-0.2-0.2-0.3,0s0.1,0.2,0.2,0.3
		c0.3,0.2,0.5,0.3,0.8,0.5c-0.1,0.1-0.1,0.1-0.2,0.1h-1.1c-0.2,0-0.2,0.1-0.3,0.2s0.1,0.2,0.2,0.2c0.4,0.2,0.8,0.5,1.1,0.7
		c0.1,0,0.2,0.2,0.3,0s0-0.2-0.1-0.3C135.3,19.3,135,19.1,134.7,18.9z M169.9,24.9c0-0.2-0.1-0.5-0.2-0.7c0-0.2-0.1-0.2-0.3-0.2
		c-0.4,0.1-0.9,0.2-1.3,0.3c-0.1,0-0.3,0-0.2,0.2s0.2,0.1,0.3,0.1c0.5-0.1,0.5-0.1,0.5,0.3c0,0.2,0,0.3-0.2,0.4
		c-0.1,0-0.2,0.1-0.3,0.1s-0.1,0.1-0.1,0.2c0,0,0,0.2,0.1,0.1c0.2-0.1,0.5-0.1,0.6-0.3c0.1-0.1,0.2-0.1,0.3,0
		C169.5,25.5,169.9,25.3,169.9,24.9L169.9,24.9z M150.1,10.7c-0.2-0.2-0.4-0.3-0.1-0.5c0.1-0.1,0.1-0.4,0-0.5
		c-0.2-0.2-0.4-0.2-0.6,0c-0.2,0.1-0.2,0.3-0.1,0.5s0.1,0.3,0,0.4c-0.2,0.1-0.2,0.4-0.1,0.6c0.1,0.2,0.3,0.3,0.6,0.2
		s0.5-0.3,0.8-0.1h0.1c-0.3-0.2-0.4-0.4-0.2-0.7c0-0.1,0-0.1-0.1-0.2c-0.1,0-0.2,0-0.2,0.1C150.1,10.5,150.1,10.6,150.1,10.7
		L150.1,10.7z M169.4,26.7c-0.1-0.2,0.1-0.2,0.2-0.2c0.2,0,0.3,0,0.3,0.2s0.1,0.4,0.1,0.6c0,0.1,0,0.2,0.2,0.1
		c0.1,0,0.1-0.1,0.1-0.2c0-0.3-0.1-0.7-0.1-1c0-0.1-0.1-0.2-0.2-0.1c-0.5,0.1-1,0.1-1.5,0.2c-0.1,0-0.2,0-0.2,0.1
		c0.1,0.4,0.1,0.7,0.2,1.1c0,0.1,0.1,0.1,0.1,0.1c0.1,0,0.1,0,0.1-0.2s-0.1-0.4-0.1-0.6s-0.1-0.3,0.2-0.4c0.2,0,0.4,0,0.4,0.3
		c0,0.2,0,0.3,0.1,0.5c0,0.1,0,0.2,0.1,0.1c0.1,0,0.1-0.1,0.1-0.2S169.4,26.9,169.4,26.7L169.4,26.7z M139.3,15.3
		c0-0.3-0.3-0.6-0.6-0.5c-0.2,0.1-0.4,0.2-0.6,0.2c-0.1,0-0.2,0.1-0.3-0.1c-0.1-0.1,0-0.2,0.1-0.3s0.3-0.2,0.4-0.1s0.3,0,0.3-0.1
		s-0.1-0.2-0.2-0.2c-0.3-0.1-0.7,0.1-0.8,0.5c-0.1,0.2-0.1,0.4,0.1,0.5c0.1,0.2,0.3,0.2,0.5,0.1s0.4-0.2,0.6-0.2
		c0.1,0,0.2,0,0.3,0.1s0,0.2,0,0.3c-0.1,0.2-0.3,0.3-0.5,0.2c-0.1-0.1-0.2,0-0.3,0.1c-0.1,0.2,0.1,0.2,0.2,0.2
		C138.7,16.2,139.3,15.8,139.3,15.3z M150.3,47.6L150.3,47.6V48c0,0.7,0,0.7,0.6,0.6c0.1,0,0.5,0.2,0.4-0.2c0-0.3-0.3-0.1-0.4-0.1
		c-0.2,0-0.3-0.1-0.3-0.3c0-0.3,0.1-0.4,0.4-0.4h0.2c0.1,0,0.2,0,0.2-0.2s-0.1-0.1-0.2-0.1h-0.3c-0.2,0-0.3,0-0.3-0.2
		s0.1-0.3,0.3-0.3h0.3c0.1,0,0.1-0.1,0.1-0.2s0-0.1-0.1-0.1c-0.9-0.1-1-0.1-0.9,0.8V47.6z M135.3,20.4c0-0.1-0.1-0.1-0.1-0.1
		c-0.1,0-0.1,0-0.1,0.1l-0.3,0.6c-0.1,0.2-0.2,0.2-0.4,0.1s-0.2-0.2-0.1-0.4c0-0.1,0.1-0.1,0.1-0.2s0.3-0.3,0.1-0.4
		s-0.2,0.2-0.3,0.3s-0.1,0.2-0.1,0.2c-0.1,0.2-0.1,0.2-0.3,0.1s-0.2-0.2-0.1-0.4s0.2-0.3,0.3-0.5c0-0.1,0.1-0.2,0-0.2
		c-0.1-0.1-0.2,0-0.2,0.1c-0.1,0.3-0.3,0.6-0.4,0.8s0,0.2,0.1,0.3c0.3,0.2,0.6,0.3,0.9,0.5c0.5,0.3,0.5,0.3,0.8-0.3
		C135.1,20.8,135.2,20.6,135.3,20.4L135.3,20.4z M143.2,13c0.3-0.2,0.7-0.3,1-0.5c0.1,0,0.2-0.1,0.1-0.2s-0.2-0.1-0.2-0.1l-0.6,0.3
		c-0.2,0.1-0.2-0.1-0.3-0.2c0-0.1-0.2-0.2,0-0.3s0.4-0.2,0.5-0.3c0.1,0,0.1-0.1,0.1-0.2s-0.1-0.1-0.2,0c-0.2,0.1-0.3,0.1-0.5,0.2
		s-0.3,0.1-0.4-0.1s0-0.3,0.2-0.3c0.2-0.1,0.3-0.1,0.5-0.2c0.1,0,0.2-0.1,0.1-0.2s-0.2-0.1-0.3,0c-0.3,0.1-0.6,0.3-0.8,0.4
		c-0.1,0.1-0.2,0.1-0.1,0.3c0.2,0.4,0.4,0.9,0.6,1.3C143.1,13,143.1,13,143.2,13L143.2,13z M155.1,11.8c0.2,0,0.4-0.2,0.5-0.4
		c0.1-0.4,0.2-0.7,0.3-1.1c0-0.1,0-0.2-0.1-0.2s-0.1,0.1-0.2,0.2c-0.1,0.3-0.1,0.6-0.2,0.9s-0.2,0.5-0.5,0.4s-0.4-0.2-0.3-0.6
		c0.1-0.3,0.1-0.6,0.2-0.9c0-0.1,0-0.2-0.1-0.2s-0.2,0-0.2,0.2c-0.1,0.3-0.1,0.6-0.2,1C154.1,11.5,154.4,11.8,155.1,11.8z
		 M168.5,20.7c0,0,0-0.1-0.1-0.2c-0.2-0.4-0.5-0.6-0.9-0.6c-0.5,0.1-0.9,0.5-1,0.9c0,0.4,0.4,0.9,0.8,0.9c0.1,0,0.3,0,0.2-0.2
		c0-0.1-0.1-0.2-0.2-0.2c-0.2,0-0.4-0.1-0.5-0.3s-0.1-0.5,0.1-0.6c0.1-0.2,0.3-0.2,0.5-0.3s0.5-0.1,0.6,0.1c0.2,0.1,0.2,0.4,0.1,0.6
		c-0.1,0.1,0,0.2,0.1,0.3s0.2-0.1,0.2-0.1C168.5,21,168.5,20.9,168.5,20.7L168.5,20.7z M157.4,12.6v-1.7c0-0.1,0-0.2-0.1-0.2
		s-0.2,0-0.3,0.1c-0.3,0.4-0.7,0.8-1,1.2c0,0-0.1,0.1,0,0.2s0.2,0.1,0.2,0c0.1,0,0.1-0.1,0.1-0.2c0.1-0.2,0.3-0.2,0.5-0.1
		s0.4,0.1,0.4,0.4C157.1,12.5,157.2,12.6,157.4,12.6L157.4,12.6z M133.4,24.5c-0.5,0.1-1,0.1-1.5,0.2c-0.2,0-0.2,0.1-0.2,0.2
		c0,0.2,0.1,0.2,0.1,0.3c0.4,0.3,0.8,0.5,1.3,0.8c0.1,0,0.2,0.2,0.2,0c0.1-0.1,0-0.2-0.1-0.3c-0.3-0.1-0.3-0.3-0.2-0.5
		s0.1-0.4,0.4-0.4c0.2,0,0.2-0.1,0.2-0.2C133.6,24.4,133.5,24.5,133.4,24.5z M132.5,26.7c0-0.3-0.2-0.5-0.5-0.6
		c-0.3,0-0.5,0.1-0.6,0.4c0,0.2-0.1,0.4-0.1,0.6s0,0.3,0.2,0.3c0.4,0,0.9,0.1,1.3,0.2c0.1,0,0.2,0.1,0.3-0.1c0-0.2-0.1-0.2-0.2-0.2
		C132.4,27.3,132.4,27.3,132.5,26.7C132.5,26.8,132.5,26.7,132.5,26.7z M139.5,13c-0.1,0.1-0.3,0.1-0.2,0.3c0.2,0.5,0.3,1.1,0.5,1.6
		c0.1,0.2,0.1,0.1,0.2,0s0.1-0.2,0-0.3c-0.1-0.2,0-0.3,0.1-0.4c0.2-0.2,0.4-0.3,0.7,0c0.1,0.1,0.2,0,0.3-0.1s0-0.1-0.1-0.2
		c-0.4-0.3-0.9-0.6-1.3-0.9C139.6,13.1,139.6,13.1,139.5,13z M168.2,22.3h-0.7c-0.1,0-0.2-0.1-0.3,0.1c0,0.2,0.1,0.2,0.2,0.2
		c0.3,0,0.3,0.1,0.4,0.3s0.1,0.4-0.2,0.6c-0.1,0.1-0.1,0.2-0.1,0.3c0.1,0.2,0.2,0,0.2,0l1.2-0.9c0.1-0.1,0.2-0.2,0.1-0.3
		c0-0.1-0.1-0.2-0.3-0.2C168.7,22.3,168.4,22.3,168.2,22.3L168.2,22.3z M165.2,18.7c0.5-0.5,0.8-0.4,1,0.2c0,0.1,0.1,0.1,0.2,0
		c0.1,0,0.1-0.1,0-0.2s-0.2-0.2-0.2-0.3c-0.1-0.1-0.2-0.2,0-0.4c0.2-0.1,0.3,0,0.4,0.1s0.2,0.3,0.3,0.4c0,0.1,0.1,0.1,0.2,0.1
		c0.1-0.1,0.1-0.1,0-0.2c-0.2-0.3-0.4-0.5-0.5-0.8c0-0.1-0.1-0.1-0.2-0.1c-0.4,0.3-0.9,0.6-1.3,0.9c-0.1,0-0.1,0.1,0,0.2
		C165.1,18.6,165.1,18.7,165.2,18.7z M141.7,11.7c-0.3,0.2-0.6,0.4-1,0.6c-0.1,0,0,0.1,0,0.2c0.2,0.4,0.5,0.8,0.7,1.3
		c0.1,0.1,0.1,0.2,0.2,0.1s0.1-0.2,0-0.2c-0.1-0.2-0.3-0.4-0.2-0.5c0-0.2,0.3-0.2,0.5-0.3h0.1c0.1,0,0.1-0.1,0.1-0.2
		c-0.1-0.1-0.1-0.1-0.2,0s-0.2,0.1-0.4,0.2s-0.3,0.1-0.4-0.1s-0.1-0.3,0.1-0.3c0.2-0.1,0.3-0.2,0.5-0.3c0.1,0,0.1-0.1,0.1-0.2
		C141.8,11.8,141.8,11.7,141.7,11.7L141.7,11.7z M163.9,14.6c-0.4-0.4-0.7,0.1-1,0c-0.1-0.3,0.4-0.7-0.1-1.1c0,0.1-0.1,0.2-0.1,0.3
		c-0.1,0.5-0.1,1-0.6,1.4c-0.1,0.1,0,0.1,0,0.2c0.1,0.1,0.2,0,0.2,0c0.3-0.4,0.7-0.5,1.1-0.7C163.6,14.7,163.8,14.6,163.9,14.6
		L163.9,14.6z M146,10.1c0.4,0.5,1,0.8,1,1.5c0,0.1,0.1,0.1,0.2,0.1s0.1-0.1,0.1-0.2c-0.2-0.4-0.1-0.8,0.1-1.2
		c0.1-0.2,0.1-0.4,0.2-0.6c-0.6,0.1-0.4,0.7-0.6,0.9C146.6,10.5,146.6,9.9,146,10.1z M133.9,23.5c0-0.2-0.1-0.2-0.1-0.2l-0.9-0.3
		c-0.3-0.1-0.5-0.2-0.3-0.5c0.1-0.1,0.1-0.2-0.1-0.2c-0.1,0-0.1,0-0.2,0.1l-0.3,0.9c0,0.1-0.2,0.2,0,0.3s0.2-0.1,0.2-0.2
		c0.1-0.2,0.1-0.3,0.4-0.2s0.7,0.2,1,0.3C133.8,23.7,133.9,23.7,133.9,23.5L133.9,23.5z M144.7,10.7c0.1,0,0.1,0.1,0.2,0.2
		c0.1,0.4,0.2,0.7,0.3,1.1c0,0.1,0.1,0.2,0.2,0.1c0.1,0,0.1-0.1,0.1-0.2l-0.3-0.9c-0.1-0.3-0.2-0.5,0.3-0.6c0.1,0,0.1-0.1,0.1-0.2
		s-0.1-0.1-0.2-0.1c-0.4,0.1-0.7,0.2-1.1,0.4c-0.1,0-0.1,0.1-0.1,0.2s0.1,0.1,0.2,0.1S144.6,10.8,144.7,10.7z M161.4,13
		c0,0.1-0.1,0.1-0.1,0.2l-0.6,0.9c-0.1,0.1-0.2,0.2,0,0.3s0.2,0,0.3-0.1c0.2-0.3,0.3-0.5,0.5-0.8c0.1-0.3,0.3-0.4,0.6-0.1
		c0.1,0.1,0.1,0.1,0.2,0s0-0.2-0.1-0.2l-0.9-0.6c-0.1,0-0.2-0.1-0.3,0s0,0.2,0.1,0.2S161.3,12.8,161.4,13z M141.8,45.4
		c0.4,0.2,0.4,0.5,0.3,0.9c0.3-0.4,0.6-0.3,0.9,0c-0.1-0.4-0.2-0.7,0.3-0.9c-0.5,0.1-0.6-0.2-0.7-0.6
		C142.4,45.3,142.3,45.5,141.8,45.4z M137.3,17.6c-0.1-0.1-0.1-0.1-0.2-0.1c-0.2-0.2-0.5-0.4-0.7-0.6s-0.3-0.3-0.1-0.6
		c0.1-0.1,0.1-0.1,0-0.2s-0.2,0-0.2,0.1c-0.2,0.2-0.4,0.5-0.6,0.7c-0.1,0.1-0.3,0.2-0.1,0.3s0.2-0.1,0.3-0.2c0.1-0.2,0.2-0.2,0.4,0
		c0.3,0.3,0.6,0.5,0.9,0.7c0,0,0.1,0.1,0.2,0C137.2,17.7,137.2,17.6,137.3,17.6L137.3,17.6z M159.9,46.4c-0.1-0.3-0.1-0.4-0.1-0.6
		s0.3-0.2,0.3-0.4c-0.5,0-0.5,0-0.7-0.6c-0.1,0.4-0.2,0.7-0.7,0.6c0.5,0.2,0.4,0.5,0.3,0.9C159.3,46,159.6,46,159.9,46.4z
		 M158.6,11.1l-0.1,0.1c-0.2,0.5-0.4,0.9-0.6,1.4c0,0.1,0,0.1,0.1,0.2c0.3,0.1,0.6,0.3,0.9,0.4c0.1,0,0.1,0,0.2-0.1
		c0-0.1,0-0.1-0.1-0.2s-0.3-0.1-0.4-0.2c-0.2-0.1-0.3-0.2-0.2-0.4c0.2-0.3,0.3-0.7,0.4-1C158.9,11.2,158.8,11.2,158.6,11.1
		L158.6,11.1z M154.1,48.3l-0.3-1.8c0-0.1-0.1-0.1-0.2-0.1s-0.1,0.1-0.1,0.2l0.3,1.7c0,0.1,0.1,0.2,0.2,0.1
		C154,48.5,154.1,48.4,154.1,48.3z M132.9,21.5c-0.1,0-0.1,0-0.2,0.1c0,0.1-0.1,0.1,0.1,0.2l1.5,0.6c0.1,0,0.1,0,0.2-0.1
		c0-0.1,0-0.1-0.1-0.2C133.9,21.9,133.4,21.7,132.9,21.5z M159.6,13.7C159.6,13.7,159.7,13.6,159.6,13.7l0.9-1.5
		c0.1-0.1,0-0.1-0.1-0.2h-0.2c-0.3,0.5-0.5,0.9-0.8,1.4C159.4,13.6,159.5,13.6,159.6,13.7L159.6,13.7z"/>
	<path class="st8" d="M150.2,8.2c-2.5,0.1-5,0.5-7.3,1.6c-6.8,3-11.1,8.1-12.5,15.5c-2,10.8,4.6,21.1,15.2,23.9
		c10.9,2.9,22.4-3.7,25.3-14.7c0.4-1.4,0.6-2.7,0.7-4.1c0-0.1,0-0.1,0.1-0.2v19.5c0,0.2,0,0.3-0.3,0.3h-41.2c-0.2,0-0.3,0-0.3-0.3
		V8.4c0-0.2,0.1-0.3,0.3-0.3L150.2,8.2z M171.6,27.9c-0.1-0.5-0.1-1-0.2-1.5c-0.6-4.7-2.6-8.7-5.9-12.1c-3.3-3.3-7.4-5.3-12.1-5.9
		c-0.7-0.1-1.3-0.1-2-0.2V8.1h19.9c0.2,0,0.3,0,0.3,0.3V27.9z"/>
	<g>
		<path class="st9" d="M151.4,8.2c-0.4,0.1-0.8,0.1-1.1,0.1V8.2H151.4z M150.8,45.3c-9.1,0-16.5-7.4-16.4-16.6
			c0-9.1,7.4-16.4,16.5-16.4s16.4,7.4,16.4,16.5C167.2,38,159.8,45.3,150.8,45.3z M143.9,35.7c-0.7,0.8-1.5,1.7-2.2,2.6h18.2
			c-0.7-0.9-1.4-1.7-2.1-2.5c0.1,0,0.2-0.1,0.3-0.1c0.6-0.5,1.1-1,1.6-1.5c1.6-1.9,2.5-4.2,2.6-6.7c0.3-3.6-0.8-6.8-3.6-9.3
			c-2.1-1.9-4.5-2.9-7.3-3c-2.7-0.2-5.1,0.4-7.4,1.9c-5,3.3-6.4,10.9-2.7,15.9C142.1,33.9,142.9,34.8,143.9,35.7L143.9,35.7z
			 M153.8,40.7c0.3-0.2,0.5-0.6,0.3-0.9c-0.1-0.4-0.5-0.5-0.9-0.5h-1.4c-0.2,0-0.3,0-0.3,0.2v2.7c0,0.2,0.1,0.2,0.3,0.2h1.4
			c0.5,0,0.9-0.2,1-0.7C154.4,41.4,154.3,41.1,153.8,40.7L153.8,40.7z M143.6,40.5L143.6,40.5l0.3,0.3l0.9,1.5
			c0.2,0.3,0.4,0.1,0.6,0.1s0.1-0.2,0.1-0.3v-2.6c0-0.1,0.1-0.2-0.1-0.3c-0.3-0.1-0.5,0-0.5,0.3v1.6c-0.1-0.1-0.2-0.1-0.2-0.2
			c-0.3-0.5-0.7-1.1-1-1.6c-0.2-0.3-0.4-0.2-0.6-0.2s-0.1,0.2-0.1,0.4V42c0,0.2,0.1,0.3,0.3,0.3s0.3,0,0.3-0.3V40.5z M158.5,40.9
			v-1.3c0-0.2-0.1-0.3-0.3-0.3s-0.4,0-0.4,0.3c0,1,0,1-1,0.9c-0.2,0-0.2-0.1-0.2-0.2v-0.8c0-0.3-0.2-0.2-0.4-0.2
			c-0.1,0-0.3,0-0.3,0.2v2.8c0,0.3,0.2,0.2,0.3,0.2s0.4,0.1,0.3-0.2v-0.9c0-0.2,0-0.2,0.2-0.2h0.8c0.2,0,0.2,0.1,0.2,0.3v0.9
			c0,0.3,0.2,0.2,0.3,0.2c0.2,0,0.3,0.1,0.3-0.2C158.5,41.8,158.5,41.3,158.5,40.9L158.5,40.9z M147,42.5h0.5c0.2,0,0.2-0.1,0.3-0.2
			c0.2-0.5,0.2-0.5,0.8-0.5h0.3c0.3,0,0.4,0,0.5,0.3c0.1,0.4,0.3,0.4,0.6,0.4c0.2,0,0.2,0,0.1-0.2c-0.4-0.9-0.8-1.9-1.1-2.8
			c-0.1-0.2-0.3-0.2-0.4-0.2s-0.3-0.1-0.4,0.2C147.8,40.4,147.4,41.4,147,42.5L147,42.5z M155.3,46.3c-0.1,0.1-0.1,0.2-0.2,0.2
			c-0.3,0-0.3,0.2-0.3,0.4c0.1,0.3,0.1,0.7,0.2,1c0,0.1,0.2,0.4-0.1,0.4s-0.2-0.2-0.2-0.3c-0.1-0.4-0.1-0.8-0.2-1.1
			c0-0.2-0.1-0.3-0.3-0.2c-0.1,0-0.2,0-0.3-0.1c0-0.2,0.1-0.2,0.2-0.2c0.7-0.1,1.3-0.2,2-0.4c0.1,0,0.2,0,0.2,0.1s0,0.2-0.1,0.2
			s-0.2,0.1-0.3,0.1c-0.2,0-0.3,0.1-0.2,0.3s0.2,0.2,0.4,0.1c0.1,0,0.2-0.1,0.3-0.1s0.2,0,0.2,0.1s0,0.2-0.1,0.2s-0.2,0.1-0.3,0.1
			c-0.3,0-0.3,0.2-0.3,0.4c0.1,0.3,0.2,0.2,0.4,0.2c0.1,0,0.4-0.3,0.5,0s-0.2,0.2-0.4,0.2c-0.6,0.2-0.6,0.2-0.8-0.4
			C155.5,47.2,155.4,46.8,155.3,46.3C155.3,46.4,155.3,46.4,155.3,46.3L155.3,46.3z M157.5,45.6c0.5,0,0.8,0.3,1,0.8
			c0.1,0.5,0,0.9-0.4,1.1c-0.6,0.4-0.8,0.4-1-0.3c-0.1-0.4-0.2-0.7-0.4-1.1c0-0.1-0.1-0.2,0.1-0.2C157,45.7,157.2,45.6,157.5,45.6
			L157.5,45.6z M157.5,46c-0.1,0.1-0.5-0.1-0.4,0.3l0.3,1.1c0,0.1,0.1,0.1,0.2,0.1c0.3-0.1,0.6-0.4,0.6-0.7
			C158.2,46.3,157.9,46,157.5,46L157.5,46z M147.8,46.4c0.4,0,0.8,0.2,0.9,0.6c0,0.1,0.1,0.2-0.1,0.2c-0.1,0-0.2,0-0.3-0.1
			c-0.1-0.3-0.3-0.4-0.5-0.4c-0.3,0-0.4,0.2-0.5,0.4s-0.1,0.3-0.1,0.5c0,0.3,0.2,0.4,0.4,0.5c0.3,0,0.5-0.1,0.5-0.3
			c0.1-0.2,0.2-0.1,0.3-0.1c0.2,0.1,0.1,0.2,0,0.2c-0.2,0.6-1,0.7-1.4,0.2c-0.4-0.4-0.3-1.4,0.2-1.7
			C147.5,46.5,147.6,46.4,147.8,46.4L147.8,46.4z"/>
		<path class="st9" d="M145,47.3c0-0.9,0.7-1.5,1.5-1.1c0.2,0.1,0.4,0.3,0.4,0.6c0,0.1,0,0.2-0.1,0.2s-0.2,0-0.2-0.1
			c0-0.3-0.3-0.4-0.5-0.4c-0.3,0-0.5,0.2-0.5,0.4c0,0,0,0,0,0.1c-0.1,0.3-0.1,0.6,0.2,0.8c0.2,0.2,0.5,0.2,0.7-0.1
			c0.1-0.2,0.2-0.1,0.3-0.1c0.2,0.1,0,0.2,0,0.3c-0.2,0.3-0.5,0.5-0.9,0.4C145.2,48,145,47.7,145,47.3z M151.8,47.2
			c0-0.6,0-0.6,0.6-0.6c0.5,0,1,0.4,1,0.9v0.1c0,0.6-0.3,1-1,1c-0.6,0-0.5,0.1-0.6-0.5V47.2z M152.1,47.5c0,0.3,0,0.5,0.1,0.7
			c0,0.1,0,0.2,0.1,0.2c0.4,0,0.7-0.2,0.7-0.6c0.1-0.5-0.1-0.8-0.6-0.9c-0.4-0.1-0.4,0-0.4,0.3C152.1,47.3,152.1,47.4,152.1,47.5
			L152.1,47.5z M153.6,10.5c0,0.2,0,0.4-0.2,0.6c-0.1,0.1-0.1,0.2,0,0.3s0,0.1,0,0.2c0,0-0.1,0.1-0.1,0c-0.1-0.2-0.3-0.1-0.4-0.1
			c-0.4,0-0.7-0.1-0.9-0.5s-0.1-0.9,0.2-1.3c0.3-0.2,0.7-0.3,1-0.1S153.6,10.1,153.6,10.5z M152.2,10.5c0,0.4,0.2,0.6,0.5,0.7
			c0.1,0,0.3,0,0.1-0.2c-0.1-0.1,0-0.1,0.1-0.2h0.1c0.1,0.2,0.2,0.1,0.2,0c0.1-0.2,0.1-0.4,0.1-0.7c-0.1-0.2-0.2-0.3-0.4-0.4
			c-0.2,0-0.4,0-0.5,0.2C152.2,10.2,152.2,10.4,152.2,10.5L152.2,10.5z M149.6,47.7c0.2,0.3,0.4,0.6,0.5,0.9
			c-0.6,0.1-0.5-0.6-0.9-0.8v0.6c0,0.1,0,0.2-0.2,0.2c-0.1,0-0.2-0.1-0.2-0.2c0-0.6,0.1-1.1,0.1-1.7c0-0.2,0.1-0.2,0.2-0.2h0.2
			c0.4,0,0.6,0.2,0.7,0.5S150,47.5,149.6,47.7L149.6,47.7z M149.4,46.9c-0.1,0-0.2,0.1-0.2,0.2s-0.1,0.3,0.1,0.3s0.4,0,0.4-0.2
			S149.6,46.9,149.4,46.9z M144.7,47.8c-0.3,0-0.4-0.2-0.4-0.4c0-0.3-0.1-0.3-0.3-0.4s-0.4-0.2-0.5,0.1c-0.1,0.2-0.3,0.3-0.5,0.1
			l1.2-1.6c0.1-0.1,0.2-0.1,0.3,0c0.1,0,0.2,0.1,0.2,0.2C144.6,46.5,144.7,47.2,144.7,47.8z M144.3,46.2c-0.1,0.1-0.3,0.2-0.3,0.4
			l0.3,0.1C144.4,46.6,144.3,46.4,144.3,46.2z M165.7,16.7c0,0.5-0.6,1-1.1,1c-0.4,0-0.9-0.5-0.9-0.9c0-0.5,0.6-1,1.1-1
			S165.8,16.3,165.7,16.7z M165.4,16.6c0-0.3-0.2-0.5-0.4-0.5c0,0,0,0-0.1,0c-0.4,0-0.8,0.4-0.8,0.7s0.3,0.6,0.6,0.5
			C165,17.4,165.4,17,165.4,16.6z M134.7,18.9l0.8,0.5c0.1,0.1,0.3,0.1,0.1,0.3c-0.1,0.2-0.2,0-0.3,0c-0.4-0.2-0.8-0.5-1.1-0.7
			c-0.1,0-0.2-0.1-0.2-0.2c0.1-0.1,0.1-0.2,0.3-0.2h1.1c0.1,0,0.1,0,0.2-0.1c-0.3-0.2-0.6-0.3-0.8-0.5c-0.1-0.1-0.3-0.1-0.2-0.3
			s0.2,0,0.3,0c0.4,0.2,0.7,0.4,1.1,0.7c0.1,0.1,0.2,0.1,0.2,0.2c-0.1,0.1-0.2,0.2-0.3,0.2h-1.1C134.9,18.9,134.8,18.9,134.7,18.9z
			 M169.9,24.9c0,0.4-0.3,0.6-0.7,0.5c-0.1-0.1-0.2,0-0.3,0l-0.6,0.3c-0.1,0-0.1-0.1-0.1-0.1c0-0.1,0-0.2,0.1-0.2s0.2-0.1,0.3-0.1
			c0.2-0.1,0.3-0.2,0.2-0.4c-0.1-0.4-0.1-0.4-0.5-0.3c-0.1,0-0.3,0.2-0.3-0.1c-0.1-0.2,0.1-0.2,0.2-0.2l1.3-0.3c0.2,0,0.2,0,0.3,0.2
			C169.8,24.4,169.8,24.7,169.9,24.9z M169.6,24.8c-0.1-0.1,0.1-0.4-0.2-0.5c-0.1,0-0.4-0.1-0.4,0.2c0,0.2,0,0.6,0.4,0.6
			C169.5,25.1,169.6,25,169.6,24.8z"/>
		<path class="st9" d="M150.1,10.7c0-0.1,0-0.1,0.1-0.2c0-0.1,0.1-0.1,0.2-0.1s0.1,0.1,0.1,0.2c-0.1,0.3,0,0.5,0.2,0.7
			c-0.1,0-0.1,0.1-0.1,0c-0.3-0.2-0.6,0-0.8,0.1s-0.4,0-0.6-0.2c-0.1-0.2-0.1-0.5,0.1-0.6s0.1-0.2,0-0.4s-0.1-0.4,0.1-0.5
			s0.4-0.1,0.6,0c0.2,0.2,0.2,0.4,0,0.5C149.7,10.4,149.9,10.5,150.1,10.7L150.1,10.7z M149.9,10.9c-0.1-0.1-0.2-0.3-0.4-0.4
			c-0.1,0-0.2,0.2-0.2,0.3c0,0.2,0.1,0.3,0.3,0.3C149.7,11.1,149.8,11.1,149.9,10.9L149.9,10.9z M149.7,10c0-0.1,0-0.2-0.1-0.2
			s-0.2,0-0.2,0.2c0,0.1,0,0.2,0.2,0.3C149.7,10.2,149.7,10,149.7,10z M169.4,26.7c0,0.2,0,0.4,0.1,0.6c0,0.1,0,0.2-0.1,0.2
			s-0.1-0.1-0.1-0.1c0-0.2-0.1-0.3-0.1-0.5c0-0.3-0.1-0.3-0.4-0.3s-0.2,0.2-0.2,0.4s0.1,0.4,0.1,0.6c0,0.1,0,0.1-0.1,0.2
			c-0.1,0-0.1,0-0.1-0.1c-0.1-0.4-0.1-0.7-0.2-1.1c0-0.1,0.1-0.1,0.2-0.1c0.5-0.1,1-0.1,1.5-0.2c0.1,0,0.2,0,0.2,0.1
			c0,0.3,0.1,0.7,0.1,1c0,0.1,0,0.2-0.1,0.2s-0.2-0.1-0.2-0.1c0-0.2-0.1-0.4-0.1-0.6s-0.1-0.2-0.3-0.2
			C169.5,26.4,169.4,26.5,169.4,26.7L169.4,26.7z M139.3,15.3c0,0.5-0.6,0.9-1,0.7c-0.1,0-0.2-0.1-0.2-0.2c0.1-0.1,0.1-0.1,0.3-0.1
			c0.2,0.1,0.4,0,0.5-0.2c0.1-0.1,0.1-0.2,0-0.3s-0.2-0.1-0.3-0.1c-0.2,0.1-0.4,0.2-0.6,0.2c-0.2,0.1-0.4,0-0.5-0.1
			c-0.1-0.2-0.2-0.3-0.1-0.5c0.1-0.3,0.6-0.6,0.8-0.5c0.1,0,0.3,0.1,0.2,0.2c0,0.1-0.2,0.2-0.3,0.1c-0.2-0.1-0.3,0-0.4,0.1
			s-0.2,0.2-0.1,0.3s0.2,0.1,0.3,0.1c0.2-0.1,0.4-0.2,0.6-0.2C139,14.7,139.3,15,139.3,15.3z M150.3,47.6v-0.2
			c0-0.9,0.1-0.9,0.9-0.8c0.1,0,0.1,0,0.1,0.1s0,0.2-0.1,0.2h-0.3c-0.2,0-0.3,0-0.3,0.3s0.1,0.2,0.3,0.2h0.3c0.1,0,0.2,0,0.2,0.1
			s-0.1,0.2-0.2,0.2H151c-0.3,0-0.4,0.1-0.4,0.4s0.1,0.3,0.3,0.3c0.1,0,0.4-0.2,0.4,0.1s-0.3,0.2-0.4,0.2c-0.6,0-0.6,0-0.6-0.6
			C150.4,47.9,150.4,47.7,150.3,47.6L150.3,47.6z M135.3,20.4L135,21c-0.3,0.5-0.3,0.5-0.8,0.3c-0.3-0.2-0.6-0.3-0.9-0.5
			c-0.1-0.1-0.2-0.1-0.1-0.3c0.2-0.3,0.3-0.6,0.4-0.8c0-0.1,0.1-0.2,0.2-0.1s0.1,0.1,0,0.2c-0.1,0.2-0.2,0.3-0.3,0.5
			s-0.1,0.3,0.1,0.4s0.3,0,0.3-0.1s0.1-0.2,0.1-0.2c0.1-0.1,0.1-0.4,0.3-0.3s-0.1,0.3-0.1,0.4s-0.1,0.1-0.1,0.2
			c-0.1,0.2-0.1,0.3,0.1,0.4s0.3,0.1,0.4-0.1l0.3-0.6l0.1-0.1C135.2,20.3,135.3,20.3,135.3,20.4L135.3,20.4z M143.2,13
			c-0.1,0-0.1-0.1-0.1-0.1l-0.6-1.3c-0.1-0.1,0-0.2,0.1-0.3c0.3-0.1,0.6-0.2,0.8-0.4c0.1,0,0.2-0.1,0.3,0c0.1,0.2,0,0.2-0.1,0.2
			c-0.2,0.1-0.3,0.2-0.5,0.2c-0.2,0.1-0.3,0.1-0.2,0.3s0.2,0.2,0.4,0.1c0.1-0.1,0.3-0.1,0.5-0.2c0.1,0,0.1-0.1,0.2,0
			c0,0.1,0,0.1-0.1,0.2c-0.2,0.1-0.4,0.2-0.5,0.3c-0.2,0.1-0.1,0.2,0,0.3c0,0.1,0.1,0.3,0.3,0.2l0.6-0.3c0.1,0,0.2-0.1,0.2,0.1
			c0.1,0.1,0,0.2-0.1,0.2L143.2,13L143.2,13z M155.1,11.8c-0.7,0-1-0.3-0.9-0.9c0.1-0.3,0.1-0.6,0.2-1c0-0.1,0-0.2,0.2-0.2
			c0.1,0,0.1,0.1,0.1,0.2c-0.1,0.3-0.1,0.6-0.2,0.9c-0.1,0.4,0,0.6,0.3,0.6c0.3,0.1,0.4-0.1,0.5-0.4s0.1-0.6,0.2-0.9
			c0-0.1,0-0.2,0.2-0.2c0.1,0,0.2,0.1,0.1,0.2l-0.3,1.1C155.5,11.7,155.3,11.8,155.1,11.8L155.1,11.8z M168.5,20.7
			c0,0.2,0,0.4-0.1,0.5s-0.1,0.2-0.2,0.1s-0.1-0.2-0.1-0.3c0.2-0.2,0.1-0.4-0.1-0.6c-0.1-0.2-0.4-0.2-0.6-0.1
			c-0.2,0.1-0.4,0.2-0.5,0.3c-0.1,0.2-0.2,0.4-0.1,0.6s0.2,0.3,0.5,0.3c0.2,0,0.2,0,0.2,0.2s-0.1,0.1-0.2,0.2
			c-0.4,0-0.8-0.4-0.8-0.9c0-0.4,0.4-0.8,1-0.9c0.4-0.1,0.8,0.1,0.9,0.6C168.4,20.6,168.5,20.7,168.5,20.7L168.5,20.7z M157.4,12.6
			c-0.2,0-0.3-0.1-0.3-0.3c0.1-0.3-0.2-0.3-0.4-0.4s-0.3-0.1-0.5,0.1c0,0.1-0.1,0.1-0.1,0.2c-0.1,0.1-0.2,0-0.2,0
			c-0.1-0.1,0-0.1,0-0.2c0.3-0.4,0.7-0.8,1-1.2c0.1-0.1,0.2-0.1,0.3-0.1s0.1,0.1,0.1,0.2C157.4,11.4,157.4,12,157.4,12.6L157.4,12.6
			z M156.7,11.5c0.5,0.2,0.5,0.2,0.5-0.2c0-0.1,0-0.2-0.1-0.3C156.9,11.2,156.8,11.3,156.7,11.5z M133.4,24.5c0.1,0,0.2-0.1,0.2,0.1
			c0,0.1-0.1,0.2-0.2,0.2c-0.3,0-0.4,0.2-0.4,0.4c-0.1,0.2,0,0.4,0.2,0.5c0.1,0.1,0.2,0.2,0.1,0.3c-0.1,0.2-0.2,0-0.2,0
			c-0.4-0.3-0.8-0.5-1.3-0.8c-0.1-0.1-0.2-0.1-0.1-0.3c0-0.1,0.1-0.2,0.2-0.2C132.4,24.6,132.9,24.5,133.4,24.5z M132.1,24.9
			C132.1,24.9,132.1,25,132.1,24.9c0.2,0.2,0.4,0.3,0.6,0.4c0.1-0.5,0.1-0.5-0.3-0.5C132.3,24.9,132.2,24.9,132.1,24.9z"/>
		<path class="st9" d="M132.5,26.7C132.5,26.7,132.5,26.8,132.5,26.7c0,0.5-0.1,0.5,0.4,0.6c0.1,0,0.3,0,0.2,0.2
			c0,0.2-0.2,0.1-0.3,0.1c-0.4-0.1-0.9-0.1-1.3-0.2c-0.2,0-0.3-0.1-0.2-0.3c0-0.2,0.1-0.4,0.1-0.6c0.1-0.3,0.3-0.4,0.6-0.4
			C132.3,26.2,132.5,26.4,132.5,26.7z M131.9,27.2c0.4,0.1,0.2-0.2,0.3-0.4s0-0.3-0.3-0.3s-0.3,0.2-0.3,0.4
			C131.6,27.2,131.8,27.2,131.9,27.2z M139.5,13l0.1,0.1l1.3,0.9c0.1,0,0.2,0.1,0.1,0.2s-0.2,0.2-0.3,0.1c-0.3-0.3-0.5-0.1-0.7,0
			s-0.2,0.2-0.1,0.4c0,0.1,0.1,0.2,0,0.3s-0.2,0.1-0.2,0c-0.2-0.5-0.3-1.1-0.5-1.6C139.2,13.2,139.4,13.1,139.5,13L139.5,13z
			 M139.6,13.4c0,0.2,0.1,0.4,0.1,0.5c0,0.2,0.1,0.2,0.2,0.1c0.2-0.1,0.3-0.2,0-0.4C139.9,13.6,139.8,13.5,139.6,13.4z M168.2,22.3
			h0.8c0.1,0,0.2,0,0.3,0.2c0.1,0.1,0,0.2-0.1,0.3l-1.2,0.9c-0.1,0-0.1,0.2-0.2,0c-0.1-0.1-0.1-0.2,0.1-0.3c0.3-0.1,0.2-0.3,0.2-0.6
			c-0.1-0.2-0.2-0.4-0.4-0.3c-0.1,0-0.3,0-0.2-0.2c0-0.2,0.2-0.1,0.3-0.1C167.7,22.3,167.9,22.3,168.2,22.3L168.2,22.3z M168.1,22.6
			c0,0.2,0.1,0.3,0.2,0.5c0.2-0.2,0.4-0.3,0.6-0.5H168.1z M165.2,18.7c-0.1,0-0.1-0.1-0.1-0.1c-0.1-0.1,0-0.1,0-0.2l1.3-0.9
			c0.1-0.1,0.1,0,0.2,0.1c0.2,0.3,0.4,0.5,0.5,0.8c0.1,0.1,0.1,0.1,0,0.2s-0.1,0-0.2-0.1s-0.2-0.3-0.3-0.4c-0.1-0.2-0.2-0.2-0.4-0.1
			c-0.2,0.2-0.1,0.3,0,0.4s0.2,0.2,0.2,0.3c0.1,0.1,0,0.1,0,0.2c-0.1,0-0.1,0.1-0.2,0C166,18.3,165.7,18.2,165.2,18.7z M141.7,11.7
			c0.1,0,0.1,0.1,0.2,0.1c0,0.1,0,0.1-0.1,0.2c-0.2,0.1-0.3,0.2-0.5,0.3s-0.2,0.2-0.1,0.3c0.1,0.2,0.2,0.2,0.4,0.1
			c0.1-0.1,0.2-0.1,0.4-0.2c0.1-0.1,0.2-0.1,0.2,0c0.1,0.1,0,0.1-0.1,0.2H142c-0.2,0.1-0.4,0.1-0.5,0.3c0,0.1,0.2,0.3,0.2,0.5
			c0.1,0.1,0.1,0.2,0,0.2c-0.1,0.1-0.2,0-0.2-0.1c-0.2-0.4-0.5-0.8-0.7-1.3c0-0.1-0.1-0.1,0-0.2C141,12.1,141.4,11.9,141.7,11.7
			L141.7,11.7z M163.9,14.6c-0.2,0.1-0.3,0.1-0.4,0.2c-0.4,0.1-0.9,0.2-1.1,0.7c0,0.1-0.1,0.1-0.2,0s-0.1-0.1,0-0.2
			c0.5-0.4,0.5-0.9,0.6-1.4c0-0.1,0-0.2,0.1-0.3c0.5,0.3,0,0.7,0.1,1.1C163.2,14.7,163.5,14.1,163.9,14.6L163.9,14.6z M146,10.1
			c0.6-0.2,0.6,0.4,1,0.5c0.2-0.3,0-0.8,0.6-0.9c-0.1,0.2-0.1,0.4-0.2,0.6c-0.1,0.4-0.2,0.8-0.1,1.2c0,0.1,0.1,0.2-0.1,0.2
			c-0.1,0-0.2,0-0.2-0.1C147,10.9,146.4,10.6,146,10.1z M133.9,23.5c0,0.1-0.1,0.2-0.2,0.1l-1-0.3c-0.2-0.1-0.3,0-0.4,0.2
			c0,0.1,0,0.3-0.2,0.2s-0.1-0.2,0-0.3l0.3-0.9c0-0.1,0-0.2,0.2-0.1c0.1,0,0.1,0.1,0.1,0.2c-0.2,0.3,0,0.4,0.3,0.5L133.9,23.5
			C133.9,23.4,134,23.4,133.9,23.5L133.9,23.5z"/>
		<path class="st9" d="M144.7,10.7c-0.1,0-0.2,0.1-0.3,0.1s-0.2,0-0.2-0.1s0-0.1,0.1-0.2c0.4-0.1,0.7-0.2,1.1-0.4
			c0.1,0,0.1,0,0.2,0.1c0,0.1,0,0.2-0.1,0.2c-0.4,0-0.4,0.3-0.3,0.6l0.3,0.9c0,0.1,0,0.2-0.1,0.2c-0.1,0.1-0.2,0-0.2-0.1l-0.3-1.1
			C144.8,10.9,144.9,10.7,144.7,10.7z M161.4,13c0-0.1-0.2-0.2-0.3-0.2c-0.1-0.1-0.2-0.1-0.1-0.2s0.2,0,0.3,0l0.9,0.6
			c0.1,0.1,0.1,0.1,0.1,0.2c-0.1,0.1-0.2,0.1-0.2,0c-0.3-0.3-0.4-0.1-0.6,0.1c-0.1,0.3-0.3,0.5-0.5,0.8c-0.1,0.1-0.1,0.2-0.3,0.1
			s0-0.2,0-0.3l0.6-0.9C161.3,13.1,161.3,13,161.4,13z M141.8,45.4c0.5,0.1,0.7-0.1,0.7-0.5c0.1,0.4,0.2,0.7,0.7,0.6
			c-0.4,0.2-0.4,0.5-0.3,0.9c-0.3-0.3-0.6-0.4-0.9,0C142.2,45.9,142.2,45.6,141.8,45.4z M137.3,17.6c-0.1,0.1-0.1,0.1-0.1,0.2
			c-0.1,0.1-0.1,0-0.2,0c-0.3-0.2-0.6-0.5-0.9-0.7c-0.2-0.1-0.2-0.1-0.4,0c-0.1,0.1-0.1,0.3-0.3,0.2c-0.2-0.2,0-0.2,0.1-0.3
			c0.2-0.2,0.4-0.5,0.6-0.7c0.1-0.1,0.1-0.2,0.2-0.1s0.1,0.2,0,0.2c-0.3,0.2-0.2,0.4,0.1,0.6s0.5,0.4,0.7,0.6
			C137.2,17.5,137.2,17.5,137.3,17.6L137.3,17.6z M159.9,46.4c-0.3-0.4-0.6-0.4-0.9-0.1c0.1-0.4,0.2-0.7-0.3-0.9
			c0.5,0.1,0.7-0.1,0.7-0.6c0.3,0.6,0.3,0.6,0.7,0.6c0,0.2-0.3,0.2-0.3,0.4S159.9,46.1,159.9,46.4z M158.6,11.1
			c0.1,0.1,0.3,0.1,0.2,0.3c-0.2,0.3-0.3,0.7-0.4,1c-0.1,0.2-0.1,0.4,0.2,0.4c0.2,0,0.3,0.1,0.4,0.2c0.1,0,0.1,0.1,0.1,0.2
			s-0.1,0.1-0.2,0.1c-0.3-0.1-0.6-0.3-0.9-0.4c-0.1,0-0.1-0.1-0.1-0.2l0.6-1.4C158.6,11.2,158.6,11.2,158.6,11.1L158.6,11.1z
			 M154.1,48.3c0,0.1,0,0.2-0.1,0.2s-0.2,0-0.2-0.1l-0.3-1.7c0-0.1,0-0.2,0.1-0.2s0.2,0,0.2,0.1L154.1,48.3z M132.9,21.5l1.5,0.6
			c0.1,0,0.1,0.1,0.1,0.2s-0.1,0.1-0.2,0.1l-1.5-0.6c-0.1,0-0.1-0.1-0.1-0.2C132.7,21.6,132.7,21.5,132.9,21.5z M159.6,13.7
			c-0.1-0.1-0.3-0.1-0.2-0.2l0.8-1.4c0-0.1,0.1-0.1,0.2,0c0.1,0,0.2,0.1,0.1,0.2C160.2,12.7,160,13.1,159.6,13.7
			C159.7,13.6,159.6,13.7,159.6,13.7L159.6,13.7z"/>
	</g>
	<path class="st10" d="M143.9,35.7c-0.9-0.8-1.8-1.7-2.5-2.7c-3.7-5.1-2.2-12.6,2.7-15.9c2.2-1.5,4.7-2.1,7.4-1.9
		c2.8,0.2,5.3,1.1,7.3,3c2.7,2.5,3.8,5.6,3.6,9.3c-0.2,2.5-1,4.7-2.6,6.7c-0.5,0.6-1,1.1-1.6,1.5c-0.1,0.1-0.2,0.2-0.3,0.1
		c-1-1.2-2.1-2.3-3-3.6c0-0.2,0.2-0.3,0.3-0.4c1.4-1.3,2.2-2.9,2.2-4.8c0-1.6-0.3-3.2-1.2-4.5c-2.5-3.5-8.1-3.5-10.6,0
		c-1.4,1.9-1.9,4-0.9,6.3c0.6,1.2,1.4,2.3,2.4,3.2l0.9,0.9c1.6,1.5,3.3,2.8,4.9,4.2c0.1,0.1,0.2,0.1,0.2,0.3h-6.4
		c-0.2,0-0.3-0.1-0.4-0.2C145.3,36.8,144.6,36.2,143.9,35.7L143.9,35.7z"/>
	<path class="st7" d="M143.9,35.7c0.7,0.6,1.5,1.1,2.3,1.6c0.1,0.1,0.2,0.2,0.4,0.2h6.4c0-0.1-0.2-0.2-0.2-0.3l-4.9-4.2l-0.9-0.9
		l3.2-3.7c0.1,0.2,0.2,0.3,0.4,0.4c0.2,0,0.2,0.2,0.2,0.4v0.3c-0.2-0.1-0.2-0.2-0.2-0.4c0-0.1,0.1-0.1,0-0.2c-0.1,0-0.1,0.1-0.2,0.1
		c-0.1,0.2,0,0.5,0.2,0.5c0.3,0.2,0.3,0.5,0.3,0.7s0,0.4,0.1,0.5v-1c0.2,0.1,0.2,0.3,0.2,0.5l-0.1,0.1v-0.1c0.2-0.2-0.1-0.5,0-0.6
		c0.1-0.2,0.3-0.3,0.3-0.6c0-0.4,0-0.4,0.2-0.6l0.3,0.3l3,3.4l3,3.6l2.1,2.5h-18.2C142.4,37.3,143.1,36.5,143.9,35.7L143.9,35.7z"/>
	<path class="st10" d="M153.8,40.7c0.5,0.4,0.6,0.6,0.5,1.1c-0.1,0.4-0.4,0.6-1,0.7h-1.4c-0.2,0-0.3,0-0.3-0.2v-2.7
		c0-0.2,0.1-0.3,0.3-0.2h1.4c0.4,0,0.7,0.1,0.9,0.5C154.3,40.2,154.1,40.5,153.8,40.7z M152.8,41.9h0.5c0.2,0,0.4-0.1,0.4-0.4
		s-0.1-0.4-0.4-0.4h-0.8c-0.1,0-0.2,0-0.2,0.1v0.7C152.4,42,152.7,41.9,152.8,41.9z M152.8,39.8c-0.6,0-0.6,0-0.5,0.5
		c0,0.1,0,0.2,0.1,0.2h0.8c0.2,0,0.3-0.2,0.3-0.4s-0.1-0.3-0.3-0.3H152.8L152.8,39.8z M143.6,40.5v1.6c0,0.3-0.1,0.3-0.3,0.3
		s-0.3-0.1-0.3-0.3v-2.5c0-0.1-0.1-0.3,0.1-0.4c0.2,0,0.5-0.1,0.6,0.2l1,1.6c0,0.1,0.1,0.1,0.2,0.2v-1.6c0-0.3,0.2-0.4,0.5-0.3
		c0.2,0,0.1,0.2,0.1,0.3v2.6c0,0.1,0.1,0.3-0.1,0.3s-0.5,0.1-0.6-0.1l-0.9-1.5C143.8,40.7,143.8,40.6,143.6,40.5L143.6,40.5z
		 M158.5,40.9v1.4c0,0.3-0.2,0.2-0.3,0.2c-0.2,0-0.4,0.1-0.3-0.2v-0.9c0-0.2,0-0.3-0.2-0.3h-0.8c-0.2,0-0.2,0.1-0.2,0.2v0.9
		c0,0.3-0.2,0.2-0.3,0.2s-0.3,0.1-0.3-0.2v-2.8c0-0.2,0.2-0.2,0.3-0.2s0.4-0.1,0.4,0.2v0.8c0,0.2,0,0.2,0.2,0.2c1,0.1,1,0.1,1-0.9
		c0-0.3,0.1-0.3,0.4-0.3s0.3,0.1,0.3,0.3C158.5,40,158.5,40.5,158.5,40.9L158.5,40.9z M147,42.5l1.2-3c0.1-0.2,0.2-0.2,0.4-0.2
		s0.3-0.1,0.4,0.2l1.1,2.8c0.1,0.2,0,0.2-0.1,0.2c-0.3,0-0.6,0-0.6-0.4c0-0.3-0.2-0.4-0.5-0.3h-0.3c-0.6,0-0.6,0-0.8,0.5
		c-0.1,0.1-0.1,0.2-0.3,0.2H147L147,42.5z M148.6,40.1c-0.2,0.3-0.3,0.7-0.5,1.1h0.7c0.1,0,0.2,0,0.1-0.2
		C148.9,40.7,148.7,40.4,148.6,40.1z"/>
	<g>
		<path class="st7" d="M157.5,46c0.4,0,0.7,0.3,0.7,0.7l0,0c0,0.3-0.2,0.6-0.6,0.7c-0.1,0-0.2,0-0.2-0.1c-0.1-0.4-0.3-0.7-0.3-1.1
			C157,45.9,157.3,46.1,157.5,46L157.5,46z M152.1,47.5v-0.2c0-0.4,0-0.4,0.4-0.3s0.6,0.4,0.6,0.9c0,0.4-0.4,0.6-0.7,0.6
			c-0.1,0-0.1-0.1-0.1-0.2C152.1,47.9,152.1,47.7,152.1,47.5z M152.2,10.5c0-0.2,0-0.4,0.1-0.5c0.1-0.2,0.3-0.3,0.5-0.2
			c0.2,0,0.4,0.2,0.4,0.4c0.1,0.2,0,0.5-0.1,0.7c-0.1,0.1-0.1,0.2-0.2,0c0,0-0.1-0.1-0.1,0c-0.1,0-0.1,0.1-0.1,0.2
			c0.1,0.2,0,0.2-0.1,0.2C152.3,11.2,152.2,10.9,152.2,10.5L152.2,10.5z M149.4,46.9c0.2,0,0.4,0.1,0.3,0.3c0,0.2-0.2,0.3-0.4,0.2
			c-0.3,0-0.1-0.2-0.1-0.3C149.2,46.9,149.3,46.8,149.4,46.9z M144.3,46.2c0,0.2,0.1,0.4,0,0.5l-0.3-0.1
			C144,46.5,144.1,46.4,144.3,46.2z M165.4,16.6c0,0.3-0.4,0.7-0.8,0.8c-0.3,0-0.6-0.2-0.6-0.5s0.4-0.7,0.8-0.7
			C165.2,16.1,165.4,16.3,165.4,16.6z M169.6,24.8c0,0.2-0.1,0.4-0.3,0.3c-0.4,0-0.3-0.4-0.4-0.6c0-0.3,0.3-0.2,0.4-0.2
			C169.7,24.3,169.5,24.7,169.6,24.8z M149.9,10.9c-0.1,0.2-0.2,0.2-0.3,0.2c-0.2,0-0.3-0.1-0.3-0.3s0.1-0.3,0.2-0.3
			C149.7,10.6,149.8,10.8,149.9,10.9L149.9,10.9z"/>
		<path class="st7" d="M149.7,10c0,0.1-0.1,0.2-0.2,0.2s-0.2-0.1-0.2-0.3c0-0.1,0.1-0.2,0.2-0.2C149.7,9.7,149.8,9.8,149.7,10z
			 M156.7,11.5c0.1-0.2,0.3-0.4,0.4-0.5c0.1,0.1,0.1,0.2,0.1,0.3C157.1,11.8,157.1,11.8,156.7,11.5z M132.1,24.9h0.3
			c0.5,0,0.5,0,0.3,0.5C132.5,25.2,132.3,25.1,132.1,24.9C132.1,25,132.1,24.9,132.1,24.9z M131.9,27.2c-0.2,0-0.4,0-0.3-0.3
			c0-0.2,0-0.5,0.3-0.4c0.2,0,0.3,0.2,0.3,0.3S132.3,27.3,131.9,27.2z M139.6,13.4c0.1,0.1,0.3,0.2,0.4,0.3c0.3,0.1,0.2,0.2,0,0.4
			c-0.1,0.1-0.2,0.1-0.2-0.1C139.7,13.8,139.6,13.6,139.6,13.4z M168.1,22.6h0.7c-0.2,0.2-0.4,0.3-0.6,0.5
			C168.2,22.9,168.1,22.8,168.1,22.6L168.1,22.6z"/>
	</g>
	<path class="st9" d="M150.1,28.4l-3.2,3.7c-1-0.9-1.8-2-2.4-3.2c-1-2.3-0.5-4.4,0.9-6.3c2.6-3.6,8.2-3.6,10.6,0
		c1,1.4,1.2,2.9,1.2,4.5c0,1.9-0.8,3.5-2.2,4.8c-0.1,0.1-0.3,0.2-0.3,0.4c-1-1.1-2-2.3-3-3.4l-0.3-0.3c0.1-0.3,0-0.6-0.2-0.9
		c0.3,0.1,0.3-0.2,0.4-0.3c0.5,0,0.5,0,0.5-0.5v-0.7c0-0.2-0.1-0.3-0.3-0.3c-0.1-0.2-0.1-0.5-0.3-0.6c0.5-0.2,0.7-0.5,0.6-1.1
		c0-0.2,0-0.2,0.2-0.3s0.5,0.1,0.7,0v5.4c0,0.3,0.1,0.4,0.4,0.3h0.9c0.2,0,0.3-0.1,0.3-0.3v-5.4c0-0.2-0.1-0.3-0.3-0.3h-0.9
		c-0.1-0.2,0.1-0.1,0.1-0.1c0.3,0,0.6,0,0.8-0.2c-0.1,0-0.1,0-0.2-0.1c-0.1,0-0.1,0-0.2-0.1c0.4,0,0.9,0.2,1.2-0.3
		c-0.7-0.1-1.3-0.3-2-0.5h-0.3c0.1-0.1,0-0.2-0.1-0.3c-0.2-0.2-0.5-0.3-0.7-0.5c-0.6-0.3-0.8-0.2-0.8,0.5v0.3c0,0.2-0.1,0.3-0.3,0.3
		c-0.1,0-0.2,0.1-0.2-0.1c0-0.1,0-0.2-0.1-0.2s-0.1,0.1-0.1,0.2c0,0.2-0.1,0.2-0.2,0.1c-0.2,0-0.3-0.2-0.3-0.4v-0.5
		c0-0.3-0.2-0.4-0.5-0.3c-0.4,0.2-0.9,0.4-1.2,0.8h-0.1c-0.7,0.1-1.3,0.4-1.9,0.4c-0.2,0-0.2,0.1-0.1,0.2c0.2,0.2,0.4,0.2,0.6,0.2
		h0.2c0,0.3,0.2,0.2,0.3,0.2h0.5c0.1,0,0.1,0,0.1,0.1H147c-0.2,0-0.3,0.1-0.3,0.3v5.3c0,0.2,0.1,0.3,0.3,0.3h0.9
		c0.5,0,0.5,0,0.5-0.4v-5.3h0.3c0.2-0.1,0.3,0.1,0.5,0.1c0.1,0,0,0.2,0,0.3c0,0.4,0.1,0.8,0.5,1c0,0,0.2,0,0.1,0.1
		c-0.3,0-0.3,0.3-0.4,0.5c-0.5,0-0.5,0-0.5,0.5v0.4c0,0.7,0,0.7,0.7,0.7c0.2,0.3,0.4,0.6,0.2,1C150.1,28.2,150.1,28.3,150.1,28.4z
		 M151.1,21.6c0-0.2-0.1-0.4-0.3-0.4c-0.3,0-0.3,0.2-0.3,0.4s0.1,0.3,0.1,0.5c0,0.1,0.1,0.1,0.2,0.1s0.2,0,0.2-0.1
		C150.9,21.9,151.1,21.8,151.1,21.6z"/>
	<g>
		<path class="st11" d="M150.1,28.4v-0.2c0.1-0.4,0-0.7-0.2-1c0-0.2,0-0.4,0.1-0.6c0.1-0.1,0.2-0.1,0-0.2c-0.3-0.2-0.4-0.4-0.4-0.7
			c0.1-0.2,0-0.5,0.4-0.5c0.1,0.1,0.2,0.1,0.3,0.2c-0.1,0.1-0.3,0.2-0.2,0.4c-0.1,0.3,0.2,0.4,0.4,0.5c0.3,0.1,0.5,0.1,0.8,0.1l0,0
			c0,0.1,0.1,0.1,0.1,0.1l0,0c0,0.1,0,0.1,0.1,0.1l0,0c0.2,0.3,0.3,0.5,0.3,0.9c-0.1,0.1-0.1,0.4-0.4,0.3l-0.1-0.1
			c-0.3-0.1,0.1-0.2,0.1-0.2c0.1-0.4,0-0.6-0.4-0.6h-0.3c-0.1,0-0.4-0.1-0.4,0c0,0.2-0.2,0.3-0.1,0.4c0,0.1,0,0.3,0.2,0.3
			s0.3,0,0.3-0.2v-0.3c0-0.1,0-0.1,0.1-0.1s0.1,0,0.1,0.1v0.4c-0.1,0.4,0.2,0.2,0.4,0.2c-0.1,0,0,0.1,0,0.1c0.2,0.3,0.3,0.5,0.2,0.9
			c-0.2,0.3-0.2,0.3-0.2,0.6c0,0.2-0.2,0.4-0.3,0.6s0.2,0.4,0,0.6l0,0c0-0.2,0-0.3-0.2-0.5v1c-0.1-0.2-0.1-0.4-0.1-0.5
			c0-0.3,0.1-0.6-0.3-0.7c-0.2-0.1-0.2-0.3-0.2-0.5c0-0.1,0.1-0.2,0.2-0.1c0.1,0,0,0.1,0,0.2c0,0.2,0,0.4,0.2,0.4v-0.3
			c0-0.2,0-0.3-0.2-0.4C150.3,28.7,150.2,28.5,150.1,28.4L150.1,28.4z M150.9,28.5c0.4-0.3,0.4-0.4,0.2-0.6
			c-0.1-0.1-0.2-0.1-0.2,0.1V28.5c-0.1-0.1-0.2-0.1-0.2,0v-0.6c0-0.1-0.1-0.2-0.1-0.1c-0.1,0.1-0.2,0.2-0.2,0.4
			c0.1,0.2,0.1,0.3,0.3,0.3C150.8,28.6,150.8,28.5,150.9,28.5z M150.8,28.8v0.3c0,0.1-0.1,0.2,0.1,0.2c0.1,0,0.2-0.1,0.2-0.3
			C151.1,29,151,28.9,150.8,28.8z"/>
	</g>
	<path class="st9" d="M152.8,41.9c-0.1,0-0.4,0.1-0.4,0c-0.1-0.2,0-0.5,0-0.7c0-0.1,0.1-0.1,0.2-0.1h0.8c0.3,0,0.4,0.2,0.4,0.4
		s-0.2,0.4-0.4,0.4C153.4,41.9,152.8,41.9,152.8,41.9z M152.8,39.8h0.4c0.2,0,0.3,0.1,0.3,0.3s-0.1,0.3-0.3,0.4h-0.8
		c-0.1,0-0.1-0.1-0.1-0.2C152.3,39.8,152.3,39.8,152.8,39.8L152.8,39.8z M148.6,40.1l0.3,0.9c0,0.1,0,0.2-0.1,0.2h-0.7L148.6,40.1z"
		/>
	<path class="st11" d="M153.1,23.6c-0.2,0-0.4-0.1-0.7,0c-0.2,0.1-0.2,0.1-0.2,0.3c0.1,0.5-0.1,0.9-0.6,1.1c0.2,0.2,0.3,0.4,0.3,0.6
		c0,0.1,0,0.3-0.1,0.4c-0.1,0.2-0.2,0.4-0.5,0.3c0,0,0-0.1-0.1-0.1c0,0-0.1,0-0.1-0.1l0,0c0-0.1,0.1-0.1,0.1-0.2
		c0.2-0.1,0.2-0.2,0.2-0.4c-0.1-0.4-0.4-0.4-0.7-0.4c-0.1-0.1-0.1-0.1-0.2,0c-0.3,0-0.5-0.1-0.8-0.1c0-0.1-0.1-0.1-0.1-0.1
		c-0.4-0.2-0.5-0.6-0.5-1c0-0.1,0.1-0.3,0-0.3c-0.2,0-0.3-0.2-0.5-0.1h-0.3c-0.1,0-0.3-0.1-0.4-0.1c0.1-0.1,0-0.1-0.1-0.1h-0.5
		c-0.1,0-0.3,0-0.3-0.2c0-0.1-0.1,0-0.2,0c-0.2,0-0.5,0-0.6-0.2c-0.1-0.1-0.1-0.2,0.1-0.2c0.7-0.1,1.3-0.4,1.9-0.4h0.1
		c0.3-0.4,0.7-0.6,1.2-0.8c0.3-0.1,0.5,0,0.5,0.3v0.5c0,0.2,0.1,0.3,0.3,0.4c0.1,0,0.2,0.1,0.2-0.1c0-0.1,0-0.2,0.1-0.2
		s0.2,0.1,0.1,0.2c0,0.2,0.1,0.2,0.2,0.1c0.2,0,0.3-0.1,0.3-0.3v-0.3c0-0.7,0.2-0.8,0.8-0.5c0.3,0.1,0.5,0.3,0.7,0.5
		c0.1,0.1,0.2,0.1,0.1,0.3c-0.2,0.2-0.5,0.2-0.7,0.1c-0.1,0-0.3-0.1-0.1,0.1l-0.1,0.1c-0.1,0.1-0.3,0-0.4,0.2c0.1,0.1,0.3,0,0.4,0.1
		h0.1v-0.3l0.1-0.1c0.1-0.1,0.2-0.1,0.3-0.1c0.3,0.1,0.5,0,0.6-0.2c0.1,0,0.1-0.1,0.2,0c0.6,0.2,1.3,0.4,2,0.5
		c-0.3,0.5-0.8,0.3-1.2,0.3c0,0.1,0.1,0.1,0.2,0.1s0.1,0,0.2,0.1c-0.3,0.2-0.5,0.2-0.8,0.2c-0.1,0-0.2-0.1-0.1,0.1
		C153.4,23.5,153.2,23.6,153.1,23.6z M149.4,22.5c-0.1-0.2-0.1-0.3-0.3-0.2h-0.5c0,0-0.1-0.1-0.2-0.1c0,0,0,0.1,0.1,0.1
		c0.1,0.1,0.2,0.1,0.3,0.1C149,22.4,149.1,22.3,149.4,22.5C149.4,22.5,149.4,22.6,149.4,22.5c-0.1,0.1-0.1,0.2,0,0.2h0.3
		c0,0,0,0.1,0.1,0C149.8,22.4,149.5,22.7,149.4,22.5L149.4,22.5z M150.8,22.8C150.8,22.8,150.7,22.8,150.8,22.8
		C150.7,22.8,150.7,22.8,150.8,22.8c0,0.1-0.1,0.1-0.2,0.1c-0.2,0-0.4,0-0.6-0.1c-0.1,0-0.2-0.1-0.2,0.1c0,0.1,0,0.2,0.1,0.2h0.2
		c0.2,0,0.4,0,0.5,0.2c0,0.1,0.2,0.1,0.2,0.1c0-0.4,0.3-0.3,0.5-0.3c0.1,0,0.2,0,0.2-0.1v-0.2c-0.1-0.1-0.1,0-0.2,0
		C151.2,23,150.9,23,150.8,22.8z M150.9,23.5v0.6c0,0.2,0.1,0.4-0.1,0.4c-0.3,0-0.1-0.3-0.1-0.4c-0.1-0.2,0.1-0.6-0.4-0.6
		c-0.2,0-0.4,0-0.5,0.2c-0.1,0.3-0.1,0.5,0.2,0.7c0.4,0.2,0.8,0.2,1.2,0.2c0.1,0,0.3-0.2,0.5-0.3c0.2-0.2,0.3-0.4,0.2-0.7
		c-0.1-0.2-0.2-0.3-0.5-0.2C151.2,23.6,151.1,23.6,150.9,23.5L150.9,23.5z M153.4,22.8c0.1,0.1,0.2,0.2,0.4,0.1
		C153.7,22.9,153.6,22.8,153.4,22.8z M153.2,23.3c0-0.1-0.1-0.1-0.2,0H153.2z M153.2,22.7C153.2,22.8,153.3,22.8,153.2,22.7
		C153.3,22.8,153.3,22.8,153.2,22.7L153.2,22.7z M152.9,22.6L152.9,22.6z M152.5,22.9C152.5,22.9,152.5,23,152.5,22.9
		C152.5,23,152.5,23,152.5,22.9C152.5,23,152.5,22.9,152.5,22.9z M152.7,23.1L152.7,23.1z M152.9,23.2
		C152.9,23.2,152.9,23.1,152.9,23.2z"/>
	<path class="st12" d="M148.1,23.5c0.1,0,0.3,0.1,0.4,0.1v5.3c0,0.4,0,0.4-0.5,0.4h-0.9c-0.2,0-0.3-0.1-0.3-0.3v-5.3
		c0-0.2,0.1-0.3,0.3-0.3C147.4,23.5,147.8,23.5,148.1,23.5z M153.1,23.6c0.1,0,0.2-0.1,0.4-0.1h0.9c0.2,0,0.3,0.1,0.3,0.3v5.4
		c0,0.2-0.1,0.3-0.3,0.3h-0.9c-0.3,0-0.4-0.1-0.4-0.3V23.6z M149.6,25.6c0,0.3,0.1,0.6,0.4,0.7c0.2,0.1,0.1,0.1,0,0.2
		c-0.1,0.2-0.1,0.4-0.1,0.6c-0.7,0-0.7,0-0.7-0.7V26C149.1,25.6,149.1,25.6,149.6,25.6L149.6,25.6z M151.4,26.3
		c0.3,0.1,0.4-0.1,0.5-0.3c0.1-0.1,0.1-0.3,0.1-0.4c0.2,0,0.3,0.1,0.3,0.3v0.7c0,0.5,0,0.5-0.5,0.5
		C151.7,26.9,151.6,26.6,151.4,26.3L151.4,26.3z"/>
	<path class="st11" d="M151.1,21.6c0,0.2-0.2,0.3-0.1,0.5c0,0.1-0.1,0.1-0.2,0.1s-0.2,0-0.2-0.1c0-0.2-0.1-0.3-0.1-0.5
		s0.1-0.4,0.3-0.4C151,21.1,151.1,21.3,151.1,21.6z"/>
	<path class="st12" d="M152.2,22.4c-0.1-0.2,0.1-0.1,0.1-0.1c0.2,0,0.5,0,0.7-0.1h0.1c-0.2,0.2-0.3,0.3-0.6,0.2
		C152.4,22.4,152.4,22.5,152.2,22.4C152.3,22.5,152.2,22.5,152.2,22.4z M151.6,25.6c0.1,0.2,0,0.3-0.2,0.4c-0.1,0-0.2,0-0.1,0.2
		c-0.3,0-0.5,0-0.8-0.1c-0.2,0-0.5-0.1-0.4-0.5h0.6c0.1,0.1-0.1,0.4,0.1,0.4s0.1-0.3,0.1-0.4L151.6,25.6L151.6,25.6z M150.9,27.2
		v-0.4c0-0.1,0-0.1-0.1-0.1s-0.1,0.1-0.1,0.1v0.3c0,0.2-0.1,0.2-0.3,0.2s-0.2-0.1-0.2-0.3s0.1-0.3,0.1-0.4c0-0.2,0.2,0,0.4,0h0.3
		c0.4,0,0.5,0.2,0.4,0.6L150.9,27.2L150.9,27.2z"/>
	<path class="st9" d="M150.7,25.6h-0.6c0-0.2,0.2-0.3,0.2-0.4c-0.1-0.1-0.2-0.1-0.3-0.2c0.3,0,0.5,0.1,0.8,0.1v0.1
		C150.7,25.4,150.7,25.5,150.7,25.6L150.7,25.6z"/>
	<g>
		<path class="st7" d="M150.7,28.5c-0.2,0-0.3-0.1-0.3-0.3c-0.1-0.2,0.1-0.3,0.2-0.4s0.1,0,0.1,0.1
			C150.7,27.9,150.7,28.5,150.7,28.5z M150.9,28.4v-0.5c0-0.2,0.1-0.2,0.2-0.1C151.3,28.1,151.3,28.3,150.9,28.4
			C150.9,28.5,150.9,28.5,150.9,28.4z"/>
		<path class="st7" d="M150.8,28.8c0.2,0,0.3,0.1,0.3,0.3c0,0.1-0.1,0.3-0.2,0.3s-0.1-0.2-0.1-0.2V28.8z"/>
	</g>
	<path class="st9" d="M150.9,27.2h0.4c0,0.1-0.3,0.1-0.1,0.2C151.1,27.4,150.8,27.6,150.9,27.2L150.9,27.2z"/>
	<path class="st7" d="M150.7,28.5h0.2v0.1C150.8,28.5,150.8,28.6,150.7,28.5z"/>
	<path class="st12" d="M151.2,26.2c0,0,0.1,0,0.1,0.1C151.3,26.2,151.2,26.3,151.2,26.2z M151.4,26.2
		C151.4,26.3,151.4,26.3,151.4,26.2C151.4,26.3,151.4,26.3,151.4,26.2z"/>
	<path class="st9" d="M151.3,27.5C151.2,27.5,151.2,27.4,151.3,27.5L151.3,27.5z M150.9,23.5c0.1,0.1,0.3,0.1,0.4,0.1
		c0.2,0,0.4,0,0.5,0.2c0.1,0.3,0.1,0.5-0.2,0.7c-0.1,0.1-0.3,0.3-0.5,0.3c-0.4-0.1-0.8,0-1.2-0.2c-0.3-0.2-0.2-0.4-0.2-0.7
		c0.1-0.2,0.2-0.2,0.5-0.2c0.5,0,0.3,0.3,0.4,0.6c0,0.2-0.1,0.4,0.1,0.4s0.1-0.3,0.1-0.4C150.9,23.9,150.9,23.7,150.9,23.5
		L150.9,23.5z"/>
	<path class="st12" d="M150.8,22.8c0.1,0.2,0.4,0.2,0.6,0.1c0.1,0,0.2-0.1,0.2,0c0.1,0,0,0.1,0,0.2s-0.1,0.1-0.2,0.1
		c-0.2,0-0.5-0.1-0.5,0.3c0,0-0.2,0.1-0.2-0.1c-0.1-0.3-0.3-0.2-0.5-0.2H150c-0.1,0-0.1-0.1-0.1-0.2s0.1-0.1,0.2-0.1
		c0.2,0.1,0.4,0.1,0.6,0.1C150.7,22.9,150.7,22.9,150.8,22.8C150.7,22.8,150.8,22.8,150.8,22.8L150.8,22.8z"/>
	<path class="st9" d="M151.6,25.6h-0.7v-0.4C151.2,25.2,151.5,25.2,151.6,25.6z"/>
	<path class="st12" d="M149.3,22.5c-0.1-0.1-0.3-0.1-0.5-0.1c-0.1,0-0.2,0-0.3-0.1h0.6C149.3,22.3,149.3,22.4,149.3,22.5L149.3,22.5
		z M152.2,22.6v0.2c-0.1-0.1-0.3,0-0.4-0.1C151.9,22.5,152.1,22.6,152.2,22.6C152.2,22.5,152.2,22.5,152.2,22.6z M149.7,22.7h-0.3
		c-0.1,0-0.1-0.1-0.1-0.1C149.5,22.7,149.8,22.4,149.7,22.7L149.7,22.7L149.7,22.7z M153.4,22.8c0.1,0,0.2,0.1,0.4,0.1
		C153.6,23,153.5,22.9,153.4,22.8z M150.9,25.2C150.9,25.2,150.9,25.3,150.9,25.2c-0.1,0.1-0.1,0.1-0.2,0v-0.1
		C150.8,25.2,150.8,25.1,150.9,25.2z M153.2,23.3H153C153.1,23.2,153.1,23.2,153.2,23.3z"/>
	<path class="st9" d="M148.6,22.3h-0.1l-0.1-0.1C148.6,22.2,148.6,22.3,148.6,22.3L148.6,22.3z"/>
	<path class="st12" d="M153.2,22.7L153.2,22.7C153.3,22.8,153.3,22.8,153.2,22.7C153.3,22.8,153.2,22.8,153.2,22.7z M152.9,22.6
		L152.9,22.6z M149.8,22.7C149.8,22.8,149.7,22.8,149.8,22.7C149.7,22.7,149.8,22.7,149.8,22.7z M150.7,22.8L150.7,22.8z
		 M152.2,22.7L152.2,22.7C152.2,22.8,152.2,22.8,152.2,22.7z M149.4,22.5C149.5,22.6,149.4,22.6,149.4,22.5L149.4,22.5
		C149.3,22.5,149.4,22.5,149.4,22.5z M152.3,22.5C152.3,22.5,152.2,22.5,152.3,22.5h-0.1H152.3C152.2,22.5,152.3,22.5,152.3,22.5z
		 M152.5,22.9C152.5,22.9,152.5,23,152.5,22.9C152.5,23,152.5,23,152.5,22.9C152.5,23,152.5,22.9,152.5,22.9z M152.7,23.1
		L152.7,23.1z M152.9,23.2C152.9,23.1,152.9,23.2,152.9,23.2z"/>
	<path class="st11" d="M150.7,25.3h0.2v0.3c-0.1,0.1,0.1,0.4-0.1,0.4s-0.1-0.3-0.1-0.4L150.7,25.3L150.7,25.3z"/>
</g>
<g>
	<polygon class="st13" points="138.1,57.3 138.1,54.4 138.7,54.4 138.7,55.6 139.8,55.6 139.8,54.4 140.4,54.4 140.4,57.3 
		139.8,57.3 139.8,56.1 138.7,56.1 138.7,57.3 	"/>
	<polygon id="_x31_" class="st13" points="141,56.5 141,56 142.1,56 142.1,56.5 	"/>
	<path id="_x32_" class="st13" d="M144.2,56.8v0.5h-2c0-0.2,0.1-0.5,0.3-0.7c0.1-0.1,0.3-0.3,0.5-0.6c0.3-0.2,0.4-0.4,0.5-0.5
		c0.1-0.1,0.1-0.2,0.1-0.3c0-0.3-0.1-0.4-0.4-0.4c-0.2,0-0.4,0.2-0.4,0.5l-0.6-0.1c0.1-0.6,0.4-0.9,1-0.9c0.3,0,0.5,0.1,0.7,0.2
		c0.2,0.1,0.3,0.4,0.3,0.6c0,0.3-0.1,0.5-0.3,0.8c-0.1,0.1-0.2,0.2-0.3,0.4c-0.2,0.2-0.3,0.3-0.4,0.3c0,0.1-0.1,0.1-0.1,0.2
		L144.2,56.8L144.2,56.8z"/>
	<path id="_x33_" class="st13" d="M145.5,54.4c0.6,0,1,0.5,1,1.5c0,1-0.3,1.5-1,1.5c-0.6,0-1-0.5-1-1.5
		C144.5,54.9,144.9,54.4,145.5,54.4z M145.5,54.9c-0.2,0-0.3,0.1-0.3,0.3c0,0.1-0.1,0.4-0.1,0.7c0,0.5,0.1,0.9,0.2,1
		c0.1,0,0.1,0.1,0.2,0.1c0.1,0,0.3-0.1,0.3-0.3c0-0.1,0.1-0.4,0.1-0.7c0-0.5-0.1-0.9-0.2-1C145.6,54.9,145.6,54.9,145.5,54.9z"/>
	<path id="_x34_" class="st13" d="M148.3,57.3h-0.6v-2.1c-0.2,0.2-0.4,0.3-0.7,0.4v-0.5c0.2-0.1,0.3-0.2,0.5-0.3
		c0.2-0.1,0.3-0.3,0.3-0.5h0.5L148.3,57.3L148.3,57.3z"/>
	<path id="_x35_" class="st13" d="M151,55.1l-0.5,0.1c0-0.2-0.1-0.3-0.3-0.3c-0.2,0-0.3,0.1-0.4,0.3c0,0.1-0.1,0.3-0.1,0.5
		c0.1-0.2,0.3-0.2,0.5-0.2c0.3,0,0.5,0.1,0.6,0.3c0.2,0.2,0.2,0.4,0.2,0.7c0,0.3-0.1,0.5-0.3,0.7c-0.2,0.2-0.4,0.3-0.7,0.3
		c-0.4,0-0.6-0.2-0.8-0.5c-0.1-0.2-0.2-0.6-0.2-1c0-0.4,0.1-0.8,0.2-1c0.2-0.3,0.5-0.5,0.9-0.5c0.2,0,0.4,0.1,0.6,0.2
		C150.9,54.7,150.9,54.9,151,55.1L151,55.1z M149.7,56.3c0,0.1,0,0.3,0.1,0.4c0.1,0.1,0.2,0.2,0.3,0.2c0.2,0,0.4-0.2,0.4-0.5
		c0-0.4-0.1-0.6-0.4-0.6c-0.1,0-0.2,0.1-0.3,0.2C149.7,56.1,149.7,56.2,149.7,56.3L149.7,56.3z"/>
	<path id="_x36_" class="st13" d="M155.9,54.4c0.6,0,1,0.5,1,1.5c0,1-0.3,1.5-1,1.5c-0.6,0-1-0.5-1-1.5
		C155,54.9,155.3,54.4,155.9,54.4z M155.9,54.9c-0.2,0-0.3,0.1-0.3,0.3c0,0.1-0.1,0.4-0.1,0.7c0,0.5,0.1,0.9,0.2,1
		c0.1,0,0.1,0.1,0.2,0.1c0.1,0,0.3-0.1,0.3-0.3c0-0.1,0.1-0.4,0.1-0.7c0-0.5-0.1-0.9-0.2-1C156.1,54.9,156,54.9,155.9,54.9z"/>
	<path id="_x37_" class="st13" d="M157.3,56.6l0.5-0.1c0,0.1,0.1,0.2,0.1,0.3c0.1,0.1,0.2,0.1,0.3,0.1c0.1,0,0.2,0,0.3-0.1
		c0.1-0.1,0.1-0.2,0.1-0.3c0-0.1,0-0.2-0.1-0.3c-0.1-0.1-0.2-0.1-0.3-0.1c-0.1,0-0.2,0-0.3,0l0.1-0.5c0.1,0,0.2,0,0.3-0.1
		c0.1-0.1,0.1-0.2,0.1-0.3c0-0.1,0-0.2-0.1-0.2c-0.1-0.1-0.1-0.1-0.2-0.1c-0.2,0-0.3,0.1-0.4,0.4l-0.5-0.1c0.1-0.3,0.2-0.6,0.5-0.7
		c0.1-0.1,0.3-0.1,0.4-0.1c0.3,0,0.5,0.1,0.7,0.3c0.1,0.1,0.2,0.3,0.2,0.5c0,0.3-0.1,0.5-0.4,0.6c0.2,0,0.3,0.1,0.4,0.2
		s0.1,0.3,0.1,0.5c0,0.3-0.1,0.5-0.3,0.7c-0.2,0.2-0.4,0.3-0.7,0.3c-0.3,0-0.5-0.1-0.7-0.2C157.4,57,157.3,56.8,157.3,56.6
		L157.3,56.6z"/>
	<path id="_x38_" class="st13" d="M159.6,56.6l0.6-0.1c0,0.1,0.1,0.2,0.1,0.3c0.1,0.1,0.2,0.1,0.3,0.1c0.1,0,0.3-0.1,0.3-0.2
		c0.1-0.1,0.1-0.2,0.1-0.4c0-0.2,0-0.3-0.1-0.4c-0.1-0.1-0.2-0.2-0.3-0.2c-0.2,0-0.3,0.1-0.4,0.2l-0.5-0.1l0.3-1.5h1.5V55h-1.1
		l-0.1,0.5c0.1-0.1,0.3-0.1,0.4-0.1c0.3,0,0.5,0.1,0.7,0.3c0.2,0.2,0.2,0.4,0.2,0.7c0,0.2-0.1,0.5-0.2,0.6c-0.2,0.3-0.5,0.4-0.8,0.4
		c-0.3,0-0.5-0.1-0.6-0.2C159.7,57,159.6,56.8,159.6,56.6L159.6,56.6z"/>
	<path id="_x39_" class="st13" d="M163.7,56.8v0.5h-2c0-0.2,0.1-0.5,0.3-0.7c0.1-0.1,0.3-0.3,0.5-0.6c0.3-0.2,0.4-0.4,0.5-0.5
		c0.1-0.1,0.1-0.2,0.1-0.3c0-0.3-0.1-0.4-0.4-0.4c-0.2,0-0.4,0.2-0.4,0.5l-0.6-0.1c0.1-0.6,0.4-0.9,1-0.9c0.3,0,0.5,0.1,0.7,0.2
		c0.2,0.1,0.3,0.4,0.3,0.6c0,0.3-0.1,0.5-0.3,0.8c-0.1,0.1-0.2,0.2-0.3,0.4c-0.2,0.2-0.3,0.3-0.4,0.3c0,0.1-0.1,0.1-0.1,0.2
		L163.7,56.8L163.7,56.8z"/>
	<polygon id="_x31_0" class="st13" points="152.6,56.5 152.6,56 153.7,56 153.7,56.5 	"/>
	<path id="_x31_1" class="st13" d="M126.3,58.1h0.6v1.9c0,0.2,0,0.4-0.1,0.6c-0.1,0.4-0.4,0.6-0.9,0.6c-0.3,0-0.5-0.1-0.7-0.3
		c-0.1-0.2-0.2-0.4-0.2-0.7l0.6-0.1c0,0.2,0,0.3,0.1,0.4c0.1,0.1,0.2,0.2,0.3,0.2c0.2,0,0.3-0.1,0.3-0.2c0-0.1,0-0.2,0-0.4
		L126.3,58.1L126.3,58.1z"/>
	<path id="_x31_2" class="st13" d="M127.9,59.5l-0.5-0.1c0.1-0.2,0.2-0.4,0.3-0.5c0.1-0.1,0.3-0.1,0.6-0.1c0.4,0,0.7,0.1,0.8,0.3
		c0.1,0.1,0.1,0.3,0.1,0.5l0,0.7c0,0.3,0,0.5,0.1,0.7h-0.6c0,0,0-0.1-0.1-0.2c0,0,0-0.1,0-0.1c-0.2,0.2-0.4,0.3-0.7,0.3
		c-0.2,0-0.4-0.1-0.5-0.2c-0.1-0.1-0.2-0.3-0.2-0.5c0-0.3,0.1-0.4,0.3-0.5c0.1-0.1,0.3-0.1,0.4-0.1c0.3-0.1,0.4-0.1,0.5-0.1v-0.1
		c0-0.1,0-0.2-0.1-0.2c-0.1,0-0.1-0.1-0.3-0.1C128.1,59.3,128,59.4,127.9,59.5L127.9,59.5z M128.7,60c0,0-0.1,0-0.3,0.1
		c-0.2,0-0.3,0.1-0.3,0.1c-0.1,0.1-0.1,0.1-0.1,0.2c0,0.1,0,0.2,0.1,0.2c0.1,0.1,0.1,0.1,0.2,0.1c0.1,0,0.2,0,0.3-0.1
		c0.1,0,0.1-0.1,0.1-0.2c0,0,0-0.1,0-0.3L128.7,60L128.7,60z"/>
	<path id="_x31_3" class="st13" d="M131.7,61h-0.6v-1.1c0-0.2,0-0.3,0-0.3c0-0.1-0.1-0.2-0.1-0.3c-0.1,0-0.1-0.1-0.2-0.1
		c-0.1,0-0.2,0-0.3,0.1c-0.1,0.1-0.1,0.1-0.2,0.2c0,0.1,0,0.3,0,0.5v1h-0.6v-2.1h0.5v0.3c0.2-0.2,0.4-0.4,0.7-0.4
		c0.3,0,0.5,0.1,0.6,0.2c0.1,0.1,0.1,0.3,0.1,0.6L131.7,61L131.7,61z"/>
	<path id="_x31_4" class="st13" d="M134.7,61h-0.6v-2.1c-0.2,0.2-0.4,0.3-0.7,0.4v-0.5c0.2-0.1,0.3-0.2,0.5-0.3
		c0.2-0.1,0.3-0.3,0.3-0.5h0.5L134.7,61L134.7,61z"/>
	<path id="_x31_5" class="st13" d="M135.6,60.3l0.6-0.1c0,0.1,0.1,0.2,0.1,0.3c0.1,0.1,0.2,0.1,0.3,0.1c0.1,0,0.3-0.1,0.3-0.2
		c0.1-0.1,0.1-0.2,0.1-0.4c0-0.2,0-0.3-0.1-0.4c-0.1-0.1-0.2-0.2-0.3-0.2c-0.2,0-0.3,0.1-0.4,0.2l-0.5-0.1l0.3-1.5h1.5v0.5h-1.1
		l-0.1,0.5c0.1-0.1,0.3-0.1,0.4-0.1c0.3,0,0.5,0.1,0.7,0.3c0.2,0.2,0.2,0.4,0.2,0.7c0,0.2-0.1,0.5-0.2,0.6c-0.2,0.3-0.5,0.4-0.8,0.4
		c-0.3,0-0.5-0.1-0.6-0.2C135.7,60.7,135.6,60.5,135.6,60.3L135.6,60.3z"/>
	<path id="_x31_6" class="st13" d="M137.9,60.4h0.6v0.4c0,0.3-0.1,0.5-0.2,0.6c-0.1,0.1-0.2,0.1-0.3,0.2l-0.1-0.2
		c0.2-0.1,0.3-0.2,0.3-0.4h-0.3V60.4z"/>
	<path id="_x31_7" class="st13" d="M142,60.5V61h-2c0-0.2,0.1-0.5,0.3-0.7c0.1-0.1,0.3-0.3,0.5-0.6c0.3-0.2,0.4-0.4,0.5-0.5
		c0.1-0.1,0.1-0.2,0.1-0.3c0-0.3-0.1-0.4-0.4-0.4c-0.2,0-0.4,0.2-0.4,0.5l-0.6-0.1c0.1-0.6,0.4-0.9,1-0.9c0.3,0,0.5,0.1,0.7,0.2
		c0.2,0.1,0.3,0.4,0.3,0.6c0,0.3-0.1,0.5-0.3,0.8c-0.1,0.1-0.2,0.2-0.3,0.4c-0.2,0.2-0.3,0.3-0.4,0.3c0,0.1-0.1,0.1-0.1,0.2
		L142,60.5L142,60.5z"/>
	<path id="_x31_8" class="st13" d="M143.3,58.1c0.6,0,1,0.5,1,1.5c0,1-0.3,1.5-1,1.5c-0.6,0-1-0.5-1-1.5
		C142.4,58.6,142.7,58.1,143.3,58.1z M143.3,58.5c-0.2,0-0.3,0.1-0.3,0.3c0,0.1-0.1,0.4-0.1,0.7c0,0.5,0.1,0.9,0.2,1
		c0.1,0,0.1,0.1,0.2,0.1c0.1,0,0.3-0.1,0.3-0.3c0-0.1,0.1-0.4,0.1-0.7c0-0.5-0.1-0.9-0.2-1C143.5,58.6,143.4,58.5,143.3,58.5
		L143.3,58.5z"/>
	<path id="_x31_9" class="st13" d="M146.1,61h-0.6v-2.1c-0.2,0.2-0.4,0.3-0.7,0.4v-0.5c0.2-0.1,0.3-0.2,0.5-0.3
		c0.2-0.1,0.3-0.3,0.3-0.5h0.5L146.1,61L146.1,61z"/>
	<path id="_x32_0" class="st13" d="M146.9,60.3l0.6-0.1c0,0.1,0.1,0.2,0.1,0.3c0.1,0.1,0.2,0.1,0.3,0.1c0.1,0,0.3-0.1,0.3-0.2
		c0.1-0.1,0.1-0.2,0.1-0.4c0-0.2,0-0.3-0.1-0.4c-0.1-0.1-0.2-0.2-0.3-0.2c-0.2,0-0.3,0.1-0.4,0.2l-0.5-0.1l0.3-1.5h1.5v0.5h-1.1
		l-0.1,0.5c0.1-0.1,0.3-0.1,0.4-0.1c0.3,0,0.5,0.1,0.7,0.3c0.2,0.2,0.2,0.4,0.2,0.7c0,0.2-0.1,0.5-0.2,0.6c-0.2,0.3-0.5,0.4-0.8,0.4
		c-0.3,0-0.5-0.1-0.6-0.2C147.1,60.7,147,60.5,146.9,60.3L146.9,60.3z"/>
	<path id="_x32_1" class="st13" d="M154,58.1h0.6v1.9c0,0.2,0,0.4-0.1,0.6c-0.1,0.4-0.4,0.6-0.9,0.6c-0.3,0-0.5-0.1-0.7-0.3
		c-0.1-0.2-0.2-0.4-0.2-0.7l0.6-0.1c0,0.2,0,0.3,0.1,0.4c0.1,0.1,0.2,0.2,0.3,0.2c0.2,0,0.3-0.1,0.3-0.2c0-0.1,0-0.2,0-0.4L154,58.1
		L154,58.1z"/>
	<path id="_x32_2" class="st13" d="M155.6,59.5l-0.5-0.1c0.1-0.2,0.2-0.4,0.3-0.5c0.1-0.1,0.3-0.1,0.6-0.1c0.4,0,0.7,0.1,0.8,0.3
		c0.1,0.1,0.1,0.3,0.1,0.5l0,0.7c0,0.3,0,0.5,0.1,0.7h-0.6c0,0,0-0.1-0.1-0.2c0,0,0-0.1,0-0.1c-0.2,0.2-0.4,0.3-0.7,0.3
		c-0.2,0-0.4-0.1-0.5-0.2c-0.1-0.1-0.2-0.3-0.2-0.5c0-0.3,0.1-0.4,0.3-0.5c0.1-0.1,0.3-0.1,0.4-0.1c0.3-0.1,0.4-0.1,0.5-0.1v-0.1
		c0-0.1,0-0.2-0.1-0.2c-0.1,0-0.1-0.1-0.3-0.1C155.8,59.3,155.7,59.4,155.6,59.5L155.6,59.5z M156.4,60c0,0-0.1,0-0.3,0.1
		c-0.2,0-0.3,0.1-0.3,0.1c-0.1,0.1-0.1,0.1-0.1,0.2c0,0.1,0,0.2,0.1,0.2c0.1,0.1,0.1,0.1,0.2,0.1c0.1,0,0.2,0,0.3-0.1
		c0.1,0,0.1-0.1,0.1-0.2c0,0,0-0.1,0-0.3L156.4,60L156.4,60z"/>
	<path id="_x32_3" class="st13" d="M159.4,61h-0.6v-1.1c0-0.2,0-0.3,0-0.3c0-0.1-0.1-0.2-0.1-0.3c-0.1,0-0.1-0.1-0.2-0.1
		c-0.1,0-0.2,0-0.3,0.1c-0.1,0.1-0.1,0.1-0.2,0.2c0,0.1,0,0.3,0,0.5v1h-0.6v-2.1h0.5v0.3c0.2-0.2,0.4-0.4,0.7-0.4
		c0.3,0,0.5,0.1,0.6,0.2c0.1,0.1,0.1,0.3,0.1,0.6L159.4,61L159.4,61z"/>
	<path id="_x32_4" class="st13" d="M162.5,61h-0.6v-2.1c-0.2,0.2-0.4,0.3-0.7,0.4v-0.5c0.2-0.1,0.3-0.2,0.5-0.3
		c0.2-0.1,0.3-0.3,0.3-0.5h0.5L162.5,61L162.5,61z"/>
	<path id="_x32_5" class="st13" d="M164.4,61v-0.6h-1.2v-0.5l1.3-1.9h0.5v1.9h0.4v0.5h-0.4V61H164.4z M164.4,59.9v-1l-0.7,1H164.4z"
		/>
	<path id="_x32_6" class="st13" d="M165.7,60.4h0.6v0.4c0,0.3-0.1,0.5-0.2,0.6c-0.1,0.1-0.2,0.1-0.3,0.2l-0.1-0.2
		c0.2-0.1,0.3-0.2,0.3-0.4h-0.3V60.4L165.7,60.4z"/>
	<path id="_x32_7" class="st13" d="M169.7,60.5V61h-2c0-0.2,0.1-0.5,0.3-0.7c0.1-0.1,0.3-0.3,0.5-0.6c0.3-0.2,0.4-0.4,0.5-0.5
		c0.1-0.1,0.1-0.2,0.1-0.3c0-0.3-0.1-0.4-0.4-0.4c-0.2,0-0.4,0.2-0.4,0.5l-0.6-0.1c0.1-0.6,0.4-0.9,1-0.9c0.3,0,0.5,0.1,0.7,0.2
		c0.2,0.1,0.3,0.4,0.3,0.6c0,0.3-0.1,0.5-0.3,0.8c-0.1,0.1-0.2,0.2-0.3,0.4c-0.2,0.2-0.3,0.3-0.4,0.3c0,0.1-0.1,0.1-0.1,0.2
		L169.7,60.5L169.7,60.5z"/>
	<path id="_x32_8" class="st13" d="M171.1,58.1c0.6,0,1,0.5,1,1.5c0,1-0.3,1.5-1,1.5c-0.6,0-1-0.5-1-1.5
		C170.1,58.6,170.4,58.1,171.1,58.1z M171.1,58.5c-0.2,0-0.3,0.1-0.3,0.3c0,0.1-0.1,0.4-0.1,0.7c0,0.5,0.1,0.9,0.2,1
		c0.1,0,0.1,0.1,0.2,0.1c0.1,0,0.3-0.1,0.3-0.3c0-0.1,0.1-0.4,0.1-0.7c0-0.5-0.1-0.9-0.2-1C171.2,58.6,171.1,58.5,171.1,58.5
		L171.1,58.5z"/>
	<path id="_x32_9" class="st13" d="M174.3,60.5V61h-2c0-0.2,0.1-0.5,0.3-0.7c0.1-0.1,0.3-0.3,0.5-0.6c0.3-0.2,0.4-0.4,0.5-0.5
		c0.1-0.1,0.1-0.2,0.1-0.3c0-0.3-0.1-0.4-0.4-0.4c-0.2,0-0.4,0.2-0.4,0.5l-0.6-0.1c0.1-0.6,0.4-0.9,1-0.9c0.3,0,0.5,0.1,0.7,0.2
		c0.2,0.1,0.3,0.4,0.3,0.6c0,0.3-0.1,0.5-0.3,0.8c-0.1,0.1-0.2,0.2-0.3,0.4c-0.2,0.2-0.3,0.3-0.4,0.3c0,0.1-0.1,0.1-0.1,0.2
		L174.3,60.5L174.3,60.5z"/>
	<path id="_x33_0" class="st13" d="M176.6,60.5V61h-2c0-0.2,0.1-0.5,0.3-0.7c0.1-0.1,0.3-0.3,0.5-0.6c0.3-0.2,0.4-0.4,0.5-0.5
		c0.1-0.1,0.1-0.2,0.1-0.3c0-0.3-0.1-0.4-0.4-0.4c-0.2,0-0.4,0.2-0.4,0.5l-0.6-0.1c0.1-0.6,0.4-0.9,1-0.9c0.3,0,0.5,0.1,0.7,0.2
		c0.2,0.1,0.3,0.4,0.3,0.6c0,0.3-0.1,0.5-0.3,0.8c-0.1,0.1-0.2,0.2-0.3,0.4c-0.2,0.2-0.3,0.3-0.4,0.3c0,0.1-0.1,0.1-0.1,0.2
		L176.6,60.5L176.6,60.5z"/>
	<polygon id="_x33_1" class="st13" points="150.4,60.2 150.4,59.7 151.5,59.7 151.5,60.2 	"/>
	<path id="_x33_2" class="st13" d="M132.9,63.7l0.6-0.1c0.1,0.4,0.3,0.6,0.6,0.6c0.1,0,0.3,0,0.4-0.1c0.1-0.1,0.2-0.2,0.2-0.3
		c0-0.1-0.1-0.2-0.3-0.3c-0.1,0-0.2-0.1-0.5-0.1c-0.3-0.1-0.5-0.2-0.7-0.3c-0.2-0.2-0.3-0.4-0.3-0.6c0-0.2,0-0.3,0.1-0.4
		c0.1-0.1,0.2-0.2,0.4-0.3c0.2-0.1,0.4-0.1,0.6-0.1c0.3,0,0.6,0.1,0.8,0.2c0.2,0.2,0.3,0.4,0.3,0.7l-0.6,0c0-0.2-0.1-0.3-0.2-0.3
		c-0.1-0.1-0.2-0.1-0.4-0.1c-0.2,0-0.3,0-0.4,0.1c-0.1,0-0.1,0.1-0.1,0.2c0,0.1,0,0.1,0.1,0.2c0.1,0.1,0.3,0.1,0.5,0.2
		c0.3,0.1,0.5,0.2,0.6,0.2c0.3,0.2,0.4,0.4,0.4,0.8c0,0.2,0,0.3-0.1,0.5c-0.1,0.1-0.2,0.2-0.4,0.3c-0.2,0.1-0.4,0.1-0.6,0.1
		C133.4,64.7,133,64.4,132.9,63.7L132.9,63.7z"/>
	<path id="_x33_3" class="st13" d="M135.8,62.3v-0.5h0.6v0.5H135.8z M135.8,64.7v-2.1h0.6v2.1H135.8z"/>
	<path id="_x33_4" class="st13" d="M138.9,64.7h-0.6v-1.1c0-0.2,0-0.3,0-0.3c0-0.1-0.1-0.2-0.1-0.3c-0.1,0-0.1-0.1-0.2-0.1
		c-0.1,0-0.2,0-0.3,0.1c-0.1,0.1-0.1,0.1-0.2,0.2c0,0.1,0,0.3,0,0.5v1h-0.6v-2.1h0.5v0.3c0.2-0.2,0.4-0.4,0.7-0.4
		c0.3,0,0.5,0.1,0.6,0.2c0.1,0.1,0.1,0.3,0.1,0.6L138.9,64.7L138.9,64.7z"/>
	<path id="_x33_5" class="st13" d="M141.3,63.2l-0.6,0.1c0-0.2-0.2-0.3-0.4-0.3c-0.3,0-0.5,0.2-0.5,0.6c0,0.5,0.2,0.7,0.5,0.7
		c0.2,0,0.4-0.1,0.4-0.4l0.5,0.1c-0.1,0.5-0.4,0.8-1,0.8c-0.3,0-0.6-0.1-0.8-0.3c-0.2-0.2-0.3-0.5-0.3-0.8c0-0.3,0.1-0.6,0.3-0.8
		c0.2-0.2,0.4-0.3,0.8-0.3C140.8,62.5,141.1,62.7,141.3,63.2L141.3,63.2z"/>
	<path id="_x33_6" class="st13" d="M142.9,64l0.6,0.1c-0.1,0.4-0.5,0.6-0.9,0.6c-0.4,0-0.6-0.1-0.8-0.4c-0.1-0.2-0.2-0.4-0.2-0.7
		c0-0.3,0.1-0.6,0.2-0.8c0.2-0.2,0.4-0.3,0.7-0.3c0.4,0,0.6,0.1,0.8,0.4c0.1,0.2,0.2,0.5,0.2,0.9h-1.4c0,0.1,0,0.3,0.1,0.4
		c0.1,0.1,0.2,0.2,0.3,0.2C142.8,64.3,142.9,64.2,142.9,64L142.9,64z M143,63.4c0-0.1,0-0.3-0.1-0.3c-0.1-0.1-0.2-0.2-0.3-0.2
		c-0.1,0-0.2,0.1-0.3,0.2c-0.1,0.1-0.1,0.2-0.1,0.3H143z"/>
	<path id="_x33_7" class="st13" d="M146.2,61.8h0.6v1.9c0,0.2,0,0.4-0.1,0.6c-0.1,0.4-0.4,0.6-0.9,0.6c-0.3,0-0.5-0.1-0.7-0.3
		c-0.1-0.2-0.2-0.4-0.2-0.7l0.6-0.1c0,0.2,0,0.3,0.1,0.4c0.1,0.1,0.2,0.2,0.3,0.2c0.2,0,0.3-0.1,0.3-0.2c0-0.1,0-0.2,0-0.4
		L146.2,61.8L146.2,61.8z"/>
	<path id="_x33_8" class="st13" d="M147.8,63.2l-0.5-0.1c0.1-0.2,0.2-0.4,0.3-0.5c0.1-0.1,0.3-0.1,0.6-0.1c0.4,0,0.7,0.1,0.8,0.3
		c0.1,0.1,0.1,0.3,0.1,0.5l0,0.7c0,0.3,0,0.5,0.1,0.7h-0.6c0,0,0-0.1-0.1-0.2c0,0,0-0.1,0-0.1c-0.2,0.2-0.4,0.3-0.7,0.3
		c-0.2,0-0.4-0.1-0.5-0.2c-0.1-0.1-0.2-0.3-0.2-0.5c0-0.3,0.1-0.4,0.3-0.5c0.1-0.1,0.3-0.1,0.4-0.1c0.3-0.1,0.4-0.1,0.5-0.1v-0.1
		c0-0.1,0-0.2-0.1-0.2c-0.1,0-0.1-0.1-0.3-0.1C148,62.9,147.9,63,147.8,63.2L147.8,63.2z M148.6,63.7c0,0-0.1,0-0.3,0.1
		c-0.2,0-0.3,0.1-0.3,0.1c-0.1,0.1-0.1,0.1-0.1,0.2c0,0.1,0,0.2,0.1,0.2c0.1,0.1,0.1,0.1,0.2,0.1c0.1,0,0.2,0,0.3-0.1
		c0.1,0,0.1-0.1,0.1-0.2c0,0,0-0.1,0-0.3L148.6,63.7L148.6,63.7z"/>
	<path id="_x33_9" class="st13" d="M151.6,64.7H151v-1.1c0-0.2,0-0.3,0-0.3c0-0.1-0.1-0.2-0.1-0.3c-0.1,0-0.1-0.1-0.2-0.1
		c-0.1,0-0.2,0-0.3,0.1c-0.1,0.1-0.1,0.1-0.2,0.2c0,0.1,0,0.3,0,0.5v1h-0.6v-2.1h0.5v0.3c0.2-0.2,0.4-0.4,0.7-0.4
		c0.3,0,0.5,0.1,0.6,0.2c0.1,0.1,0.1,0.3,0.1,0.6L151.6,64.7L151.6,64.7z"/>
	<path id="_x34_0" class="st13" d="M154.6,64.7h-0.6v-2.1c-0.2,0.2-0.4,0.3-0.7,0.4v-0.5c0.2-0.1,0.3-0.2,0.5-0.3
		c0.2-0.1,0.3-0.3,0.3-0.5h0.5L154.6,64.7L154.6,64.7z"/>
	<path id="_x34_1" class="st13" d="M155.5,63.9l0.6-0.1c0,0.1,0.1,0.2,0.1,0.3c0.1,0.1,0.2,0.1,0.3,0.1c0.1,0,0.3-0.1,0.3-0.2
		c0.1-0.1,0.1-0.2,0.1-0.4c0-0.2,0-0.3-0.1-0.4c-0.1-0.1-0.2-0.2-0.3-0.2c-0.2,0-0.3,0.1-0.4,0.2l-0.5-0.1l0.3-1.5h1.5v0.5h-1.1
		l-0.1,0.5c0.1-0.1,0.3-0.1,0.4-0.1c0.3,0,0.5,0.1,0.7,0.3c0.2,0.2,0.2,0.4,0.2,0.7c0,0.2-0.1,0.5-0.2,0.6c-0.2,0.3-0.5,0.4-0.8,0.4
		c-0.3,0-0.5-0.1-0.6-0.2C155.6,64.4,155.5,64.2,155.5,63.9L155.5,63.9z"/>
	<path id="_x34_2" class="st13" d="M157.8,64.1h0.6v0.4c0,0.3-0.1,0.5-0.2,0.6c-0.1,0.1-0.2,0.1-0.3,0.2l-0.1-0.2
		c0.2-0.1,0.3-0.2,0.3-0.4h-0.3L157.8,64.1L157.8,64.1z"/>
	<path id="_x34_3" class="st13" d="M161.9,64.2v0.5h-2c0-0.2,0.1-0.5,0.3-0.7c0.1-0.1,0.3-0.3,0.5-0.6c0.3-0.2,0.4-0.4,0.5-0.5
		c0.1-0.1,0.1-0.2,0.1-0.3c0-0.3-0.1-0.4-0.4-0.4c-0.2,0-0.4,0.2-0.4,0.5l-0.6-0.1c0.1-0.6,0.4-0.9,1-0.9c0.3,0,0.5,0.1,0.7,0.2
		c0.2,0.1,0.3,0.4,0.3,0.6c0,0.3-0.1,0.5-0.3,0.8c-0.1,0.1-0.2,0.2-0.3,0.4c-0.2,0.2-0.3,0.3-0.4,0.3c0,0.1-0.1,0.1-0.1,0.2
		L161.9,64.2L161.9,64.2z"/>
	<path id="_x34_4" class="st13" d="M163.2,61.7c0.6,0,1,0.5,1,1.5c0,1-0.3,1.5-1,1.5c-0.6,0-1-0.5-1-1.5
		C162.3,62.2,162.6,61.7,163.2,61.7z M163.2,62.2c-0.2,0-0.3,0.1-0.3,0.3c0,0.1-0.1,0.4-0.1,0.7c0,0.5,0.1,0.9,0.2,1
		c0.1,0,0.1,0.1,0.2,0.1c0.1,0,0.3-0.1,0.3-0.3c0-0.1,0.1-0.4,0.1-0.7c0-0.5-0.1-0.9-0.2-1C163.4,62.2,163.3,62.2,163.2,62.2
		L163.2,62.2z"/>
	<path id="_x34_5" class="st13" d="M166,64.7h-0.6v-2.1c-0.2,0.2-0.4,0.3-0.7,0.4v-0.5c0.2-0.1,0.3-0.2,0.5-0.3
		c0.2-0.1,0.3-0.3,0.3-0.5h0.5L166,64.7L166,64.7z"/>
	<path id="_x34_6" class="st13" d="M168.7,62.5l-0.5,0.1c0-0.2-0.1-0.3-0.3-0.3c-0.2,0-0.3,0.1-0.4,0.3c0,0.1-0.1,0.3-0.1,0.5
		c0.1-0.2,0.3-0.2,0.5-0.2c0.3,0,0.5,0.1,0.6,0.3c0.2,0.2,0.2,0.4,0.2,0.7c0,0.3-0.1,0.5-0.3,0.7c-0.2,0.2-0.4,0.3-0.7,0.3
		c-0.4,0-0.6-0.2-0.8-0.5c-0.1-0.2-0.2-0.6-0.2-1c0-0.4,0.1-0.8,0.2-1c0.2-0.3,0.5-0.5,0.9-0.5c0.2,0,0.4,0.1,0.6,0.2
		C168.6,62.1,168.7,62.2,168.7,62.5L168.7,62.5z M167.4,63.7c0,0.1,0,0.3,0.1,0.4c0.1,0.1,0.2,0.2,0.3,0.2c0.2,0,0.4-0.2,0.4-0.5
		c0-0.4-0.1-0.6-0.4-0.6c-0.1,0-0.2,0.1-0.3,0.2C167.5,63.4,167.4,63.6,167.4,63.7L167.4,63.7z"/>
</g>
</svg>
