<?xml version="1.0" encoding="utf-8"?>
<!-- Generator: Adobe Illustrator 22.1.0, SVG Export Plug-In . SVG Version: 6.00 Build 0)  -->
<!DOCTYPE svg PUBLIC "-//W3C//DTD SVG 1.1//EN" "http://www.w3.org/Graphics/SVG/1.1/DTD/svg11.dtd" [
	<!ENTITY st0 "fill:#457CBE;">
	<!ENTITY st1 "fill:#fff;">
]>
<svg version="1.1"
	 id="Ebene_1" xmlns:cc="http://creativecommons.org/ns#" xmlns:dc="http://purl.org/dc/elements/1.1/" xmlns:rdf="http://www.w3.org/1999/02/22-rdf-syntax-ns#" xmlns:svg="http://www.w3.org/2000/svg"
	 xmlns="http://www.w3.org/2000/svg" xmlns:xlink="http://www.w3.org/1999/xlink" x="0px" y="0px" viewBox="0 0 609.45 219.69"
	 style="enable-background:new 0 0 609.45 219.69;" xml:space="preserve">
<path style="&st0;" d="M195.88,63.11c-2.64-11.19-8.75-23.09-14.35-30.62C171.91,19.38,155.45,9.42,139,8.7
	c-10.48-0.52-22.04,0.53-32.36,4.74c-7.7,3.14-15.06,8.04-20.3,15.39c-8.58,11.91-12.43,11.83-24.15,13.13
	c-16.46,2.72-30.8,15.06-40.08,28.35C14.24,81.16,8.46,95.67,7.59,108.97c-1.4,13.99-0.17,30.45,2.81,42.86
	c2.27,12.27,9.97,26.43,16.44,35.34c11.54,15.41,28.87,24.33,49.53,24.33c16.62,0,31.48-8.03,43.73-21.85
	c7.01-9.29,9.11-10.86,20.31-12.45c12.93-1.73,24.84-8.56,32.88-16.1c10.15-9.62,19.25-25.71,22.75-41.82
	C200.08,101.46,200.08,81.16,195.88,63.11z M134.1,162.52c-5.07,9.11-11.2,11.54-21.86,10.13c-12.42-4.01-23.47-12.58-30.64-22.21
	c-6.48-8.4-12.07-19.96-15.04-30.46c-3.83-13.47-5.41-35.69,0.36-52.66c1.92-6.47,5.42-12.61,10.5-16.62
	c3.14-2.64,5.25-3.16,12.25-3.16c8.39,1.23,16.27,5.59,22.06,9.97C140.93,79.93,151.76,130.4,134.1,162.52z"/>
<path style="&st1;" d="M568.54,124.51c-0.98-0.04-2-0.03-3.08,0c-22.65,1.35-32.43,19.49-33.51,40.42
	c-0.54,21.16,8.32,43.74,33.45,45.22h0c1.02,0.06,2.04,0.06,3.07,0c22.66-1.4,33-19.89,33.5-40.45
	C602.15,148.2,593.45,126.16,568.54,124.51z M567.81,196.77c-0.58,0.04-1.17,0.04-1.75,0c-15.33-1.16-18.48-18.99-18.48-31.11
	c0.88-14.47,6.03-26.8,18.56-27.74c0.54-0.05,1.11-0.05,1.68,0c15.28,1.23,18.48,18.93,18.48,31.03
	C585.36,183.49,580.34,195.83,567.81,196.77z"/>
<path style="&st1;" d="M344.35,127.28h-18.19l-24.84,81.18h15.4l5.24-18h26.43l5.42,18.18h15.4L344.35,127.28z M325.11,179.61
	l10.17-34.83l9.97,34.83H325.11z"/>
<polygon style="&st1;" points="261,208.67 253.82,208.67 238.08,147.08 238.08,208.32 224.42,208.32 224.42,127.13 246.12,127.13 
	261.34,181.91 276.22,127.3 298.11,127.3 298.11,208.49 284.27,208.49 284.27,147.08 268.53,208.67 261,208.67 "/>
<polygon style="&st1;" points="480.5,146.7 480.5,208.64 466.51,208.64 466.51,127.11 487.5,127.11 513.04,186.61 513.04,127.11 
	526.86,127.11 526.86,208.64 507.1,208.64 480.5,146.7 "/>
<polygon style="&st1;" points="433.58,127.06 414.87,127.06 387.41,163.99 418.57,208.43 435.88,208.43 404.74,163.99 "/>
<rect x="373.43" y="127.06" style="&st1;" width="13.83" height="81.37"/>
<rect x="440.97" y="127.06" style="&st1;" width="13.82" height="81.37"/>
</svg>
