<svg xmlns="http://www.w3.org/2000/svg" width="180" height="58" viewBox="0 0 299.56 96.49" fill="#00305d"><path d="M72.76 43.65c-.05-2.57-2.58-5.66-7.86-5.12-3.43.36-7.13 2.1-10.73 3.83l.57-2.34L56 33.6c.74-3.74 1.43-5.27 2.37-5.27.52 0 .9.35 1.2 1a2.11 2.11 0 0 0 2 1.52c1.16 0 1.88-1 1.88-2.34a3.24 3.24 0 0 0-3.23-3.18c-4.35 0-7.7 5-9.65 14.43l-1 4.74a9.16 9.16 0 0 1-4 1.21 6.92 6.92 0 0 1-2.05-.3 11.78 11.78 0 0 0 .38-2.26c.08-2.7-1.55-3.22-2.57-3.2-1.38 0-3.2.6-3.15 3.6a4.59 4.59 0 0 0 2.6 3.69c-.13.38-.13.38-.22.6-1.4 3.3-7.53 15.5-8.45 14.18-4.15-5.94.3-20.4.3-20.4a18.39 18.39 0 0 0-7.83-2c-4.05.07-6.24 3.53-6.52 6.8-.2 2.05.44 3.2 1.84 3.36 1.2.16 2.2-.82 2.32-2.27a2.26 2.26 0 0 0-1-2.16c-.38-.3-.57-.48-.54-.83a1.36 1.36 0 0 1 1.44-1.23 6.5 6.5 0 0 1 .75.19c1.17.32 4 1.45 5.07.37-3.88 8.07-2.56 22 3.74 21.13 3.73-.5 7.67-9.34 11.17-17.15a14.75 14.75 0 0 0 5.65.4l.3-.05-3.25 15.74c-.58 2.74-1.52 6.4-2.92 6.4-.52 0-.78-.43-1.17-1.13s-.9-1.65-2.07-1.65a2.18 2.18 0 0 0-2.05 2.37 3.36 3.36 0 0 0 3.58 3.24c4.6 0 7.87-5 10-15.42l2.2-10.54a44.1 44.1 0 0 0 6.95-3.46 10.08 10.08 0 0 0-.57 2.91c0 2.6 1.53 5 3 7.35 1.22 1.92 2.38 3.74 2.38 5.32a2.77 2.77 0 0 1-2.64 2.54c-1.18 0-1.6-1-2.05-2s-.95-2.16-2.28-2.16c-1.1 0-2 1.14-2 2.6 0 2.36 2.22 4.14 5.16 4.14a6.87 6.87 0 0 0 7-7.18c0-3.12-1.8-5.94-3.38-8.42-1.1-1.72-2.06-3.2-2.1-4.36-.08-2.2 3.1-3.66 5-3.56a4.69 4.69 0 0 1 1.86.38 2.57 2.57 0 0 0-1.43 2.61 2.32 2.32 0 0 0 2.37 2.36 2.44 2.44 0 0 0 2.31-2.63m2.72 15.2c0-1.58-.94-2.9-2.42-2.9s-2.42 1.23-2.42 2.9A2.52 2.52 0 0 0 73 61.53a2.45 2.45 0 0 0 2.42-2.71M48.25 96.5A48.25 48.25 0 1 1 96.5 48.25c-.04 26.63-21.62 48.207-48.25 48.24zm0-94.2C22.88 2.3 2.3 22.862 2.3 48.233S22.846 94.182 48.217 94.2 94.172 73.67 94.2 48.3c0-25.386-20.564-45.972-45.95-46zm127.4 59.55a2.07 2.07 0 1 0-1.48-.603 2.07 2.07 0 0 0 1.48.603m-50.6-.35h.42l9.26-21.95h-3.28l-4.83 11.66a29 29 0 0 0-1.28 3.87 35.34 35.34 0 0 0-1.31-3.87l-4.88-11.66h-3.6zm13.97-.23h3.4v-8h9.2v-3h-9.2v-7.74h10.12v-2.98h-13.5zm23.66.3c4.1 0 7.06-2.2 7.06-6 0-3.48-2-5.2-5.68-6.84l-1.4-.63c-2.2-1-3.13-1.7-3.13-3.33a2.53 2.53 0 0 1 2.81-2.52 3.61 3.61 0 0 1 3.48 2.1l2.66-1.63a6.43 6.43 0 0 0-6.14-3.41c-3.6 0-6.1 2.3-6.1 5.53s1.9 4.95 5.08 6.35l1.44.64c2.36 1.06 3.64 1.88 3.64 3.77s-1.57 3-3.78 3a5.35 5.35 0 0 1-5-3l-2.72 1.46c1.2 2.46 3.7 4.5 7.82 4.5m28.58.01a13 13 0 0 0 8.46-2.78V50.3h-8.94v3h5.85v3.83a9.77 9.77 0 0 1-5.37 1.41 7.76 7.76 0 0 1-8.12-8.11c0-4.64 3.16-8.08 7.7-8.08a6.92 6.92 0 0 1 5.44 2.13l2.26-2.26c-1.76-2-4.37-2.9-7.7-2.9a10.74 10.74 0 0 0-11.14 11.12c0 6.48 4.8 11.15 11.56 11.15m13-.32h13.42V58.3H207.7V39.54h-3.38zm33.18-10.87c0 4.63-3.2 8.1-7.72 8.1S222 55.04 222 50.4s3.23-8.12 7.77-8.12 7.72 3.48 7.72 8.12m3.46 0a11.2 11.2 0 1 0-11.18 11.15 10.94 10.94 0 0 0 11.18-11.15m14.72-5.14c0 1.63-1 2.75-3 2.75h-4.34v-5.5h4.28c2.1 0 3 1.1 3 2.74m-7.32 5.62h4.73c2.7 0 4 1.54 4 3.7s-1.25 3.7-3.87 3.7h-4.9zM258.93 45c0-3-2.07-5.47-6.13-5.47h-7.9v21.73h8.46c4.58 0 7.06-2.8 7.06-6.55a5.34 5.34 0 0 0-4.44-5.53 4.11 4.11 0 0 0 2.94-4.18m16.8 8.3h-6l1.93-4.72a30.67 30.67 0 0 0 1.06-3.23 33 33 0 0 0 1.08 3.23zm6.74 8l-9.5-21.95h-.4l-9.3 21.95h3.27l2-4.94h8.35l2 4.94zm3.67-.03h13.42V58.3h-10.03V39.54h-3.4z"/></svg>