<?xml version="1.0" encoding="UTF-8"?>
<svg xmlns="http://www.w3.org/2000/svg" viewBox="0 0 310.27 72.77"><defs><style>.d{fill:#009fb9;}.e{fill:#231815;}</style></defs><g id="a"/><g id="b"><g id="c"><g><path class="d" d="M24.48,14.76C10.98,14.76,0,25.74,0,39.24c0,12.2,8.98,22.34,20.68,24.18,.3,.05,.53,.3,.53,.61v7.66c0,.52,.4,.96,.93,1,.77,.06,1.56,.1,2.35,.1,16.02,0,29.01-12.99,29.01-29.01S40.5,14.76,24.48,14.76Zm3.28,50.49v-7.23c0-.6-.53-1.06-1.13-.99-.7,.09-1.42,.13-2.15,.13-9.9,0-17.93-8.03-17.93-17.93S14.58,21.31,24.48,21.31c12.38,0,22.46,10.07,22.46,22.46,0,11.02-7.98,20.21-18.46,22.1-.38,.07-.72-.23-.72-.61Z"/><g><path class="e" d="M135.87,1.82V11.86h-10.23v-2.25h7.79V4.02h-7.79V1.82h10.23Z"/><path class="e" d="M176.19,2.12l1.67,.79c-1.2,5.12-3.29,7.99-7.61,9.81l-1.56-1.9c4.05-1.37,5.69-3.96,6.29-6.66h-3.53c-1,1.43-2.16,2.77-3.27,3.69l-1.79-1.44c2.1-1.57,3.96-4.3,4.78-6.39l2.2,.77c-.19,.44-.41,.89-.66,1.34h3.48Zm.41-1.27c.6,.54,.92,.89,1.39,1.57l-1.04,.82c-.46-.66-.77-1.06-1.36-1.57l1.02-.82Zm1.83-.77c.6,.54,.92,.89,1.39,1.57l-1.04,.82c-.46-.66-.77-1.06-1.36-1.57l1.02-.82Z"/><path class="e" d="M214.08,3.23V.06h2.42V3.23h4.3v2.17h-4.33c-.16,3.4-1.24,5.48-4.62,7.22l-1.82-1.89c3.06-1.36,3.88-2.52,4.02-5.33h-5.43V3.23h5.46Z"/><path class="e" d="M261.27,4.62c-2.06,.87-4.52,1.69-7.14,2.25v1.32c0,1.4,.34,1.82,1.64,1.92,.36,.03,.84,.04,1.4,.04,1.3,0,2.97-.1,4.25-.3v2.35c-1.29,.13-2.79,.19-4.1,.19-.79,0-1.47-.01-2.02-.06-2.26-.14-3.56-1.4-3.56-3.26V.5h2.39V4.73c2.2-.54,4.48-1.37,5.95-2.13l1.19,2.02Zm-.89-3.38c.54,.5,.83,.82,1.24,1.42l-.93,.76c-.41-.6-.72-.96-1.23-1.42l.92-.76Zm1.57-.92c.56,.47,.83,.8,1.27,1.4l-.93,.76c-.42-.6-.7-.94-1.26-1.4l.92-.76Z"/></g><g><path class="e" d="M178.72,51.87c0,1.25-.04,2.36-.12,3.31-.08,.95-.2,1.8-.34,2.52-.44,2-1.29,3.72-2.56,5.15-2.4,2.76-5.7,4.14-9.9,4.14-3.54,0-6.46-.96-8.75-2.88-2.36-1.97-3.73-4.69-4.09-8.17h6.16c.24,1.31,.63,2.32,1.17,3.03,1.27,1.65,3.13,2.48,5.56,2.48,4.49,0,6.74-2.75,6.74-8.23v-3.71c-2.44,2.49-5.24,3.74-8.42,3.74-3.62,0-6.58-1.31-8.89-3.93-2.33-2.65-3.49-5.97-3.49-9.95s1.08-7.16,3.24-9.87c2.33-2.87,5.4-4.31,9.22-4.31,3.34,0,6.13,1.25,8.34,3.74v-3h6.13v25.93Zm-5.89-12.58c0-2.58-.69-4.64-2.07-6.18-1.4-1.58-3.19-2.37-5.37-2.37-2.33,0-4.16,.86-5.51,2.59-1.22,1.54-1.83,3.54-1.83,5.99s.61,4.39,1.83,5.93c1.33,1.69,3.16,2.53,5.51,2.53s4.2-.85,5.56-2.56c1.25-1.54,1.88-3.52,1.88-5.93Z"/><path class="e" d="M192.76,25.94h6.16v2.45c2.15-2.13,4.56-3.19,7.25-3.19,3.09,0,5.5,.97,7.23,2.92,1.49,1.65,2.24,4.35,2.24,8.1v16.28h-6.16v-14.81c0-2.61-.36-4.42-1.09-5.42-.71-1.02-2-1.53-3.87-1.53-2.04,0-3.48,.67-4.33,2.02-.84,1.33-1.25,3.64-1.25,6.94v12.8h-6.16V25.94Z"/><path class="e" d="M248.26,25.94h6.16v26.56h-6.16v-2.78c-2.53,2.36-5.24,3.54-8.15,3.54-3.67,0-6.71-1.33-9.11-3.98-2.38-2.71-3.57-6.09-3.57-10.14s1.19-7.3,3.57-9.95c2.38-2.65,5.36-3.98,8.94-3.98,3.09,0,5.86,1.27,8.32,3.82v-3.08Zm-14.56,13.2c0,2.54,.68,4.62,2.05,6.22,1.4,1.62,3.16,2.43,5.29,2.43,2.27,0,4.11-.78,5.51-2.34,1.4-1.62,2.1-3.67,2.1-6.16s-.7-4.54-2.1-6.16c-1.4-1.58-3.22-2.37-5.45-2.37-2.11,0-3.87,.8-5.29,2.4-1.4,1.62-2.1,3.62-2.1,6Z"/><path class="e" d="M271.96,25.94l6.87,14.91,6.84-14.91h6.9l-13.59,27.95c-.08,.17-.33,.17-.42,0l-13.48-27.95h6.87Z"/><path class="e" d="M302.28,14.9c0-1.07,.39-2,1.17-2.78,.78-.78,1.72-1.17,2.81-1.17s2.05,.39,2.84,1.17c.78,.76,1.17,1.7,1.17,2.81s-.39,2.05-1.17,2.84c-.76,.78-1.7,1.17-2.81,1.17s-2.05-.39-2.84-1.17c-.78-.78-1.17-1.74-1.17-2.86Zm7.06,11.04v26.56h-6.13V25.94h6.13Z"/><path class="e" d="M126.43,30.78c4.66,0,8.45,3.79,8.45,8.45s-3.79,8.45-8.45,8.45-8.45-3.79-8.45-8.45,3.79-8.45,8.45-8.45m0-5.58c-7.75,0-14.03,6.28-14.03,14.03s6.28,14.03,14.03,14.03,14.03-6.28,14.03-14.03-6.28-14.03-14.03-14.03h0Z"/><path class="e" d="M98.6,45.21c-1.53,1.53-3.64,2.48-5.97,2.48-4.66,0-8.45-3.79-8.45-8.45s3.79-8.45,8.45-8.45c2.33,0,4.44,.95,5.97,2.48l3.94-3.95c-2.54-2.54-6.05-4.11-9.92-4.11-7.75,0-14.03,6.28-14.03,14.03s6.28,14.03,14.03,14.03c3.87,0,7.38-1.57,9.92-4.11l-3.94-3.95Z"/></g></g></g></g></svg>