<?xml version="1.0" ?>
<!DOCTYPE svg  PUBLIC '-//W3C//DTD SVG 1.1//EN'  'http://www.w3.org/Graphics/SVG/1.1/DTD/svg11.dtd'>
<!-- Uploaded to: SVG Repo, www.svgrepo.com, Generator: SVG Repo Mixer Tools -->
<svg fill="#000000" width="800px" height="800px" viewBox="0 0 64 64" style="fill-rule:evenodd;clip-rule:evenodd;stroke-linejoin:round;stroke-miterlimit:2;" version="1.1" xml:space="preserve" xmlns="http://www.w3.org/2000/svg" xmlns:serif="http://www.serif.com/" xmlns:xlink="http://www.w3.org/1999/xlink">
<g transform="matrix(1,0,0,1,0,-288)">
<g id="Icon">
<g transform="matrix(0.743168,0.576242,-0.56859,0.811796,104.141,-180.446)">
<path d="M240.539,429.834L262.637,421.19C263.189,420.975 263.474,420.382 263.273,419.868C263.072,419.354 262.46,419.112 261.908,419.328L239.811,427.971C239.258,428.187 238.973,428.78 239.174,429.294C239.376,429.808 239.987,430.05 240.539,429.834Z" style="fill:rgb(181,129,49);"/>
</g>
<path d="M37.87,306.587C37.994,306.831 38.217,307.023 38.503,307.1L59.839,312.817C60.372,312.96 60.921,312.643 61.064,312.11C61.207,311.577 60.89,311.028 60.357,310.885L59.945,310.775C60.053,310.987 60.086,311.238 60.02,311.486C59.877,312.019 59.328,312.336 58.795,312.193L37.87,306.587Z" style="fill:rgb(154,110,42);"/>
<path d="M37.787,341.767C37.792,341.729 37.794,341.69 37.794,341.651L37.807,329.201C37.807,328.655 37.368,328.209 36.822,328.2L22.336,327.979C22.069,327.974 21.81,328.078 21.619,328.266C21.429,328.454 21.321,328.711 21.321,328.978L21.321,341.65C21.321,342.767 21.955,343.84 23.141,344.678C24.59,345.7 26.92,346.394 29.555,346.394C32.191,346.394 34.521,345.7 35.97,344.678C37.114,343.87 37.745,342.841 37.787,341.767Z" style="fill:rgb(234,121,72);"/>
<path d="M35.972,328.187L35.96,339.817C35.96,339.856 35.958,339.895 35.953,339.933C35.911,341.008 35.281,342.036 34.136,342.844C32.687,343.867 30.357,344.56 27.722,344.56C25.306,344.56 23.147,343.977 21.688,343.093C21.991,343.672 22.481,344.211 23.141,344.678C24.59,345.7 26.92,346.394 29.555,346.394C32.191,346.394 34.521,345.7 35.97,344.678C37.114,343.87 37.745,342.841 37.787,341.767C37.792,341.729 37.794,341.69 37.794,341.651L37.807,329.201C37.807,328.655 37.368,328.209 36.822,328.2L35.972,328.187Z" style="fill:rgb(229,104,49);"/>
<path d="M19.584,341.767C19.589,341.729 19.591,341.69 19.591,341.651L19.604,329.201C19.604,328.655 19.166,328.209 18.619,328.2L4.134,327.979C3.866,327.974 3.607,328.078 3.417,328.266C3.226,328.454 3.118,328.711 3.118,328.978L3.118,341.65C3.118,342.767 3.752,343.84 4.938,344.678C6.387,345.7 8.717,346.394 11.353,346.394C13.988,346.394 16.318,345.7 17.767,344.678C18.911,343.87 19.542,342.841 19.584,341.767Z" style="fill:rgb(234,121,72);"/>
<path d="M17.775,328.187L17.764,339.823C17.764,339.863 17.761,339.901 17.757,339.939C17.714,341.014 17.084,342.042 15.939,342.85C14.491,343.873 12.161,344.567 9.525,344.567C7.107,344.567 4.946,343.982 3.487,343.096C3.791,343.674 4.279,344.212 4.938,344.678C6.387,345.7 8.717,346.394 11.353,346.394C13.988,346.394 16.318,345.7 17.767,344.678C18.911,343.87 19.542,342.841 19.584,341.767C19.589,341.729 19.591,341.69 19.591,341.651L19.604,329.201C19.604,328.655 19.166,328.209 18.619,328.2L17.775,328.187Z" style="fill:rgb(229,104,49);"/>
<path d="M39.742,314.758C39.747,314.72 39.749,314.681 39.749,314.642L39.761,302.193C39.762,301.646 39.323,301.2 38.777,301.192L24.291,300.97C24.023,300.966 23.765,301.069 23.574,301.257C23.383,301.445 23.276,301.702 23.276,301.97L23.276,314.641C23.276,315.758 23.91,316.832 25.096,317.669C26.544,318.691 28.875,319.385 31.51,319.385C34.146,319.385 36.476,318.691 37.924,317.669C39.069,316.861 39.699,315.833 39.742,314.758Z" style="fill:rgb(234,121,72);"/>
<path d="M37.206,301.168L37.193,313.392C37.193,313.431 37.191,313.47 37.186,313.508C37.144,314.582 36.513,315.611 35.369,316.419C33.92,317.441 31.59,318.135 28.955,318.135C27.488,318.135 26.116,317.92 24.938,317.553C24.989,317.592 25.042,317.631 25.096,317.669C26.544,318.691 28.875,319.385 31.51,319.385C34.146,319.385 36.476,318.691 37.924,317.669C39.069,316.861 39.699,315.833 39.742,314.758C39.747,314.72 39.749,314.681 39.749,314.642L39.761,302.193C39.762,301.646 39.323,301.2 38.777,301.192L37.206,301.168Z" style="fill:rgb(229,104,49);"/>
<g transform="matrix(0.723454,-0.57096,-0.560879,-0.813862,106.076,797.291)">
<path d="M220.33,435.59L261.908,419.328C262.474,419.107 263.096,419.344 263.297,419.858C263.498,420.372 263.202,420.969 262.637,421.19L221.059,437.453C220.493,437.674 219.871,437.436 219.67,436.922C219.469,436.408 219.765,435.812 220.33,435.59Z" style="fill:rgb(181,129,49);"/>
</g>
<path d="M58.444,304.92C58.515,305.017 58.57,305.128 58.603,305.252C58.746,305.785 58.429,306.333 57.896,306.476L20.096,316.605C20.332,316.928 20.752,317.09 21.161,316.98L60.363,306.476C60.896,306.333 61.213,305.785 61.07,305.252C60.927,304.718 60.378,304.402 59.845,304.544L58.444,304.92Z" style="fill:rgb(154,110,42);"/>
<path d="M11.353,324.234C8.717,324.234 6.387,324.928 4.938,325.951C3.752,326.788 3.118,327.862 3.118,328.978C3.118,330.095 3.752,331.169 4.938,332.006C6.387,333.029 8.717,333.723 11.353,333.723C13.988,333.723 16.318,333.029 17.767,332.006C18.953,331.169 19.587,330.095 19.587,328.978C19.587,327.862 18.953,326.788 17.767,325.951C16.318,324.928 13.988,324.234 11.353,324.234Z" style="fill:rgb(245,240,229);"/>
<path d="M10.335,324.269C12.548,324.421 14.473,325.062 15.732,325.951C16.918,326.788 17.552,327.862 17.552,328.978C17.552,330.095 16.918,331.169 15.732,332.006C14.473,332.895 12.548,333.535 10.335,333.688C10.668,333.711 11.008,333.723 11.353,333.723C13.988,333.723 16.318,333.029 17.767,332.006C18.953,331.169 19.587,330.095 19.587,328.978C19.587,327.862 18.953,326.788 17.767,325.951C16.318,324.928 13.988,324.234 11.353,324.234C11.008,324.234 10.668,324.246 10.335,324.269Z" style="fill:rgb(234,222,199);"/>
<path d="M29.555,324.234C26.92,324.234 24.59,324.928 23.141,325.951C21.955,326.788 21.321,327.862 21.321,328.978C21.321,330.095 21.955,331.169 23.141,332.006C24.59,333.029 26.92,333.723 29.555,333.723C32.191,333.723 34.521,333.029 35.97,332.006C37.156,331.169 37.79,330.095 37.79,328.978C37.79,327.862 37.156,326.788 35.97,325.951C34.521,324.928 32.191,324.234 29.555,324.234Z" style="fill:rgb(245,240,229);"/>
<path d="M28.643,324.262C30.899,324.401 32.865,325.048 34.145,325.951C35.331,326.788 35.964,327.862 35.964,328.978C35.964,330.095 35.331,331.169 34.145,332.006C32.865,332.909 30.899,333.556 28.643,333.695C28.942,333.713 29.247,333.723 29.555,333.723C32.191,333.723 34.521,333.029 35.97,332.006C37.156,331.169 37.79,330.095 37.79,328.978C37.79,327.862 37.156,326.788 35.97,325.951C34.521,324.928 32.191,324.234 29.555,324.234C29.247,324.234 28.942,324.244 28.643,324.262Z" style="fill:rgb(234,222,199);"/>
<path d="M31.51,297.226C28.875,297.226 26.544,297.919 25.096,298.942C23.91,299.779 23.276,300.853 23.276,301.97C23.276,303.086 23.91,304.16 25.096,304.997C26.544,306.02 28.875,306.714 31.51,306.714C34.146,306.714 36.476,306.02 37.924,304.997C39.11,304.16 39.744,303.086 39.744,301.97C39.744,300.853 39.11,299.779 37.924,298.942C36.476,297.919 34.146,297.226 31.51,297.226Z" style="fill:rgb(245,240,229);"/>
<path d="M34.4,297.516C34.647,297.65 34.877,297.793 35.089,297.942C36.275,298.779 36.909,299.853 36.909,300.97C36.909,302.086 36.275,303.16 35.089,303.997C33.64,305.02 31.31,305.714 28.675,305.714C27.655,305.714 26.68,305.61 25.785,305.423C27.232,306.208 29.26,306.714 31.51,306.714C34.146,306.714 36.476,306.02 37.924,304.997C39.11,304.16 39.744,303.086 39.744,301.97C39.744,300.853 39.11,299.779 37.924,298.942C37.036,298.315 35.817,297.812 34.4,297.516Z" style="fill:rgb(234,222,199);"/>
<g transform="matrix(0.593594,0,0,0.427841,-107.948,154.814)">
<circle cx="231.645" cy="407.078" r="2.922" style="fill:rgb(240,104,45);"/>
</g>
<g transform="matrix(0.593594,0,0,0.427841,-105.993,127.805)">
<circle cx="231.645" cy="407.078" r="2.922" style="fill:rgb(240,104,45);"/>
</g>
<g transform="matrix(0.593594,0,0,0.427841,-126.15,154.814)">
<circle cx="231.645" cy="407.078" r="2.922" style="fill:rgb(234,121,72);"/>
</g>
</g>
</g>
</svg>