<?xml version="1.0" encoding="iso-8859-1"?>
<!-- Uploaded to: SVG Repo, www.svgrepo.com, Generator: SVG Repo Mixer Tools -->
<svg height="800px" width="800px" version="1.1" id="Layer_1" xmlns="http://www.w3.org/2000/svg" xmlns:xlink="http://www.w3.org/1999/xlink" 
	 viewBox="0 0 512 512" xml:space="preserve">
<path style="fill:#F7F1EB;" d="M434.7,455.801c-119.566-73.165-266.621,15.48-385.725-60.313c-1.475-0.939-2.22-2.696-1.9-4.414
	c20.968-112.101,41.936-224.203,62.904-336.304c0.555-2.966,3.91-4.439,6.487-2.862c119.553,73.159,266.609-15.486,385.725,60.312
	c1.475,0.939,2.221,2.696,1.9,4.414c-20.967,112.102-41.935,224.203-62.904,336.304C440.632,455.905,437.275,457.376,434.7,455.801z
	"/>
<path style="fill:#E8E2DD;" d="M126.098,57.422c-3.23-1.728-6.443-3.56-9.634-5.513c-2.576-1.577-5.931-0.106-6.487,2.862
	C89.011,166.872,68.043,278.973,47.075,391.074c-0.321,1.718,0.424,3.474,1.9,4.414c4.142,2.636,8.319,5.066,12.527,7.317
	C83.034,287.677,104.566,172.55,126.098,57.422z"/>
<path style="fill:#F75534;" d="M367.593,253.761c-9.498,50.394-60.083,88.032-109.782,91.961
	c-50.456,3.989-85.548-37.963-76.311-86.984c9.496-50.392,60.087-87.862,109.749-91.788
	C341.538,162.976,376.861,204.586,367.593,253.761z"/>
<path style="fill:#D6D6D6;" d="M20.795,498.667l-0.03-0.005c-8.596-1.605-14.263-9.876-12.655-18.472L93.066,25.984
	c1.607-8.592,9.874-14.256,18.468-12.651l0.03,0.005c8.596,1.605,14.263,9.876,12.655,18.472L39.263,486.017
	C37.655,494.609,29.388,500.272,20.795,498.667z"/>
<path style="fill:#B3B3B3;" d="M24.131,480.526L109.088,26.32c0.899-4.804,3.882-8.69,7.838-10.905
	c-1.604-0.984-3.401-1.71-5.361-2.077l-0.03-0.005c-8.593-1.605-16.86,4.058-18.468,12.651L8.11,480.191
	c-1.608,8.595,4.058,16.866,12.655,18.472l0.03,0.005c3.788,0.707,7.511-0.001,10.63-1.746
	C25.994,493.589,22.89,487.162,24.131,480.526z"/>
<path d="M321.022,312.52c-3.417,2.656-4.034,7.579-1.378,10.996s7.58,4.035,10.996,1.379c23.813-18.506,39.671-43.254,44.652-69.683
	s-1.735-52.249-18.426-70.837c-16.238-18.083-40.393-27.285-66.234-25.237c-26.311,2.079-52.674,12.798-74.238,30.18
	c-22.648,18.259-37.776,42.397-42.594,67.97c-4.991,26.492,1.752,52.384,18.504,71.037c14.732,16.406,35.963,25.49,59.071,25.49
	c2.332,0,4.687-0.093,7.053-0.28c13.037-1.03,26.128-4.195,38.909-9.406c4.007-1.634,5.932-6.208,4.298-10.216
	c-1.634-4.007-6.204-5.932-10.216-4.298c-11.284,4.601-22.799,7.393-34.225,8.295c-21.211,1.673-40.108-5.447-53.228-20.058
	c-13.462-14.991-18.843-36.008-14.763-57.663c9.257-49.126,59.469-82.013,102.664-85.427c21.255-1.68,40.198,5.453,53.337,20.085
	c13.403,14.926,18.756,35.87,14.686,57.462C355.618,274.979,341.815,296.362,321.022,312.52z"/>
<path d="M19.36,506.371c1.462,0.273,2.917,0.404,4.354,0.404c11.164-0.001,21.129-7.957,23.254-19.318l14.215-76.002
	c57.825,29.521,121.154,26.175,182.511,22.91c66.692-3.548,129.686-6.901,186.913,28.115c1.943,1.188,4.148,1.791,6.36,1.791
	c1.678,0,3.364-0.348,4.94-1.049c3.638-1.62,6.247-4.925,6.979-8.84l62.898-336.295c0.927-4.896-1.186-9.792-5.394-12.478
	C444.349,66.125,374.948,69.78,313.714,73.006c-4.323,0.228-7.64,3.916-7.414,8.238c0.228,4.323,3.954,7.63,8.238,7.414
	c58.2-3.067,124.07-6.538,181.401,28.897l-61.526,328.957c-60.238-34.783-126.968-31.233-191.552-27.796
	c-63.524,3.379-123.622,6.568-178.665-23.369l61.585-329.258c40.374,20.621,82.983,25.038,122.555,25.038
	c10.11,0,20.027-0.287,29.65-0.666c4.326-0.17,7.694-3.813,7.523-8.139c-0.169-4.325-3.8-7.691-8.138-7.523
	c-57.571,2.261-105.118-1.184-148.577-24.829l3.127-16.72c1.162-6.215-0.166-12.511-3.74-17.727
	c-3.574-5.216-8.964-8.728-15.21-9.894c-12.82-2.392-25.211,6.091-27.609,18.914L57.115,175.578
	c-0.796,4.254,2.008,8.348,6.262,9.144c4.246,0.797,8.349-2.007,9.144-6.262L100.77,27.424c0.81-4.332,4.999-7.197,9.357-6.382
	c2.099,0.392,3.92,1.579,5.127,3.341c1.207,1.762,1.655,3.888,1.263,5.987L31.562,484.576c-0.81,4.331-4.99,7.196-9.356,6.382
	c-2.099-0.392-3.92-1.579-5.127-3.341c-1.207-1.762-1.655-3.888-1.263-5.987l50.522-270.111c0.796-4.255-2.008-8.349-6.262-9.144
	c-4.245-0.797-8.349,2.007-9.144,6.262L0.41,478.751c-1.162,6.215,0.166,12.511,3.74,17.727
	C7.723,501.692,13.114,505.204,19.36,506.371z"/>
</svg>