<?xml version="1.0" encoding="iso-8859-1"?>
<!-- Uploaded to: SVG Repo, www.svgrepo.com, Generator: SVG Repo Mixer Tools -->
<svg height="800px" width="800px" version="1.1" id="Layer_1" xmlns="http://www.w3.org/2000/svg" xmlns:xlink="http://www.w3.org/1999/xlink" 
	 viewBox="0 0 512 512" xml:space="preserve">
<path style="fill:#DBD2CA;" d="M321.575,231.251c0,0,58.681,4.449,94.064,50.878l-47.8,38.012
	C367.84,320.14,312.992,254.093,321.575,231.251z"/>
<path style="fill:#F7EDE3;" d="M154.416,333.778h-23.927c-17.799,0-32.227-14.428-32.227-32.227V182.38h56.154V333.778z"/>
<path style="fill:#EDE3DB;" d="M154.416,316.952h-21.514c-9.137,0-16.543-7.406-16.543-16.543V182.38H98.262v119.172
	c0,17.799,14.428,32.227,32.227,32.227h23.927V316.952z"/>
<path style="fill:#F7EDE3;" d="M373.948,375.926c0,83.183-55.635,127.87-124.263,127.87s-124.263-44.687-124.263-127.87
	s40.415-173.363,124.263-173.363S373.948,292.743,373.948,375.926z"/>
<path id="SVGCleanerId_0" style="fill:#DBD2CA;" d="M268.492,497.527c-68.629,0-124.263-44.687-124.263-127.87
	c0-67.57,26.668-139.757,81.621-164.474c-67.681,15.351-100.429,95.875-100.429,170.744c0,83.183,55.635,127.87,124.263,127.87
	c19.294,0,37.56-3.532,53.853-10.458C292.422,496.114,280.662,497.527,268.492,497.527z"/>
<g>
	<path id="SVGCleanerId_0_1_" style="fill:#DBD2CA;" d="M268.492,497.527c-68.629,0-124.263-44.687-124.263-127.87
		c0-67.57,26.668-139.757,81.621-164.474c-67.681,15.351-100.429,95.875-100.429,170.744c0,83.183,55.635,127.87,124.263,127.87
		c19.294,0,37.56-3.532,53.853-10.458C292.422,496.114,280.662,497.527,268.492,497.527z"/>
</g>
<path style="fill:#F75534;" d="M346.636,263.743c-28.327,10.136-61.492,15.329-96.956,15.329c-30.051,0-58.472-3.73-83.686-11.045
	c-4.535-1.317-8.955-2.738-13.27-4.284c1.923-3.375,3.95-6.656,6.071-9.832c0.867-1.285,1.745-2.56,2.654-3.814
	c1.243-1.755,2.539-3.48,3.866-5.151c0.909-1.154,1.839-2.281,2.778-3.397c0.117-0.139,0.235-0.279,0.352-0.418
	c19.958-23.498,46.966-38.566,81.233-38.566C293.984,202.564,326.156,227.736,346.636,263.743z"/>
<path style="fill:#FFE666;" d="M212.409,486.772l-14.456-14.419c-23.225-23.165-23.225-61.073,0-84.239l74.156-73.965
	c23.248-23.187,61.29-23.187,84.536,0l14.456,14.419c23.225,23.165,23.225,61.073,0,84.239l-74.156,73.965
	C273.698,509.96,235.656,509.96,212.409,486.772z"/>
<path style="fill:#EDBF31;" d="M225.306,474.715l-14.897-14.858c-20.274-20.223-23.583-51.126-9.8-74.392l-2.656,2.65
	c-23.225,23.165-23.225,61.073,0,84.239l14.456,14.419c23.248,23.187,61.29,23.187,84.537,0l1.333-1.329
	C275.14,498.085,245.117,494.476,225.306,474.715z"/>
<path style="fill:#F7EDE3;" d="M135.142,227.977h-28.024c-11.26,0-20.389-9.128-20.389-20.389v-46.363
	c0-11.26,9.128-20.389,20.389-20.389h28.024c11.26,0,20.389,9.128,20.389,20.389v46.363
	C155.53,218.849,146.402,227.977,135.142,227.977z"/>
<path style="fill:#DBD2CA;" d="M103.711,207.589v-46.363c0-11.26,9.128-20.388,20.389-20.388h-16.982
	c-11.26,0-20.388,9.128-20.388,20.388v46.363c0,11.26,9.128,20.389,20.388,20.389H124.1
	C112.839,227.977,103.711,218.849,103.711,207.589z"/>
<path style="fill:#F7EDE3;" d="M357.508,347.383l-19.779-19.729c-7.969-7.95-7.969-20.834,0-28.783l32.905-32.82
	c7.976-7.955,20.909-7.955,28.885,0l19.779,19.729c7.969,7.95,7.969,20.833,0,28.783l-32.905,32.82
	C378.419,355.336,365.484,355.336,357.508,347.383z"/>
<path style="fill:#FFE666;" d="M291.779,278.089c0,12.236-5.235,23.259-13.594,30.939c-7.492,6.896-17.502,11.107-28.505,11.107
	c-23.239,0-42.088-18.829-42.088-42.047c0-16.656,9.697-31.054,23.751-37.857c5.538-2.696,11.766-4.201,18.338-4.201
	C272.929,236.032,291.779,254.861,291.779,278.089z"/>
<path style="fill:#EDBF31;" d="M228.981,273.308c0-16.176,9.16-30.201,22.559-37.229c-0.618-0.027-1.236-0.047-1.861-0.047
	c-6.572,0-12.8,1.505-18.338,4.201c-14.054,6.802-23.751,21.201-23.751,37.857c0,23.218,18.85,42.047,42.088,42.047
	c7.076,0,13.737-1.749,19.587-4.827C246.865,314.364,228.981,295.921,228.981,273.308z"/>
<path style="fill:#BD391E;" d="M225.846,205.187c-26.446,11.891-46.331,34.774-59.852,62.84c-4.535-1.317-8.955-2.738-13.27-4.284
	c1.923-3.375,3.95-6.656,6.071-9.832c0.878-1.285,1.755-2.56,2.654-3.814c1.254-1.755,2.55-3.469,3.866-5.151
	C180.863,225.249,200.998,210.829,225.846,205.187z"/>
<path style="fill:#F75534;" d="M169.174,8.811c9.97,7.679,31.968,26.552,45.912,53.013c1.099,2.086,0.476,4.667-1.46,6.012
	l-45.764,31.823c-2.679,1.863-6.386,0.469-7.183-2.694c-3.553-14.107-10.132-49.447,1.217-85.901
	C162.854,7.987,166.62,6.844,169.174,8.811z"/>
<path style="fill:#BD391E;" d="M173.17,77.68c-2.023-10.529-3.917-28.082,0.429-46.594c6.953,5.98,17.223,16.096,24.786,29.061
	L173.17,77.68z"/>
<path style="fill:#F75534;" d="M330.194,8.811c-9.97,7.679-31.968,26.552-45.912,53.013c-1.099,2.086-0.476,4.667,1.46,6.012
	l45.764,31.823c2.679,1.863,6.386,0.469,7.183-2.694c3.553-14.107,10.132-49.447-1.217-85.901
	C336.514,7.987,332.748,6.844,330.194,8.811z"/>
<path style="fill:#BD391E;" d="M326.323,77.68c2.023-10.529,3.917-28.082-0.429-46.594c-6.953,5.98-17.223,16.096-24.786,29.061
	L326.323,77.68z"/>
<path style="fill:#F7EDE3;" d="M274.132,236.028h-48.904c-38.949,0-70.816-31.867-70.816-70.816v-37.767
	c0-44.989,36.81-81.799,81.799-81.799h26.941c44.989,0,81.799,36.81,81.799,81.799v37.767
	C344.947,204.161,313.08,236.028,274.132,236.028z"/>
<path style="fill:#DBD2CA;" d="M173.218,165.212v-37.767c0-44.989,36.81-81.799,81.799-81.799h-18.808
	c-44.989,0-81.799,36.81-81.799,81.799v37.767c0,38.949,31.867,70.816,70.816,70.816h18.808
	C205.086,236.028,173.218,204.161,173.218,165.212z"/>
<circle cx="249.681" cy="162.544" r="7.837"/>
<path style="fill:#F7EDE3;" d="M411.459,504.163h-90.49c-2.308,0-4.18-1.871-4.18-4.18v-27.935c0-15.813,12.82-28.633,28.633-28.633
	h41.583c15.813,0,28.633,12.82,28.633,28.633v27.935C415.639,502.292,413.768,504.163,411.459,504.163z"/>
<path style="fill:#DBD2CA;" d="M335.598,499.984v-27.935c0-15.813,12.82-28.633,28.633-28.633h-18.808
	c-15.814,0-28.633,12.82-28.633,28.633v27.935c0,2.308,1.871,4.18,4.18,4.18h18.808
	C337.469,504.163,335.598,502.292,335.598,499.984z"/>
<path style="fill:#F7EDE3;" d="M181.399,504.163h-90.49c-2.308,0-4.18-1.871-4.18-4.18v-27.935c0-15.813,12.82-28.633,28.633-28.633
	h41.583c15.813,0,28.633,12.82,28.633,28.633v27.935C185.579,502.292,183.707,504.163,181.399,504.163z"/>
<path style="fill:#DBD2CA;" d="M105.537,499.984v-27.935c0-15.813,12.82-28.633,28.633-28.633h-18.808
	c-15.813,0-28.633,12.82-28.633,28.633v27.935c0,2.308,1.871,4.18,4.18,4.18h18.808
	C107.409,504.163,105.537,502.292,105.537,499.984z"/>
<path d="M206.372,399.883c-3.056,3.065-3.05,8.026,0.015,11.082l67.637,67.465c1.531,1.526,3.533,2.288,5.535,2.288
	c2.009,0,4.018-0.768,5.549-2.303c3.056-3.065,3.05-8.026-0.015-11.082l-67.638-67.465
	C214.39,396.811,209.427,396.818,206.372,399.883z"/>
<path d="M230.908,375.41c-3.056,3.065-3.05,8.026,0.015,11.082l67.636,67.465c1.53,1.526,3.533,2.288,5.535,2.288
	c2.009,0,4.018-0.768,5.548-2.303c3.057-3.065,3.051-8.026-0.014-11.082l-67.637-67.465
	C238.927,372.339,233.965,372.345,230.908,375.41z"/>
<path d="M255.444,350.936c-3.056,3.065-3.05,8.026,0.015,11.082l67.637,67.465c1.531,1.526,3.533,2.288,5.535,2.288
	c2.009,0,4.018-0.768,5.549-2.303c3.056-3.065,3.05-8.026-0.015-11.082l-67.638-67.465
	C263.46,347.864,258.499,347.873,255.444,350.936z"/>
<path d="M353.166,407.298c2.009,0,4.019-0.768,5.549-2.303c3.056-3.065,3.05-8.026-0.015-11.082l-67.638-67.464
	c-3.067-3.057-8.028-3.05-11.083,0.015c-3.056,3.065-3.05,8.026,0.015,11.082l67.638,67.464
	C349.162,406.536,351.164,407.298,353.166,407.298z"/>
<path d="M236.42,192.334c-2.99,0-5.423-2.418-5.423-5.39v-3.441c0-4.328-3.509-7.837-7.837-7.837c-4.328,0-7.837,3.509-7.837,7.837
	v3.441c0,11.614,9.464,21.063,21.096,21.063c6.493,0,10.608-2.684,13.259-6.157c2.651,3.472,6.767,6.157,13.259,6.157
	c11.633,0,21.096-9.448,21.096-21.063v-3.441c0-4.328-3.508-7.837-7.837-7.837s-7.837,3.509-7.837,7.837v3.441
	c0,2.972-2.433,5.39-5.423,5.39c-0.75,0-0.936-0.108-0.936-0.109c-0.848-0.716-1.503-4.63-1.784-6.301
	c-0.63-3.758-2.104-12.561-10.54-12.561c-8.435,0-9.91,8.802-10.54,12.561c-0.28,1.672-0.936,5.588-1.765,6.288
	C237.372,192.215,237.12,192.334,236.42,192.334z"/>
<path d="M179.241,126.866c-3.12,3-3.218,7.961-0.218,11.08c1.539,1.601,3.592,2.405,5.651,2.405c1.954,0,3.91-0.726,5.43-2.187
	c15.498-14.899,36.04-3.537,36.955-3.018c3.741,2.15,8.518,0.872,10.684-2.863c2.171-3.744,0.897-8.539-2.847-10.711
	C224.076,115.299,198.521,108.331,179.241,126.866z"/>
<path d="M272.327,135.131c0.211-0.122,21.246-12.042,36.928,3.033c1.52,1.461,3.476,2.187,5.43,2.187
	c2.057,0,4.113-0.806,5.65-2.405c3-3.12,2.902-8.081-0.217-11.08c-19.28-18.536-44.834-11.566-55.654-5.292
	c-3.744,2.171-5.02,6.966-2.848,10.711C263.788,136.029,268.583,137.304,272.327,135.131z"/>
<path d="M433.111,300.17c0-7.533-2.94-14.614-8.28-19.94l-3.321-3.312c-31.788-41.305-80.506-50.976-95.112-52.999
	c16.172-14.418,26.382-35.389,26.382-58.71v-37.763c0-11.119-2.05-21.763-5.768-31.597c1.817-7.84,3.864-19.288,4.473-32.91
	c0.194-4.324-3.155-7.986-7.478-8.179c-4.323-0.194-7.986,3.156-8.178,7.478c-0.183,4.087-0.51,7.951-0.921,11.561
	c-8.385-11.188-19.332-20.343-31.949-26.626c9.888-13.067,20.796-23.072,28.347-29.246c0.652,2.417,1.234,4.862,1.739,7.311
	c0.875,4.239,5.027,6.966,9.257,6.094c4.24-0.874,6.967-5.019,6.094-9.258c-0.927-4.497-2.086-8.986-3.444-13.342
	c-1.208-3.873-4.242-6.918-8.117-8.146c-3.901-1.237-8.171-0.487-11.432,2.016c-8.555,6.594-24.212,20.01-37.575,38.696
	c-7.846-2.252-16.12-3.484-24.68-3.484H236.21c-8.56,0-16.833,1.231-24.679,3.483c-13.348-18.672-29.014-32.094-37.577-38.696
	c-3.248-2.503-7.522-3.255-11.433-2.014c-3.882,1.233-6.914,4.286-8.104,8.146c-11.271,36.185-5.693,71.377-2.071,87.096
	c-3.722,9.839-5.775,20.489-5.775,31.615v7.98c-3.496-1.555-7.361-2.426-11.428-2.426h-28.024
	c-15.564,0-28.226,12.662-28.226,28.225v46.363c0,9.323,4.546,17.601,11.536,22.743v71.215c0,18.451,12.44,34.053,29.553,38.672
	c-0.918,6.842-1.593,13.81-1.987,20.891c-0.24,4.322,3.068,8.02,7.388,8.26c0.148,0.008,0.296,0.013,0.443,0.013
	c4.128,0,7.585-3.228,7.817-7.401c0.501-8.982,1.454-17.77,2.831-26.301c0.092-0.361,0.15-0.735,0.191-1.115
	c3.764-22.658,10.528-43.471,19.783-61.274c13.567,4.411,28.18,7.777,43.588,10.059c2.556,24.237,22.547,43.358,47.173,44.565
	l-7.003,6.986c-3.065,3.056-3.07,8.019-0.014,11.082c1.531,1.535,3.539,2.302,5.548,2.302c2.003,0,4.005-0.763,5.535-2.288
	l26.37-26.306c0.392-0.392,0.793-0.774,1.2-1.146c1.755-1.267,3.425-2.645,5-4.124c11.783-8.524,26.897-11.599,41.099-8.717
	c-0.674,2.431-1.03,4.967-1.03,7.559c0,7.533,2.939,14.614,8.279,19.94l19.78,19.729c5.509,5.494,12.74,8.241,19.976,8.24
	c2.576,0,5.149-0.355,7.647-1.051c3.523,16.928-1.586,34.722-14.042,47.148l-29.663,29.582
	c-12.433,3.37-22.245,13.163-25.644,25.584l-18.842,18.794c-6.766,6.749-15.228,11.453-24.511,13.651l-0.381,0.001l-0.454,0.153
	c-5.301,0.615-10.806,0.928-16.38,0.928c-0.412-0.001-0.824-0.003-1.236-0.014c-11.685-1.379-22.226-6.462-30.502-14.721
	l-14.459-14.418c-9.745-9.723-15.111-22.711-15.111-36.572c0-13.862,5.367-26.85,15.111-36.572l22.444-22.392
	c3.064-3.057,3.07-8.019,0.013-11.083c-3.057-3.064-8.02-3.07-11.083-0.013l-22.444,22.393
	c-12.713,12.685-19.715,29.613-19.715,47.667c0,3.122,0.224,6.208,0.635,9.246c-4.931-2.492-10.496-3.905-16.388-3.905h-11.208
	c-6.081-12.636-9.988-26.889-11.612-42.454c-0.449-4.306-4.313-7.433-8.608-6.981c-4.305,0.449-7.43,4.303-6.981,8.608
	c1.53,14.661,4.902,28.339,10.043,40.828h-13.217c-20.11,0-36.47,16.361-36.47,36.47v32.117c0,4.328,3.509,7.837,7.837,7.837h98.848
	c4.328,0,7.837-3.509,7.837-7.837v-3.357c16.397,6.84,34.836,10.545,54.058,10.799c2.414,0.258,4.831,0.394,7.244,0.394
	c4.636,0,9.257-0.494,13.821-1.444l0.556-0.002l0.473-0.16c14.063-1.772,27.256-5.416,39.383-10.866v4.636
	c0,4.328,3.508,7.837,7.837,7.837h98.848c4.329,0,7.837-3.509,7.837-7.837v-32.115c0-20.11-16.36-36.47-36.47-36.47h-16.233
	c2.258-5.479,4.169-11.194,5.732-17.095l0.127-0.127c17.613-17.57,23.969-43.373,16.897-67.024l31.303-31.223
	C430.17,314.784,433.111,307.703,433.111,300.17z M160.841,496.327v-15.238c0-4.328-3.509-7.837-7.837-7.837
	c-4.328,0-7.837,3.509-7.837,7.837v15.238h-18.024v-15.238c0-4.328-3.509-7.837-7.837-7.837s-7.837,3.509-7.837,7.837v15.238H94.568
	v-24.278c0-11.468,9.329-20.797,20.797-20.797h41.582c11.468,0,20.797,9.33,20.797,20.797v16.248c0,0.05,0,0.1,0,0.15v7.88H160.841z
	 M193.416,478.904l8.425,8.4c-2.882-1.127-5.692-2.361-8.425-3.701V478.904z M407.801,472.048v24.278h-18.483v-15.238
	c0-4.328-3.508-7.837-7.837-7.837s-7.837,3.509-7.837,7.837v15.238h-18.023v-15.238c0-4.328-3.508-7.837-7.837-7.837
	c-4.329,0-7.837,3.509-7.837,7.837v15.238h-15.32v-9.719c-0.001-0.067,0.002-0.133,0-0.2v-14.36c0-1.382,0.142-2.731,0.401-4.039
	c0.015-0.073,0.028-0.145,0.041-0.218c1.971-9.431,10.347-16.539,20.355-16.539h41.582
	C398.471,451.252,407.801,460.581,407.801,472.048z M334.816,259.415c-11.396,3.51-23.559,6.25-36.319,8.208
	c-2.025-9.447-6.731-17.909-13.286-24.55c9.847-1.395,19.108-4.622,27.437-9.323c0.024,0.021,0.049,0.043,0.073,0.064
	c0.877,0.759,1.747,1.531,2.607,2.325c0.243,0.225,0.486,0.453,0.728,0.681c0.97,0.913,1.931,1.844,2.879,2.802
	c0.092,0.093,0.185,0.184,0.277,0.278C324.834,245.627,330.049,252.146,334.816,259.415z M357.894,267.687l-3.395-5.971
	c-3.583-6.492-7.453-12.563-11.618-18.178c8.519,2.457,18.732,6.205,29.18,11.877c-2.508,1.296-4.861,2.988-6.962,5.084
	L357.894,267.687z M263.15,53.487c8.785,0,17.215,1.547,25.039,4.372c0.206,0.078,0.41,0.164,0.62,0.224
	c19.207,7.128,34.672,22.015,42.571,40.836c0.103,0.311,0.219,0.619,0.36,0.913c3.45,8.538,5.368,17.853,5.368,27.614v37.763
	c0,21.586-10.917,40.663-27.513,52.018c-0.402,0.215-0.785,0.469-1.149,0.758c-9.88,6.448-21.662,10.212-34.313,10.212h-24.266
	c-0.061,0-0.12-0.004-0.181-0.004s-0.12,0.004-0.181,0.004h-24.273c-12.442,0-24.148-3.634-34.017-9.974
	c-0.496-0.434-1.041-0.79-1.613-1.079c-13.312-9.141-23.015-23.322-26.231-40.138v-15.779c0-2.729-0.397-5.367-1.123-7.865v-25.913
	c0-9.734,1.909-19.026,5.342-27.546c0.172-0.352,0.313-0.719,0.433-1.094c7.91-18.759,23.346-33.593,42.504-40.711
	c0.31-0.088,0.615-0.2,0.917-0.327c7.749-2.763,16.085-4.28,24.771-4.28h26.935V53.487z M162.255,215.418
	c0.22-0.764,0.415-1.538,0.571-2.327c3.191,4.158,6.788,7.968,10.718,11.397c-3.937,3.628-7.703,7.566-11.289,11.806v-20.876
	H162.255z M168.064,17.935c7.564,6.184,18.468,16.187,28.339,29.234c-12.61,6.278-23.551,15.425-31.936,26.602
	C162.749,58.641,162.495,38.58,168.064,17.935z M94.568,161.225c0-6.921,5.631-12.551,12.552-12.551h28.024
	c6.921,0,12.551,5.631,12.551,12.551v46.363c0,6.921-5.631,12.551-12.551,12.551h-6.175V197.34c0-4.328-3.509-7.837-7.837-7.837
	s-7.837,3.509-7.837,7.837v22.799h-6.175c-6.921,0-12.552-5.631-12.552-12.551L94.568,161.225L94.568,161.225z M106.104,301.547
	v-65.759c0.338,0.011,0.675,0.026,1.017,0.026h28.024c4.071,0,7.939-0.874,11.439-2.43v25.339c-0.223,0.383-0.449,0.761-0.669,1.148
	l-4.609,8.107l0.262,0.094c-8.495,16.84-14.938,35.963-19.004,56.557C112.944,321.339,106.104,312.226,106.104,301.547z
	 M165.511,258.001c0.357-0.53,0.716-1.057,1.077-1.579c0.578-0.833,1.161-1.658,1.752-2.471c0.241-0.332,0.487-0.659,0.73-0.988
	c2.982-4.024,6.127-7.797,9.423-11.303c0.327-0.348,0.652-0.699,0.982-1.042c0.605-0.628,1.217-1.241,1.832-1.851
	c0.474-0.469,0.95-0.934,1.429-1.393c0.536-0.513,1.073-1.021,1.616-1.52c0.628-0.576,1.263-1.138,1.901-1.696
	c0.146-0.129,0.293-0.256,0.439-0.383c8.362,4.704,17.639,7.915,27.455,9.304c-6.55,6.64-11.254,15.099-13.279,24.542
	c-12.77-1.958-24.93-4.696-36.305-8.199C164.879,258.947,165.194,258.472,165.511,258.001z M215.43,278.084
	c0-18.808,15.269-34.117,34.072-34.215h0.363c18.803,0.098,34.072,15.407,34.072,34.215c0,9.506-3.904,18.117-10.19,24.324
	c-1.638,1.225-3.225,2.535-4.74,3.911c-3.432,2.352-7.314,4.091-11.488,5.07v-30.513c0-4.328-3.509-7.837-7.837-7.837
	c-4.328,0-7.837,3.509-7.837,7.837v30.513C226.726,307.838,215.43,294.259,215.43,278.084z M297.905,290.999
	c0.666-2.481,1.149-5.033,1.425-7.649c15.385-2.279,29.996-5.647,43.584-10.062c1.056,2.045,2.088,4.128,3.085,6.264l-12.228,12.197
	C322.058,288.294,309.61,288.107,297.905,290.999z M413.762,309.013l-32.905,32.821c-4.91,4.9-12.904,4.9-17.814,0l-4.32-4.309
	l16.155-16.114c3.065-3.056,3.07-8.019,0.014-11.082c-3.055-3.065-8.017-3.071-11.082-0.015l-16.183,16.143l-4.362-4.351
	c-2.371-2.364-3.675-5.505-3.675-8.843c0-2.781,0.916-5.418,2.589-7.589c0.03-0.038,0.056-0.077,0.086-0.116
	c0.31-0.394,0.638-0.777,0.999-1.138l17.714-17.669c0.026-0.026,0.053-0.051,0.078-0.077l15.111-15.074
	c2.458-2.449,5.683-3.674,8.909-3.674c3.226,0,6.452,1.225,8.907,3.674l16.037,15.996c0.001,0.001,0.002,0.002,0.003,0.003
	l3.738,3.728c2.371,2.364,3.676,5.505,3.676,8.843C417.437,303.508,416.132,306.648,413.762,309.013z"/>
<path d="M204.972,155.771l-31.549-3.685c-4.293-0.503-8.19,2.576-8.693,6.874c-0.503,4.299,2.576,8.191,6.874,8.693l31.549,3.685
	c0.308,0.037,0.615,0.053,0.918,0.053c3.922,0,7.308-2.938,7.774-6.928C212.349,160.165,209.271,156.273,204.972,155.771z"/>
<path d="M202.995,177.03l-27.713,3.81c-4.288,0.589-7.286,4.543-6.697,8.831c0.54,3.926,3.9,6.771,7.754,6.771
	c0.355,0,0.716-0.024,1.077-0.074l27.713-3.81c4.288-0.589,7.286-4.543,6.697-8.831C211.236,179.438,207.279,176.439,202.995,177.03
	z"/>
<path d="M287.522,164.464c0.466,3.99,3.853,6.928,7.773,6.928c0.304,0,0.611-0.018,0.919-0.053l31.549-3.685
	c4.299-0.502,7.377-4.395,6.874-8.693c-0.502-4.3-4.408-7.376-8.693-6.874l-31.549,3.685
	C290.098,156.273,287.02,160.165,287.522,164.464z"/>
<path d="M324.086,180.839l-27.713-3.81c-4.282-0.585-8.242,2.408-8.83,6.697c-0.589,4.288,2.408,8.241,6.696,8.831l27.713,3.81
	c0.363,0.049,0.721,0.074,1.077,0.074c3.854,0,7.214-2.845,7.753-6.771C331.372,185.384,328.374,181.43,324.086,180.839z"/>
</svg>