<?xml version="1.0" encoding="iso-8859-1"?>
<!-- Uploaded to: SVG Repo, www.svgrepo.com, Generator: SVG Repo Mixer Tools -->
<svg height="800px" width="800px" version="1.1" id="Layer_1" xmlns="http://www.w3.org/2000/svg" xmlns:xlink="http://www.w3.org/1999/xlink" 
	 viewBox="0 0 512 512" xml:space="preserve">
<circle style="fill:#F75534;" cx="256" cy="227.288" r="135.837"/>
<path style="fill:#BD391E;" d="M274.808,356.156c-75.021,0-135.837-60.816-135.837-135.837c0-54.88,32.549-102.154,79.392-123.584
	c-56.712,16.32-98.201,68.588-98.201,130.551c0,75.021,60.816,135.837,135.837,135.837c20.14,0,39.254-4.389,56.444-12.253
	C300.493,354.309,287.866,356.156,274.808,356.156z"/>
<path style="fill:#7FB2F0;" d="M460.069,436.932H51.931c-4.336,0-5.81-5.768-2.017-7.847
	c36.279-19.801,131.009-74.585,186.744-135.158c0.794-0.867,1.902-1.348,3.062-1.348h32.559c1.16,0,2.267,0.481,3.062,1.348
	c55.735,60.573,150.465,115.357,186.744,135.158C465.878,431.164,464.405,436.932,460.069,436.932z"/>
<path style="fill:#F7EDE3;" d="M270.409,172.322c0,23.583-19.132,42.705-42.715,42.705H86.444c0,0-51.357,3.688-51.357-33.186
	c0-0.888-0.094-1.787-0.094-2.696c0-19.905,16.133-36.049,36.049-36.049c3.082,0,6.06,0.387,8.913,1.118
	c3.072-19.864,20.25-35.067,40.981-35.067c3.897,0,7.649,0.554,11.222,1.546c5.538-21.044,28.912-38.787,56.414-35.129
	c27.052,3.594,46.885,31.211,43.144,54.105c-0.01,0.042-0.01,0.094-0.021,0.136c9.394,0.867,17.899,4.786,24.534,10.731
	C264.934,148.362,270.409,159.699,270.409,172.322z"/>
<g>
	<path style="fill:#DBD2CA;" d="M53.892,184.398c0-0.822-0.087-1.65-0.087-2.489c0-17.288,15.727-31.256,33.973-28.068
		c1.89,0.33,3.693-0.879,4.151-2.742c4.661-18.965,25.153-31.54,44.607-28.074c1.738,0.309,3.454-0.613,4.094-2.258
		c9.739-25.029,30.514-37.742,54.968-34.49c14.558,1.936,26.839,11.409,33.878,23.158c-6.031-16.552-21.627-31.305-40.9-33.868
		c-27.502-3.657-50.876,14.085-56.414,35.129c-3.574-0.993-7.325-1.546-11.222-1.546c-20.731,0-37.909,15.203-40.981,35.067
		c-2.853-0.731-5.831-1.118-8.913-1.118c-19.916,0-36.049,16.144-36.049,36.049c0,0.909,0.094,1.806,0.094,2.696
		c0,36.867,51.357,33.186,51.357,33.186h7.317C80.386,214.366,53.892,209.843,53.892,184.398z"/>
	<path style="fill:#DBD2CA;" d="M95.877,117.585c-0.259,0.196-0.519,0.391-0.774,0.594c0.213,0.05,0.431,0.089,0.643,0.143
		C95.784,118.075,95.835,117.83,95.877,117.585z"/>
</g>
<path style="fill:#F7EDE3;" d="M492.944,261.103c0,23.583-19.132,42.705-42.715,42.705H308.979c0,0-51.357,3.681-51.357-33.186
	c0-0.89-0.094-1.787-0.094-2.696c0-19.905,16.133-36.049,36.049-36.049c3.082,0,6.06,0.387,8.913,1.118
	c3.072-19.863,20.25-35.067,40.981-35.067c3.897,0,7.649,0.554,11.222,1.546c5.538-21.044,28.912-38.787,56.414-35.129
	c27.105,3.605,46.958,31.316,43.123,54.241C475.944,220.602,492.944,238.857,492.944,261.103z"/>
<path style="fill:#DBD2CA;" d="M319.607,205.485c-0.971,0.684-1.91,1.41-2.817,2.172c0.775,0.145,1.543,0.311,2.302,0.506
	C319.231,207.258,319.41,206.368,319.607,205.485z"/>
<path style="fill:#5F95D4;" d="M256,292.579c-56.163,60.082-122.253,115.722-179.331,144.353H51.931
	c-4.336,0-5.81-5.768-2.017-7.847c36.279-19.801,131.009-74.585,186.744-135.158c0.794-0.867,1.902-1.348,3.062-1.348L256,292.579
	L256,292.579z"/>
<path style="fill:#F7EDE3;" d="M380.75,379.974c-4.859,8.161-9.237,17.115-18.85,17.115c-17.648,0-17.648-30.177-35.286-30.177
	c-17.648,0-17.648,30.177-35.297,30.177c-17.659,0-17.659-30.177-35.297-30.177c-17.648,0-17.648,30.177-35.297,30.177
	c-17.659,0-17.659-30.177-35.297-30.177c-2.351,0-4.389,0.533-6.196,1.473c-1.818,0.93-3.417,2.267-4.859,3.856
	c-7.858,8.662-11.316,24.848-24.242,24.848c-2.56,0-4.744-0.637-6.666-1.724c-0.167-0.094-0.334-0.199-0.502-0.313
	c-5.026-3.082-8.234-9.3-11.682-15.099c36.509-24.325,76.267-54.387,105.378-86.026c0.794-0.857,1.902-1.348,3.062-1.348h32.559
	c1.16,0,2.267,0.491,3.062,1.348C304.462,325.577,344.231,355.649,380.75,379.974z"/>
<g>
	<path style="fill:#DBD2CA;" d="M256.23,140.536c-9.718-4.044-22.434-4.232-34.022,0.899c-7.889,3.5-14.179,9.947-17.575,17.889
		c-5.872,13.74-3.981,27.209,2.591,37.376c0.627,0.961-0.564,2.069-1.463,1.358c-13.019-10.282-19.205-28.839-10.585-47.752
		c3.396-7.429,9.425-13.375,16.875-16.718c6.541-2.936,13.26-4.138,19.665-3.918c-0.01,0.042-0.01,0.094-0.021,0.136
		C241.089,130.672,249.595,134.59,256.23,140.536z"/>
	<path style="fill:#DBD2CA;" d="M276.424,273.176c0-0.822-0.087-1.65-0.087-2.489c0-17.288,15.727-31.256,33.973-28.068
		c1.89,0.33,3.693-0.879,4.151-2.742c4.661-18.965,25.153-31.54,44.607-28.074c1.738,0.309,3.454-0.613,4.094-2.258
		c9.74-25.029,30.514-37.742,54.968-34.49c14.558,1.936,26.839,11.409,33.878,23.158c-6.031-16.552-21.627-31.305-40.9-33.868
		c-27.502-3.657-50.876,14.085-56.414,35.129c-3.574-0.993-7.325-1.546-11.222-1.546c-20.731,0-37.909,15.203-40.981,35.067
		c-2.853-0.731-5.831-1.118-8.913-1.118c-19.916,0-36.049,16.144-36.049,36.049c0,0.909,0.094,1.806,0.094,2.696
		c0,36.867,51.357,33.186,51.357,33.186h7.317C302.918,303.145,276.424,298.622,276.424,273.176z"/>
	<path style="fill:#DBD2CA;" d="M478.762,229.314c-9.718-4.044-22.434-4.232-34.022,0.899c-7.889,3.5-14.179,9.947-17.575,17.889
		c-5.872,13.74-3.981,27.209,2.591,37.376c0.627,0.961-0.564,2.069-1.463,1.358c-13.019-10.282-19.205-28.839-10.585-47.752
		c3.396-7.429,9.425-13.375,16.875-16.718c6.541-2.936,13.26-4.138,19.665-3.918c-0.01,0.042-0.01,0.094-0.021,0.136
		C463.621,219.45,472.127,223.368,478.762,229.314z"/>
	<path style="fill:#DBD2CA;" d="M256,292.579c-35.328,37.784-74.574,73.822-113.037,102.473c-5.026-3.082-8.234-9.3-11.682-15.099
		c36.509-24.325,76.267-54.387,105.378-86.026c0.794-0.857,1.902-1.348,3.062-1.348H256z"/>
</g>
<path d="M504.163,429.092h-32.606c-0.902-2.859-2.882-5.336-5.72-6.885c-16.711-9.122-44.521-24.946-75.044-44.963l-5.699-3.796
	c-15.65-10.425-30.122-20.716-43.385-30.843c11.728-8.709,21.977-19.082,30.591-30.957h29.285c4.328,0,7.837-3.509,7.837-7.837
	c0-4.328-3.509-7.837-7.837-7.837h-92.61c-0.187,0-0.373,0.006-0.56,0.02c-0.119,0.008-11.389,0.764-22.618-2.394
	c-0.493-0.514-0.983-1.028-1.471-1.542c-0.243-0.256-0.49-0.513-0.731-0.77c-0.837-0.889-1.667-1.779-2.487-2.671
	c-0.003-0.003-0.006-0.005-0.009-0.008c-0.003-0.003-0.006-0.006-0.009-0.01c-0.048-0.052-0.103-0.097-0.153-0.148
	c-2.258-2.357-5.396-3.711-8.661-3.711h-2.055c-3.188-3.724-4.765-8.36-4.765-14.113c0-0.585-0.027-1.167-0.057-1.75
	c-0.017-0.313-0.037-0.628-0.037-0.946c0-15.556,12.656-28.212,28.212-28.212c1.294,0,2.597,0.088,3.873,0.262
	c0.048,0.006,0.097,0.013,0.146,0.019c0.971,0.142,1.968,0.343,2.963,0.596c0.621,0.158,1.251,0.23,1.879,0.235
	c2.481,0.591,5.679,1.591,8.844,3.268c7.887,4.179,11.917,10.476,12.319,19.255c0.193,4.202,3.659,7.477,7.822,7.477
	c0.121,0,0.242-0.002,0.366-0.008c4.324-0.199,7.667-3.864,7.469-8.188c-0.932-20.318-14.625-30.758-27.168-35.335
	c2.38-6.143,6.56-11.56,12.034-15.41c5.672-4.004,12.362-6.12,19.346-6.12c3.043,0,6.113,0.424,9.126,1.261
	c2.018,0.56,4.18,0.288,5.998-0.754c1.818-1.044,3.142-2.771,3.677-4.798c2.632-9.98,10.321-19.167,20.571-24.574
	c8.334-4.396,17.751-6.049,27.233-4.786c10.933,1.454,21.324,7.862,28.509,17.58c4.928,6.665,7.805,14.316,8.214,21.424
	c-29.356,2.918-42.613,23.124-42.613,43.174c0,4.553,0.699,9.044,2.079,13.345c1.067,3.326,4.145,5.446,7.461,5.446
	c0.793,0,1.6-0.121,2.395-0.376c4.121-1.322,6.392-5.733,5.07-9.855c-0.883-2.754-1.33-5.634-1.33-8.56
	c0-17.075,12.997-27.722,33.948-27.867c17.866,1.811,31.302,16.663,31.302,34.679c0,19.226-15.646,34.868-34.879,34.868h-11.713
	c-4.328,0-7.837,3.509-7.837,7.837s3.509,7.837,7.837,7.837h11.713c27.875,0,50.552-22.673,50.552-50.542
	c0-23.652-15.984-43.551-38.247-49.043c-0.169-10.718-4.124-21.915-11.347-31.683c-9.696-13.113-23.927-21.788-39.044-23.799
	c-10.032-1.337-20.021-0.223-29.304,3.208c-6.588-12.38-14.933-23.722-24.916-33.772c-3.049-3.07-8.011-3.087-11.082-0.037
	c-3.07,3.05-3.088,8.012-0.037,11.082c8.877,8.937,16.298,19.017,22.16,30.014c-8.604,6.08-15.419,14.296-19.401,23.402
	c-2.027-0.254-4.063-0.381-6.093-0.381c-10.239,0-20.054,3.109-28.375,8.982c-8.749,6.157-15.259,15.059-18.525,25.068
	c-0.998-0.068-1.998-0.101-2.994-0.101c-24.199,0-43.886,19.687-43.886,43.886c0,0.593,0.027,1.18,0.057,1.765
	c0.017,0.31,0.037,0.62,0.037,0.931c0,5.125,0.821,9.835,2.438,14.113h-12.497c-3.346,0-6.564,1.414-8.831,3.879
	c-0.856,0.931-1.727,1.864-2.611,2.801c-0.062,0.065-0.124,0.131-0.186,0.195c-12.385,13.102-27.505,26.83-44.982,40.89
	c-34.608-23.971-55.112-62.893-55.112-105.222c0-1.46,0.033-2.935,0.085-4.417h99.612c27.875,0,50.552-22.673,50.552-50.542
	c0-23.652-15.982-43.551-38.245-49.043c-0.116-7.372-2.024-14.971-5.556-22.177c7.098-1.202,14.31-1.821,21.553-1.821
	c22.926,0,45.427,6.138,65.069,17.75c1.252,0.74,2.625,1.092,3.981,1.091c2.679,0,5.29-1.375,6.753-3.85
	c2.203-3.725,0.968-8.532-2.759-10.733C306.989,90.501,281.731,83.61,256,83.61c-10.487,0-20.925,1.141-31.1,3.382
	c-9.436-10.528-22.021-17.429-35.291-19.194c-29.523-3.919-53.543,13.269-62.575,33.896c-2.028-0.254-4.064-0.381-6.095-0.381
	c-21.824,0-40.47,13.922-46.921,34.049c-0.987-0.066-1.98-0.1-2.973-0.1c-24.199,0-43.886,19.687-43.886,43.886
	c0,0.595,0.027,1.185,0.059,1.772c0.017,0.309,0.037,0.616,0.037,0.924c0,11.087,3.81,20.255,11.324,27.25
	c7.293,6.79,17.738,11.16,31.043,12.989c5.227,0.719,9.869,0.884,13.041,0.884c2.004,0,3.421-0.066,4.027-0.101h25.714
	c-0.045,1.48-0.076,2.956-0.076,4.417c0,45.893,21.474,88.217,57.942,115.292c-18.787,14.362-39.898,28.996-62.958,43.601
	c-3.657,2.316-4.744,7.158-2.427,10.814c2.314,3.655,7.155,4.743,10.814,2.427c4.444-2.814,8.798-5.621,13.081-8.421
	c4.465,6.909,10.698,13.926,21.356,13.926c13.319,0,19.731-10.964,24.413-18.969c4.455-7.619,6.982-11.209,10.884-11.209
	c3.894,0,6.419,3.587,10.871,11.201c4.683,8.008,11.098,18.976,24.426,18.976c13.319,0,19.731-10.964,24.413-18.969
	c4.455-7.619,6.982-11.209,10.884-11.209c3.894,0,6.419,3.587,10.871,11.201c4.683,8.008,11.098,18.975,24.424,18.975
	c13.319,0,19.732-10.964,24.413-18.969c4.455-7.619,6.982-11.209,10.884-11.209c3.895,0,6.42,3.588,10.872,11.203
	c4.681,8.007,11.093,18.973,24.414,18.973c10.645,0,16.879-7.008,21.347-13.907c23.945,15.668,46.146,28.748,62.695,38.075H66.056
	c6.744-3.801,13.575-7.747,20.419-11.795c3.725-2.203,4.959-7.009,2.756-10.734c-2.203-3.724-7.008-4.958-10.734-2.756
	c-10.92,6.457-21.799,12.648-32.334,18.4c-2.838,1.55-4.819,4.027-5.72,6.886H7.837c-4.328,0-7.837,3.509-7.837,7.837
	s3.509,7.837,7.837,7.837h44.092h408.143h44.092c4.328,0,7.837-3.509,7.837-7.837S508.491,429.092,504.163,429.092z M86.446,207.192
	c-0.178,0-0.37,0.007-0.548,0.019c-6.837,0.471-26.75-0.349-36.67-9.615c-4.241-3.961-6.303-9.114-6.303-15.753
	c0-0.58-0.027-1.161-0.057-1.746c-0.017-0.315-0.037-0.631-0.037-0.95c0-15.556,12.656-28.212,28.212-28.212
	c2.367,0,4.71,0.294,6.966,0.871c0.705,0.181,1.425,0.251,2.139,0.233c7.231,1.693,20.2,6.897,20.918,22.534
	c0.193,4.202,3.659,7.477,7.822,7.477c0.121,0,0.242-0.002,0.366-0.008c4.324-0.199,7.667-3.864,7.469-8.188
	c-0.932-20.316-14.623-30.756-27.165-35.333c4.924-12.656,17.366-21.536,31.378-21.536c3.043,0,6.114,0.424,9.125,1.261
	c2.019,0.561,4.181,0.289,6-0.755c1.819-1.045,3.142-2.774,3.676-4.801c5.609-21.312,29.18-31.831,47.802-29.355
	c10.937,1.454,21.332,7.867,28.518,17.592c4.926,6.664,7.8,14.312,8.207,21.415c-29.36,2.916-42.618,23.122-42.618,43.174
	c0,4.554,0.699,9.044,2.079,13.346c1.067,3.326,4.145,5.446,7.461,5.446c0.793,0,1.6-0.121,2.395-0.376
	c4.121-1.322,6.392-5.733,5.07-9.855c-0.883-2.754-1.33-5.634-1.33-8.561c0-17.084,13.011-27.733,33.981-27.867
	c17.851,1.824,31.272,16.67,31.272,34.675c0,19.226-15.646,34.868-34.879,34.868H120.672c-0.043,0-0.087-0.001-0.13,0H86.446
	V207.192z M305.203,311.75c1.997,0,3.409-0.066,4.018-0.101h43.052c-6.908,7.891-14.741,14.877-23.424,20.886
	c-5.488-4.414-10.736-8.793-15.742-13.134c-0.015-0.013-0.03-0.026-0.045-0.039c-0.915-0.794-1.819-1.586-2.719-2.377
	c-0.127-0.113-0.256-0.225-0.383-0.337c-0.796-0.702-1.583-1.403-2.367-2.103c-0.225-0.201-0.449-0.401-0.673-0.602
	c-0.699-0.628-1.391-1.254-2.079-1.88c-0.116-0.106-0.232-0.211-0.348-0.317C304.732,311.748,304.977,311.75,305.203,311.75z
	 M361.9,389.25c-3.903,0-6.428-3.59-10.884-11.211c-4.68-8.004-11.088-18.966-24.403-18.966c-13.319,0-19.732,10.964-24.413,18.969
	c-4.455,7.619-6.982,11.209-10.884,11.209c-3.909,0-6.437-3.591-10.895-11.215c-4.68-8.003-11.09-18.962-24.401-18.962
	c-13.32,0-19.732,10.964-24.413,18.969c-4.455,7.618-6.982,11.208-10.884,11.208c-3.909,0-6.438-3.591-10.896-11.215
	c-4.68-8.003-11.09-18.962-24.401-18.962c-13.32,0-19.732,10.964-24.413,18.969c-4.455,7.618-6.982,11.208-10.884,11.208
	c-3.081,0-5.306-2.239-8.299-6.936c36.518-24.711,66.591-48.78,89.782-71.862c0.133-0.132,0.266-0.263,0.398-0.395
	c1.491-1.489,2.955-2.974,4.389-4.453c0.249-0.257,0.494-0.513,0.742-0.77c1.401-1.456,2.785-2.909,4.129-4.356
	c0.02-0.021,0.041-0.042,0.06-0.064h29.334c1.555,1.673,3.15,3.352,4.781,5.037c0.236,0.245,0.481,0.487,0.719,0.73
	c0.001,0.001,0.001,0.001,0.002,0.002c0.161,0.165,0.327,0.329,0.488,0.494c1.242,1.272,2.491,2.544,3.777,3.823
	c0.42,0.418,0.853,0.832,1.276,1.249c1.289,1.27,2.584,2.54,3.915,3.817c0.331,0.318,0.671,0.632,1.004,0.949
	c1.439,1.37,2.889,2.742,4.376,4.12c0.142,0.131,0.287,0.261,0.428,0.392c9.866,9.117,20.797,18.393,32.741,27.801
	c0.434,0.342,0.865,0.687,1.3,1.027c1.366,1.07,2.755,2.144,4.148,3.217c0.769,0.594,1.537,1.188,2.309,1.777
	c1.186,0.907,2.387,1.816,3.591,2.725c1.06,0.799,2.118,1.596,3.18,2.388c0.996,0.743,1.995,1.486,3.002,2.23
	c1.46,1.078,2.921,2.147,4.382,3.212c0.669,0.487,1.331,0.973,2.005,1.46c7.395,5.35,14.793,10.511,22.104,15.463
	C367.202,387.015,364.979,389.25,361.9,389.25z"/>
</svg>